<svg width="45" height="44" viewBox="0 0 45 44" fill="none" xmlns="http://www.w3.org/2000/svg">
<path d="M22.4185 44.0003C16.5 44.0003 10.5652 44.0003 4.64674 44.0003C1.67935 44.0003 0 42.3725 0 39.5393C0 29.4119 0 19.3002 0 9.17286C0 6.95016 1.40217 5.29096 3.47283 4.97791C4.01087 4.89964 4.05978 5.05617 4.05978 5.4788C4.04348 7.04408 4.04348 8.60936 4.05978 10.1746C4.07609 12.6791 6.04891 14.5887 8.6413 14.5574C9.96196 14.5418 11.2989 14.7453 12.6033 14.4009C14.6902 13.853 15.9783 12.2408 15.9946 10.1746C15.9946 8.60936 16.0109 7.04408 15.9783 5.4788C15.962 4.99356 16.125 4.85269 16.6304 4.86834C20.5435 4.88399 24.4565 4.88399 28.3696 4.86834C28.8587 4.86834 29.0217 4.99356 29.0217 5.4788C28.9891 7.09104 29.0054 8.71893 29.0054 10.3312C29.0217 12.4443 30.7663 14.4009 33.0163 14.5418C34.5489 14.6357 36.1141 14.7922 37.6304 14.4009C39.6359 13.8844 40.9239 12.2721 40.9402 10.2686C40.9565 8.67197 40.9565 7.09104 40.9402 5.49445C40.9402 5.07183 40.9891 4.9153 41.5272 4.99356C43.5163 5.29096 44.9837 6.95016 44.9837 9.03198C45 14.2287 44.9837 19.4098 44.9837 24.6065C44.9837 29.6154 44.9837 34.6243 44.9837 39.6332C44.9837 42.3568 43.2717 44.0003 40.4185 44.016C34.4185 44.0003 28.4185 44.0003 22.4185 44.0003ZM22.4185 39.7741C27.4728 39.7741 32.5272 39.7741 37.5815 39.7741C39 39.7741 39.6196 39.1793 39.6196 37.8175C39.6196 32.6521 39.6196 27.4866 39.6196 22.3212C39.6196 20.8812 39.0163 20.2864 37.5 20.2864C27.4728 20.2864 17.4457 20.2864 7.41848 20.2864C5.91848 20.2864 5.25 20.9438 5.25 22.3995C5.25 27.4866 5.25 32.5738 5.25 37.661C5.25 39.1323 5.91848 39.7584 7.43478 39.7584C12.4239 39.7741 17.413 39.7741 22.4185 39.7741Z" fill="black" fill-opacity="0.73"/>
<path d="M31.9565 5.79155C31.9565 4.42976 31.9565 3.08362 31.9565 1.72183C31.9565 0.563521 32.5435 0.0156736 33.7663 2.08458e-05C34.5489 -0.0156319 35.3478 -0.0156319 36.1304 2.08458e-05C37.2391 0.0156736 37.9076 0.532216 37.9239 1.59661C37.9728 4.42976 37.9728 7.27857 37.9239 10.1117C37.9076 11.1918 37.2228 11.724 36.0652 11.724C35.3315 11.724 34.5978 11.724 33.8641 11.724C32.5598 11.724 31.9565 11.1448 31.9565 9.92389C31.9565 8.5621 31.9565 7.18465 31.9565 5.79155Z" fill="black" fill-opacity="0.73"/>
<path d="M7.01088 5.82283C7.01088 4.44539 7.01088 3.05229 7.01088 1.67484C7.01088 0.626105 7.61414 0.0312986 8.70653 0.0156458C9.55436 -6.9472e-06 10.3859 -6.9472e-06 11.2337 0.0156458C12.2935 0.0312986 12.962 0.563494 12.9783 1.58092C13.0272 4.44539 13.0272 7.30985 12.9783 10.19C12.962 11.1917 12.2609 11.7396 11.2174 11.7552C10.4022 11.7709 9.58697 11.7709 8.77175 11.7552C7.64675 11.7239 7.01088 11.1291 7.01088 10.0491C6.99457 8.64033 7.01088 7.23158 7.01088 5.82283Z" fill="black" fill-opacity="0.73"/>
<path d="M22.5815 23.3068C23.1033 23.3068 23.6087 23.2911 24.1304 23.3068C24.962 23.3224 25.3533 23.6198 25.3859 24.4025C25.4348 25.4668 25.4185 26.5312 25.3859 27.6113C25.3696 28.347 24.8967 28.7539 24.1304 28.7696C23.038 28.7852 21.962 28.8009 20.8696 28.7696C20.0054 28.7383 19.6304 28.3783 19.6141 27.5487C19.5815 26.5312 19.5815 25.5138 19.6141 24.4964C19.6467 23.6198 20.0217 23.3224 20.9511 23.3068C21.4891 23.3068 22.0272 23.3068 22.5815 23.3068Z" fill="black" fill-opacity="0.73"/>
<path d="M22.5 37.4258C21.962 37.4258 21.4076 37.3945 20.8696 37.4258C20.087 37.4727 19.663 37.0658 19.6304 36.3927C19.5815 35.2813 19.5815 34.1543 19.6304 33.0273C19.663 32.3073 20.1685 31.963 20.8696 31.9473C21.962 31.916 23.038 31.916 24.1304 31.9473C24.9783 31.9786 25.3533 32.3699 25.3859 33.1839C25.4185 34.2013 25.4185 35.2187 25.3859 36.2362C25.3533 37.0971 24.962 37.4101 24.0326 37.4101C23.5272 37.4258 23.0054 37.4258 22.5 37.4258Z" fill="black" fill-opacity="0.73"/>
<path d="M13.3696 37.4257C12.7663 37.4257 12.1794 37.4257 11.5761 37.4257C10.9565 37.4257 10.5978 37.1127 10.5978 36.5335C10.5815 35.3439 10.5815 34.1387 10.5978 32.949C10.5978 32.2447 11.1522 32.0099 11.7391 31.9786C12.8478 31.9316 13.9565 31.9316 15.0652 31.9786C15.913 32.0099 16.2554 32.4169 16.2717 33.2465C16.288 34.2326 16.288 35.2187 16.2717 36.2205C16.2554 37.1596 15.913 37.4414 14.9185 37.4414C14.3967 37.4257 13.875 37.4257 13.3696 37.4257Z" fill="black" fill-opacity="0.73"/>
<path d="M13.4348 23.3069C13.9728 23.3069 14.5109 23.3225 15.0652 23.3069C15.8478 23.2756 16.2391 23.6825 16.2717 24.3713C16.3044 25.4669 16.3044 26.5626 16.2717 27.6427C16.2554 28.3627 15.7826 28.7384 15.0815 28.754C13.9728 28.7853 12.8641 28.801 11.7554 28.754C10.9076 28.7227 10.5978 28.3784 10.5978 27.5644C10.5815 26.5313 10.5815 25.4826 10.5978 24.4495C10.6141 23.5886 10.9076 23.3225 11.837 23.3069C12.3587 23.3069 12.8967 23.3069 13.4348 23.3069Z" fill="black" fill-opacity="0.73"/>
<path d="M31.5978 23.3071C32.1685 23.3071 32.7391 23.3071 33.3098 23.3071C34.0435 23.3071 34.4185 23.6358 34.4185 24.3402C34.4185 25.4359 34.4022 26.5316 34.4348 27.6116C34.4511 28.3786 34.0109 28.723 33.2935 28.7543C32.1522 28.8013 31.0109 28.7856 29.8859 28.7543C29.1033 28.723 28.7283 28.2534 28.7283 27.5334C28.712 26.5159 28.6957 25.4985 28.7283 24.4967C28.7609 23.6358 29.1033 23.3384 29.9837 23.3228C30.5217 23.3071 31.0598 23.3071 31.5978 23.3071Z" fill="black" fill-opacity="0.73"/>
<path d="M31.5978 37.4258C31.0598 37.4258 30.5054 37.4258 29.9674 37.4258C29.1196 37.4101 28.7446 37.1284 28.712 36.3301C28.663 35.2657 28.6957 34.2013 28.712 33.1369C28.7283 32.4169 29.1522 32.0099 29.8696 31.9786C31.0109 31.9316 32.1522 31.9316 33.2772 31.9786C33.9783 32.0099 34.4348 32.3542 34.4185 33.1212C34.4022 34.2169 34.4185 35.3126 34.4022 36.3927C34.4022 37.0814 34.0435 37.4414 33.2935 37.4258C32.7391 37.4258 32.1685 37.4258 31.5978 37.4258Z" fill="black" fill-opacity="0.73"/>
</svg>
