<?xml version="1.0" encoding="utf-8"?>
<!-- Generator: Adobe Illustrator 22.0.0, SVG Export Plug-In . SVG Version: 6.00 Build 0)  -->
<svg version="1.1" id="Слой_1" xmlns="http://www.w3.org/2000/svg" xmlns:xlink="http://www.w3.org/1999/xlink" x="0px" y="0px"
	 viewBox="0 0 38 38" style="enable-background:new 0 0 38 38;" xml:space="preserve">
<style type="text/css">
	.st0{fill:#F08941;}
</style>
<path class="st0" d="M32,0H6C2.7,0,0,2.7,0,6v26c0,3.3,2.7,6,6,6h26c3.3,0,6-2.7,6-6V6C38,2.7,35.3,0,32,0z M16.2,31.2V19h-2.7v-4.1
	h2.7v-2.5c0-3.3,1.1-5.7,4.9-5.7h4.6v4.1h-3.2c-1.6,0-2,1-2,2.1v2h5L24.9,19h-4.3v12.2H16.2z"/>
</svg>
