<?xml version="1.0" encoding="utf-8"?>
<!-- Generator: Adobe Illustrator 22.0.0, SVG Export Plug-In . SVG Version: 6.00 Build 0)  -->
<svg version="1.1" id="Слой_1" xmlns="http://www.w3.org/2000/svg" xmlns:xlink="http://www.w3.org/1999/xlink" x="0px" y="0px"
	 viewBox="0 0 38 38" style="enable-background:new 0 0 38 38;" xml:space="preserve">
<style type="text/css">
	.st0{fill:#FFFFFF;}
</style>
<g>
	<path class="st0" d="M32,0H6C2.7,0,0,2.7,0,6v26c0,3.3,2.7,6,6,6h26c3.3,0,6-2.7,6-6V6C38,2.7,35.3,0,32,0z M33,24.8
		c-0.1,1.5-0.3,2.5-0.7,3.4c-0.4,0.9-0.8,1.7-1.6,2.5c-0.8,0.8-1.6,1.3-2.5,1.6c-0.9,0.3-1.9,0.6-3.4,0.7c-1.5,0.1-2,0.1-5.8,0.1
		c-3.8,0-4.3,0-5.8-0.1c-1.5-0.1-2.5-0.3-3.4-0.7c-0.9-0.4-1.7-0.8-2.5-1.6c-0.8-0.8-1.3-1.5-1.7-2.5C5.4,27.3,5,26.3,5,24.8
		s-0.1-2-0.1-5.8s0-4.3,0.1-5.8s0.3-2.5,0.7-3.4C6,8.9,6.5,8.1,7.3,7.3S8.9,6,9.8,5.7c0.9-0.4,2-0.7,3.5-0.8c1.5,0,2,0,5.8,0
		c3.8,0,4.3,0,5.8,0.1c1.5,0.1,2.5,0.3,3.4,0.7c0.9,0.4,1.7,0.8,2.5,1.6s1.3,1.6,1.6,2.5c0.3,0.9,0.6,1.9,0.7,3.4
		c0.1,1.5,0.1,2,0.1,5.8S33.2,23.3,33,24.8z"/>
	<path class="st0" d="M30,10.7C29.8,10,29.5,9.6,29,9.1S28,8.3,27.4,8c-0.5-0.2-1.2-0.4-2.6-0.5c-1.5-0.1-1.9-0.1-5.7-0.1
		c-3.8,0-4.2,0-5.7,0.1C12,7.6,11.3,7.8,10.8,8C10,8.3,9.7,8.6,9.2,9.1s-0.8,1-1.1,1.6c-0.2,0.5-0.4,1.2-0.5,2.6
		c-0.1,1.5-0.1,1.9-0.1,5.7s0,4.2,0.1,5.7c0.1,1.4,0.3,2.1,0.5,2.6c0.2,0.7,0.6,1.1,1,1.6c0.5,0.5,1,0.8,1.6,1.1
		c0.5,0.2,1.2,0.4,2.6,0.5c1.5,0.1,1.9,0.1,5.7,0.1s4.2,0,5.7-0.1c1.4-0.1,2.1-0.3,2.6-0.5c0.7-0.3,1.1-0.6,1.6-1.1s0.8-1,1.1-1.6
		c0.2-0.5,0.4-1.2,0.5-2.6c0.1-1.5,0.1-1.9,0.1-5.7s0-4.2-0.1-5.7C30.5,11.9,30.3,11.1,30,10.7z M19,26.2c-4,0-7.2-3.2-7.2-7.2
		s3.2-7.2,7.2-7.2s7.2,3.2,7.2,7.2S23,26.2,19,26.2z M26.5,13.1c-0.9,0-1.7-0.8-1.7-1.7c0-0.9,0.8-1.7,1.7-1.7
		c0.9,0,1.7,0.8,1.7,1.7C28.3,12.4,27.5,13.1,26.5,13.1z"/>
	<ellipse transform="matrix(0.9871 -0.1602 0.1602 0.9871 -2.7975 3.2968)" class="st0" cx="19.1" cy="19" rx="4.7" ry="4.7"/>
</g>
</svg>
