<svg id="Слой_1" data-name="Слой 1" xmlns="http://www.w3.org/2000/svg" viewBox="0 0 259.82 267.93"><defs><style>.cls-1{fill:#fff;}.cls-2{fill:#f08a40;}</style></defs><title>logo2</title><path class="cls-1" d="M0,163.35V105.09a97,97,0,0,1,25,.66Q36.94,107.7,38.8,119q.56,13.44-15.57,19T7.38,147.43v15.92ZM7.38,141A90.22,90.22,0,0,0,22,134.67q8.94-4.6,9-14.82-.43-14.3-23.62-11.3Z"/><path class="cls-1" d="M69.1,105.09v30.3q7.62-24.12,27.58-30.3v7.77q-12.27.47-19.81,11.61,19.3,18.3,23.69,38.88H92.8q-2-20-17.25-36.27Q69,140.89,69.1,147.82v15.53H61.72V105.09Z"/><path class="cls-1" d="M130.51,105.09l16.67,58.26H139.8l-5.44-19.42h-17.6q-1.67,12-.66,19.42h-7.77l16.39-58.26Zm-5.16,7.73-7.58,28.39h15.66Z"/><path class="cls-1" d="M166.6,105.09h7.77l10,22.34,9.83-22.34h7.38l11.65,58.26h-7.38L195.3,110.18l-9.71,22.49h-5.9l-11-23.7q-7,44.76-6,54.38h-7.77Z"/><path class="cls-1" d="M259.82,163.35h-7.38V112.86l-24.08,50.49H221V105.09h7.38v50.5l24.08-50.5h7.38Z"/><path class="cls-2" d="M51.26,47.6l.84,14.84c.29,5.08.17,10.16.25,15.24,0,1.11-.3,1.49-1.45,1.5-3.94,0-4,.1-3.92-3.81.09-8-.11-15.94.58-23.89.14-1.66.75-3.28.37-5-1.71,7.13-2,14.44-2.49,22.19a30.6,30.6,0,0,1-3.5-7.84A94.33,94.33,0,0,1,38,44.27a126.61,126.61,0,0,1-1.5-26A37,37,0,0,1,38.77,6.09c1.55-3.79,5.41-6.61,9.55-6,6.9,1,11.48,5.09,15.32,10.31,3.23,4.38,4.53,9.54,4.84,14.89a102.54,102.54,0,0,1-1.41,21.2A73.93,73.93,0,0,1,63.76,60.9a20.77,20.77,0,0,1-8.53,10.7c-.81.51-1.48.64-1.53-.74-.22-6.51-.73-13-1.46-19.49-.14-1.3-.46-2.58-.7-3.86ZM57.2,66.13C60.39,63,61.73,59,62.61,54.81A137,137,0,0,0,65,38.41c.55-6.4.89-12.79-.84-19.07-1.89-6.85-5.86-12-12.58-14.72A9.45,9.45,0,0,0,44,4.53a20.28,20.28,0,0,1,7.61,2.21c7.16,3.81,10.59,10.07,11.67,17.83,1.36,9.69-.42,19.2-1.88,28.71A36.13,36.13,0,0,1,57.2,66.13Z"/><path class="cls-2" d="M48.11,220.93c-.23-2.75-.47-5.5-.68-8.25-.6-7.55-.31-15.12-.43-22.68,0-1,.28-1.4,1.36-1.44,4-.15,4-.19,4,3.84q.09,10.74-.57,21.46c-.14,2.22-.73,4.42-.3,6.67,1.41-6.85,1.79-13.82,2.42-20.8a27.93,27.93,0,0,1,3.55,7.87,100.65,100.65,0,0,1,4,17.81,114.84,114.84,0,0,1,.79,29.34,21.51,21.51,0,0,1-2.36,7.88c-3,5.42-7.77,6.38-12.75,4.26-8.7-3.7-13.85-10.36-15.78-19.67-1.36-6.52-.69-12.95-.08-19.45A117,117,0,0,1,34,211.43c1.06-4.4,2.73-8.51,5.92-11.86a23.12,23.12,0,0,1,4-3.26c1.27-.84,1.55-.55,1.61.8.18,4,.28,8.08.67,12.09S46.84,217.09,48.11,220.93Zm-6.17-19.18a4.31,4.31,0,0,0-.63.43c-.26.3-.51.62-.74.94-3,4.19-3.91,9.14-4.81,14s-1.39,9.93-1.85,14.92c-.67,7.26-.38,14.41,2.89,21.09a19.9,19.9,0,0,0,12.77,10.76,6.42,6.42,0,0,0,5.77-.79,16.16,16.16,0,0,1-7-1.67c-8.07-3.93-12-10.82-12.57-19.38a98.82,98.82,0,0,1,3.95-35.17C40.24,205.18,41.24,203.67,41.94,201.75Z"/><path class="cls-1" d="M52.35,133.93v47.29c0,1.76-.88,2.35-2.6,1.84-.52-.15-.58-.48-.59-.89s0-1,0-1.56q0-37.08,0-74.15c0-6.63.05-13.26,0-19.89,0-1.26.21-1.85,1.66-1.88s1.58.8,1.58,1.94Q52.34,110.29,52.35,133.93Z"/><path class="cls-1" d="M48.21,144.08V181c0,.52,0,1,0,1.56a.51.51,0,0,1-.56.52.49.49,0,0,1-.56-.51c0-.57,0-1.15,0-1.73q0-35,0-70,0-12,0-24c0-.46,0-.93,0-1.39s.2-.65.65-.61a.55.55,0,0,1,.51.58c0,.29,0,.58,0,.87,0,5.31-.06,10.62,0,15.93,0,9.34,0,18.68,0,28C48.22,134.85,48.21,139.46,48.21,144.08Z"/><path class="cls-2" d="M49.48,187.3H46.54c-.81,0-1.47-.21-1.57-1.19s.35-1.82,1.32-1.88a64.84,64.84,0,0,1,6.54,0,1.53,1.53,0,0,1,1.49,1.61,1.48,1.48,0,0,1-1.74,1.48C51.55,187.28,50.51,187.3,49.48,187.3Z"/><path class="cls-1" d="M49.81,80.44c1,0,2-.06,2.94,0A1.54,1.54,0,0,1,54.35,82a1.44,1.44,0,0,1-1.54,1.54c-2.13.07-4.27.07-6.4,0A1.35,1.35,0,0,1,45,81.94a1.46,1.46,0,0,1,1.56-1.5c1.09-.06,2.19,0,3.29,0Z"/></svg>