<svg width="45" height="36" viewBox="0 0 45 36" fill="none" xmlns="http://www.w3.org/2000/svg">
<path d="M22.7471 19.4541C24.7715 19.4998 26.6684 19.3019 28.5016 19.926C31.9128 21.0981 34.0648 24.0816 34.1126 27.7957C34.1445 29.6528 34.0967 31.4947 34.1286 33.3518C34.1286 33.8389 33.9532 34.0672 33.491 34.2651C31.1636 35.2393 28.6929 35.6807 26.1902 35.8938C21.4559 36.2896 16.8491 35.6046 12.306 34.326C11.8278 34.189 11.6206 34.0063 11.6206 33.4888C11.6525 31.3577 11.6525 29.2266 11.6525 27.0955C11.6525 24.0055 14.187 20.3826 18.4431 19.6063C19.9256 19.3323 21.4081 19.5302 22.7471 19.4541Z" fill="#454545"/>
<path d="M17.1682 18.3581C15.5901 18.8909 14.2352 19.5911 13.1034 20.6567C11.063 22.5899 10.0109 24.9036 10.0588 27.674C10.0747 28.2524 10.3138 29.0135 9.94718 29.3636C9.58054 29.729 8.79946 29.3789 8.20966 29.318C5.57948 29.0592 2.99712 28.4808 0.462585 27.7653C0.207538 27.6892 0.000311246 27.5979 0.0162517 27.2478C0.111895 24.7209 -0.175034 22.1789 0.175657 19.652C0.669812 16.0748 4.16078 13.1218 7.95461 13.0304C9.96312 12.9848 11.9876 13.0152 14.012 13C14.4583 13 14.6974 13.0609 14.7453 13.6089C14.9365 15.4355 15.7814 16.9882 17.1682 18.3581Z" fill="#454545"/>
<path d="M28.5335 18.3273C29.984 16.9117 30.7811 15.3134 30.9564 13.4258C30.9724 13.1975 31.0042 12.9996 31.2912 13.0148C33.8735 13.1214 36.5037 12.6495 39.0382 13.365C42.577 14.3696 44.9522 17.4444 44.9841 20.9607C45 22.9396 44.9681 24.9184 45 26.8973C45 27.3844 44.8406 27.628 44.3943 27.8106C41.796 28.8609 39.0701 29.2719 36.2965 29.5003C35.7864 29.5459 35.6589 29.348 35.6748 28.8914C35.7067 27.491 35.7067 26.0905 35.2444 24.751C34.2083 21.7218 32.136 19.6364 28.9957 18.5252C28.8523 18.4948 28.7407 18.4339 28.5335 18.3273Z" fill="#454545"/>
<path d="M22.8427 19.0124C19.1605 19.0124 16.2752 16.2724 16.2593 12.7714C16.2593 9.27032 19.1445 6.51514 22.8268 6.51514C26.509 6.51514 29.4102 9.27032 29.4102 12.7562C29.4261 16.242 26.525 19.0124 22.8427 19.0124Z" fill="#454545"/>
<path d="M11.238 0.000254064C14.729 -0.0301899 17.7258 2.67932 17.8852 6.01294C17.9011 6.42393 17.7896 6.71315 17.4389 6.98715C16.0999 8.06791 15.271 9.46833 14.8725 11.0819C14.7928 11.432 14.6493 11.6603 14.3145 11.8277C10.2497 13.837 5.53133 11.4015 4.78212 7.35247C4.11262 3.72964 7.01379 0.061142 11.238 0.000254064Z" fill="#454545"/>
<path d="M40.3613 6.2412C40.3613 10.549 35.8661 13.6086 31.6578 12.2387C31.1318 12.0712 30.9086 11.782 30.813 11.2797C30.4623 9.31604 29.3783 7.7634 27.7365 6.5913C27.2742 6.25642 27.1626 5.98242 27.2264 5.41921C27.5133 2.89236 29.8725 0.304623 33.2997 0.0154048C36.5356 -0.243369 39.7556 2.13126 40.2179 5.17566C40.2657 5.54099 40.4091 5.90631 40.3613 6.2412Z" fill="#454545"/>
</svg>
