<?xml version="1.0" encoding="utf-8"?>
<!-- Generator: Adobe Illustrator 22.0.0, SVG Export Plug-In . SVG Version: 6.00 Build 0)  -->
<svg version="1.1" id="Слой_1" xmlns="http://www.w3.org/2000/svg" xmlns:xlink="http://www.w3.org/1999/xlink" x="0px" y="0px"
	 viewBox="0 0 38 38" style="enable-background:new 0 0 38 38;" xml:space="preserve">
<style type="text/css">
	.st0{fill:#F08A40;}
</style>
<path class="st0" d="M32,0H6C2.7,0,0,2.7,0,6v26c0,3.3,2.7,6,6,6h26c3.3,0,6-2.7,6-6V6C38,2.7,35.3,0,32,0z M30,26.4
	c-0.2,1-1.1,1.8-1.9,2.5c-0.2,0.2-0.3,0.3-0.5,0.4c-0.5,0.5-1.2,0.8-2.2,0.8c-0.9,0-2.1-0.2-3.4-0.7c-2.8-1.1-5.8-3.1-8.5-5.9
	S8.7,17.8,7.6,15C7.2,13.6,7,12.5,7,11.5s0.2-1.7,0.7-2.2C7.9,9.2,8,9,8.1,8.9C9,8,10,6.9,11.3,7c0.9,0,1.8,0.6,2.6,1.7
	c2.6,3.3,1.5,4.4,0.1,5.8l-0.2,0.2c-0.2,0.2-0.6,1.2,3.3,5.2c1.3,1.3,2.4,2.2,3.3,2.8c0.5,0.4,1.5,0.9,1.9,0.5l0.2-0.2
	c1.3-1.4,2.6-2.6,5.8,0.1c0.9,0.7,1.5,1.5,1.6,2.3v1H30z"/>
</svg>
