<svg width="31" height="31" viewBox="0 0 31 31" fill="none" xmlns="http://www.w3.org/2000/svg">
<g clip-path="url(#clip0_47_1388)">
<path d="M30.9999 15.5331C30.9889 24.105 24.0304 31.0221 15.4449 31.0001C6.91443 30.978 -0.0111019 24.0278 -0.000109002 15.478C0.0108839 6.91713 6.98039 -0.0220116 15.5549 5.24715e-05C24.0963 0.0221165 31.0109 6.97229 30.9999 15.5331ZM22.8981 15.5221C22.7772 15.4339 22.7002 15.3787 22.6233 15.3346C18.9846 13.2275 15.335 11.1424 11.7073 9.02425C11.2566 8.75948 11.2566 8.936 11.2566 9.31108C11.2676 13.4481 11.2676 17.5851 11.2566 21.7111C11.2566 22.1303 11.3006 22.2296 11.7183 21.9869C14.2907 20.4865 16.874 19.0082 19.4573 17.5189C20.6006 16.857 21.7329 16.1951 22.8981 15.5221Z" fill="#F08A40"/>
</g>
<defs>
<clipPath id="clip0_47_1388">
<rect width="31" height="31" fill="white"/>
</clipPath>
</defs>
</svg>
