<svg width="124" height="97" viewBox="0 0 124 97" fill="none" xmlns="http://www.w3.org/2000/svg">
<g clip-path="url(#clip0_213_1586)">
<path d="M66.2832 60.4658C66.6966 62.3777 66.9192 63.9449 66.4422 65.5434C65.679 67.9882 64.0254 69.2733 61.4178 69.3046C60.3047 69.3046 59.1917 69.3046 58.0787 69.2106C54.8351 68.9285 51.6551 68.9598 48.475 69.7748C46.6942 70.2136 44.8498 70.0569 43.3234 68.8972C42.8146 68.4897 42.3376 68.6778 41.8288 68.7718C39.4437 69.1792 37.0905 69.524 35.0553 67.6748C34.6419 67.2986 34.1649 67.5807 33.7197 67.6748C31.0485 68.333 28.3772 68.8031 26.0876 66.6718C25.6742 66.2956 25.1654 66.5464 24.7202 66.6091C20.0137 67.2673 16.9609 64.1329 18.3283 59.6508C19.0915 57.112 19.7911 54.8866 19.3459 52.0343C18.8371 48.7119 20.6815 45.797 23.8298 44.0104C24.3068 43.7283 24.8156 43.5716 24.9428 42.8194C25.865 37.773 29.3312 34.7327 34.7055 34.2312C37.9809 33.9178 41.161 34.2939 44.2456 35.4223C45.0088 35.7044 45.4858 35.7044 45.9628 34.9521C47.6482 32.3506 49.6516 29.9685 52.2593 28.2133C51.8777 27.5551 51.2417 27.5551 50.7329 27.3357C44.6272 24.7968 42.1468 19.7505 41.1928 13.7012C41.1292 13.2311 41.1292 12.7923 41.8288 13.1057C43.8958 14.0773 46.1854 14.14 48.3796 14.0773C53.4359 13.952 56.7113 16.2714 58.6829 20.6908C58.8419 21.0043 58.9055 21.4117 59.3825 21.5998C59.7959 20.9729 60.2411 20.3147 60.591 19.6565C62.3082 16.3968 65.1702 15.1744 68.7318 15.2057C70.131 15.2057 71.4985 15.2057 72.8023 13.952C73.0567 16.5848 72.3253 18.6848 71.2441 20.7222C70.1628 22.7282 68.6046 24.2953 66.6012 25.9565C68.9544 26.2386 70.8307 26.8342 72.4525 28.0566C72.9295 28.4327 73.4701 28.2446 73.9789 28.2133C77.1907 28.0252 78.0175 28.4954 79.1941 31.4103C79.4485 32.0372 79.8301 31.7864 80.2118 31.7864C82.9466 31.6924 84.473 32.6641 85.4588 35.1402C85.6496 35.6103 85.586 36.1118 86.4446 35.9551C90.1016 35.2342 91.8507 36.0178 93.5043 39.2775C94.0131 40.3119 94.6173 40.782 95.8257 40.9701C98.3061 41.3462 99.8962 43.3209 100.214 46.2358C100.341 47.3955 100.564 47.7716 101.804 47.3015C103.426 46.6746 105.048 47.3015 106.574 47.897C108.164 48.4925 109.659 49.2761 111.312 49.6522C112.235 49.8716 113.157 49.903 113.761 49.0567C114.429 48.1164 113.888 47.2701 113.379 46.4552C113.252 46.2358 113.061 46.0477 112.871 45.8597C111.122 44.1044 111.185 42.7253 113.316 41.3462C115.574 39.9044 118.118 39.4656 120.789 39.7477C121.902 39.8731 122.633 40.4686 122.983 41.5029C124.001 44.4179 124.351 47.3955 123.587 50.4358C122.761 53.6642 120.948 55.1687 117.577 55.5448C114.874 55.8583 112.171 55.5762 109.5 55.3568C107.401 55.1687 105.302 54.8239 103.172 55.2C102.408 55.3254 101.582 55.3568 100.914 56.109C103.076 56.5478 105.143 57.0807 106.829 58.4598C107.655 59.118 108.8 59.7762 108.705 60.8419C108.578 61.9389 107.178 61.9702 106.288 62.2523C96.3027 65.1986 86.1902 66.2643 75.8551 64.0389C72.5797 63.318 69.5904 62.0016 66.2832 60.4658ZM96.6525 47.803C96.6207 45.9537 96.3663 44.5746 94.8081 43.9477C93.2181 43.2895 92.0415 44.2298 91.0875 45.3268C90.6105 45.8597 90.2288 46.5179 89.9108 47.1761C88.9886 49.2134 88.13 51.3134 87.2078 53.3508C86.8898 54.0717 86.9534 54.5732 87.4622 55.1687C88.6706 56.6418 89.0204 58.3344 88.448 60.1837C88.0664 61.3747 87.3668 61.8762 86.063 61.5628C83.0102 60.7792 80.1481 59.5881 77.4769 57.9583C76.5229 57.3627 76.3003 56.7359 76.6501 55.6075C78.1765 50.7179 79.6393 45.8283 81.8654 41.1895C82.6286 39.6223 81.929 37.4596 80.6252 36.7074C79.4167 36.0178 78.2719 36.5193 76.9363 38.2432C75.9187 39.591 75.2191 41.1268 74.5513 42.6626C72.9931 46.1418 71.7529 49.7776 69.7494 53.0373C69.2724 53.8209 69.7812 54.0403 70.2582 54.3851C74.9647 57.8642 80.0528 60.5598 85.7132 62.221C86.9216 62.5658 87.8756 62.4091 88.8296 61.6882C93.4089 57.9896 95.7303 53.1 96.6525 47.803ZM82.247 63.5061C77.9539 61.8449 74.1061 59.4628 70.3854 56.8612C64.884 53.0373 60.0185 48.3985 54.8033 44.2612C51.3371 41.5029 47.9026 38.682 43.3234 37.8984C40.7794 37.4596 38.2671 37.3656 35.8503 38.5566C34.1013 39.4029 34.0695 40.4999 35.7231 41.5343C36.0729 41.7537 36.4863 41.9731 36.8679 42.0358C42.4648 42.788 47.1076 45.5462 51.4961 48.806C55.7573 51.9717 60.0503 55.1374 64.5978 57.9269C70.0356 61.218 76.0141 62.7852 82.247 63.5061ZM57.1883 55.3881C54.4535 53.6956 52.1003 52.1911 49.7152 50.7493C45.8038 48.3672 41.7652 46.2045 37.2495 45.0134C35.1189 44.4492 32.9883 44.1358 30.8576 44.888C29.7446 45.2641 28.1864 45.6089 28.3136 47.0507C28.4408 48.6492 30.0626 48.6806 31.3029 48.7433C34.0695 48.9313 36.7407 49.5269 39.2847 50.5925C43.3552 52.2538 47.1076 54.5105 50.7965 56.8299C51.3371 57.1747 51.7823 57.5508 52.4819 57.0493C53.7539 56.1717 55.2485 55.7642 57.1883 55.3881ZM72.8977 40.0298C70.7671 41.1581 68.7318 42.3805 66.6012 43.2895C65.4246 43.791 64.5978 44.4179 64.1526 45.703C63.612 47.2074 62.658 47.3642 61.4814 46.2671C58.4603 43.4149 55.4075 40.594 51.6551 38.6507C50.6057 38.1178 50.6375 37.2402 51.4325 36.4566C51.8777 36.0178 52.4183 35.5477 52.9907 35.4223C55.3757 34.9835 56.2979 33.0715 57.4745 31.379C57.9833 30.6267 57.7925 30.2819 57.0929 29.9058C55.9799 29.3103 54.8351 29.467 53.7221 29.9058C50.8283 31.0342 48.634 33.0402 46.6306 35.2969C46.0264 35.9865 46.4398 36.2372 47.0122 36.582C48.6022 37.491 50.2558 38.3686 51.7505 39.4029C56.5841 42.7253 60.8772 46.706 65.361 50.4045C66.9828 51.7523 67.3644 51.7836 68.5728 49.997C70.6717 47.0507 71.5621 43.4776 72.8977 40.0298ZM99.3873 53.8836C99.6418 54.0717 99.8962 53.915 100.119 53.7896C102.09 52.8493 104.126 52.5985 106.288 53.006C108.419 53.3821 110.549 53.7896 112.743 53.7896C118.181 53.7896 121.171 50.3731 120.344 45.0447C119.93 42.3179 119.231 41.879 116.496 42.5373C114.397 43.0388 114.079 43.6656 115.001 45.5149C116.655 48.8373 115.033 51.4702 111.281 51.3761C110.581 51.3761 109.881 51.2821 109.245 51.1254C107.751 50.7493 106.32 50.1851 104.825 49.8403C101.995 49.2134 99.5145 49.7776 99.3873 53.8836ZM27.6776 61.7195C27.6458 63.4434 28.0274 64.3523 28.8224 64.8538C29.8718 65.5434 32.7339 65.324 33.6879 64.5091C34.0059 64.227 34.0377 63.8822 34.0377 63.5374C34.1967 60.4971 35.2779 57.7389 36.6453 55.0747C38.0127 52.3791 38.0445 52.3791 34.8645 51.7523C34.1331 51.5955 33.3381 51.094 32.6385 51.8776C30.0626 54.8239 27.9638 58.0523 27.6776 61.7195ZM79.3531 53.1941C81.293 52.7552 83.0102 52.4418 84.6002 53.1941C85.6814 53.6956 85.9358 53.1941 86.222 52.3478C87.0488 49.8716 87.9392 47.3955 89.084 45.0447C89.3066 44.5746 89.4656 44.0731 89.3384 43.5403C89.0522 42.3179 88.5434 41.2208 87.176 40.9074C85.745 40.5626 84.6956 41.3149 83.9324 42.3805C81.5474 45.5149 80.8796 49.3701 79.3531 53.1941ZM36.6453 62.6911C36.6453 65.7001 38.3307 67.2046 40.8748 66.7658C41.7016 66.6091 42.1786 66.327 42.2104 65.3553C42.274 63.2553 42.9736 61.2807 43.546 59.2747C43.864 58.0836 45.4222 56.9553 44.5318 55.7956C43.8004 54.8553 42.274 54.5418 41.0974 53.915C40.3977 53.5388 39.9525 53.6642 39.5391 54.3224C37.8537 57.018 36.8997 59.9016 36.6453 62.6911ZM71.2759 31.3163C70.3536 31.3476 69.5268 31.7237 68.7636 32.1939C67.2054 33.1969 65.9016 34.482 64.5342 35.7357C63.4848 36.676 62.8488 37.5223 64.0254 38.8387C64.566 39.4656 64.6932 40.3746 64.8204 41.1895C64.9158 41.9104 65.1384 42.2865 65.9334 41.8164C68.2548 40.4686 70.6081 39.1208 72.4525 37.1462C73.3429 36.2059 73.9789 35.1402 73.9153 33.7924C73.8835 32.3193 72.8023 31.3163 71.2759 31.3163ZM29.6492 51.4702C25.1336 51.2194 19.8547 57.9269 21.2222 61.8762C21.572 62.8792 22.208 63.6001 23.2892 63.8509C24.3068 64.0703 25.07 63.9135 25.07 62.5971C25.1018 60.6852 25.6742 58.8986 26.2784 57.112C26.978 55.0433 28.3454 53.3194 29.6492 51.4702ZM64.9158 28.276C62.4354 28.276 57.9833 31.4103 57.0611 33.7611C56.8067 34.3879 57.1247 34.482 57.6017 34.5447C58.9373 34.7014 60.1775 35.1088 61.2906 35.8298C61.9902 36.2999 62.3718 36.1745 62.8488 35.5477C64.1208 33.9491 65.52 32.4446 67.11 31.1596C68.2866 30.2193 68.223 29.4984 66.8874 28.7148C66.2832 28.4013 65.6154 28.2446 64.9158 28.276ZM47.9344 67.6748C48.157 67.6434 48.5704 67.5807 48.9838 67.5494C49.6834 67.4867 50.065 67.33 49.6516 66.4837C48.5704 64.321 48.6976 62.127 49.8424 60.0269C50.2876 59.212 50.1286 58.8045 49.3654 58.4284C48.8884 58.209 48.4432 57.8956 47.998 57.6135C47.4256 57.2374 47.0758 57.3314 46.7578 57.9583C45.7402 59.9956 44.8498 62.0643 44.6272 64.321C44.4046 66.5464 45.454 67.6434 47.9344 67.6748ZM92.3277 63.0359C95.5713 63.2553 98.7513 63.1926 101.772 61.9076C102.377 61.6568 102.854 61.1553 102.663 60.4344C102.313 59.0866 101.232 58.4911 100.023 58.209C98.8467 57.9269 97.5111 57.3941 96.4935 58.6478C95.2851 60.215 93.9177 61.6568 92.3277 63.0359ZM69.1134 19.5938C69.0498 19.6252 69.018 19.6252 68.9544 19.6565C68.6682 19.9072 68.4138 20.158 68.1276 20.4087C64.6296 23.6371 60.5592 24.6401 55.9481 23.4491C52.3865 22.5401 49.3336 20.6908 46.4716 18.4968C46.1218 18.2147 45.8038 17.7759 44.977 17.7759C49.3336 22.4774 54.1355 25.6118 60.6546 24.9849C64.407 24.6088 67.3326 22.9162 69.1134 19.5938Z" fill="#F08A40"/>
<path d="M14.0551 56.0888C12.2254 56.7408 10.301 57.0202 8.53438 57.7342C7.2094 58.262 5.60049 58.6966 5.41121 60.2489C5.25347 61.7391 6.64155 62.5462 7.7457 63.3224C11.3105 65.7439 15.3801 67.0167 19.4812 68.0723C27.9043 70.2765 36.5167 71.2699 45.1922 71.7356C63.3002 72.698 81.3452 72.1702 99.264 69.3451C106.394 68.2275 113.397 66.6442 120.117 64.0054C120.338 63.9122 120.59 63.757 121 64.0054C118.855 66.1785 116.426 67.9481 113.902 69.5935C103.113 76.6407 91.1248 80.5835 78.4113 82.4462C62.133 84.8367 45.9178 84.6194 29.8918 80.7387C21.5003 78.6897 13.6135 75.461 6.86238 70.0281C4.4017 68.0412 2.1934 65.8681 0.710681 63.0429C-0.677394 60.4041 -0.0464502 58.6035 2.7297 57.4238C6.35762 55.8715 10.2064 55.9026 14.0551 56.0888Z" fill="#F08A40"/>
</g>
<defs>
<clipPath id="clip0_213_1586">
<rect width="124" height="97" fill="white"/>
</clipPath>
</defs>
</svg>
