<svg width="91" height="97" viewBox="0 0 91 97" fill="none" xmlns="http://www.w3.org/2000/svg">
<g clip-path="url(#clip0_43_1102)">
<path d="M42.2207 43.1588C40.187 44.8199 38.6402 46.3664 37.4085 48.1993C37.0648 48.6862 36.6065 48.8007 36.0623 48.8007C30.4481 48.9439 24.834 49.4594 19.2771 50.2899C15.668 50.8341 12.0589 51.4928 8.67899 52.8961C7.33275 53.4688 5.58549 53.9557 5.64277 55.7027C5.67142 57.3351 7.39003 57.822 8.67899 58.3947C12.2308 59.9126 16.0404 60.5713 19.85 61.1154C27.2687 62.2037 34.7447 62.6333 42.2207 62.7192C50.5846 62.8051 58.9199 62.5474 67.1979 61.4877C71.6376 60.9436 76.0201 60.2849 80.288 58.8816C81.4624 58.4807 82.6081 58.0224 83.6107 57.2492C85.0142 56.1609 85.0428 55.0726 83.6107 54.013C81.6629 52.5524 79.3141 52.0083 77.0226 51.4355C73.6713 50.605 70.2341 50.0895 66.7969 49.6885C66.1667 49.6026 65.8516 49.488 65.8516 48.8007C65.8803 47.5979 65.823 46.4237 66.1667 45.2495C66.3959 44.4476 66.7969 44.1039 67.6848 44.2185C72.1819 44.9058 76.7076 45.45 81.09 46.8246C83.5534 47.5979 85.9308 48.5716 87.8499 50.4045C89.4253 51.8937 90.2846 53.698 90.2273 55.8745C89.7117 71.5114 82.9805 83.7402 70.0622 92.5323C66.9114 94.6802 63.2164 95.5394 59.4641 96.0263C50.5846 97.2005 41.6764 97.0859 32.7683 96.3127C25.9797 95.7112 20.0219 93.2483 14.9519 88.5515C6.78852 81.0195 1.86182 71.855 0.400994 60.829C0.200488 59.3685 0.171845 57.8792 0.085914 56.4187C-0.0859476 53.297 1.31759 51.0345 3.83823 49.3162C7.21817 47.0251 11.1423 46.1373 15.0665 45.4213C23.5737 43.8462 32.1667 43.2448 40.8171 43.1016C41.0749 43.1588 41.4473 43.1588 42.2207 43.1588ZM28.8441 90.0694C27.2687 88.3797 25.5787 86.8332 24.1179 85.0862C19.5922 79.7307 16.4128 73.6879 14.7514 66.8719C14.6369 66.3564 14.5796 65.7836 13.8062 65.669C11.3142 65.2108 8.8795 64.4948 6.47344 63.5784C6.44479 63.7789 6.44479 63.8934 6.44479 63.9793C6.47344 64.1798 6.50208 64.3516 6.53072 64.5521C9.02272 74.6044 14.6082 82.4801 23.2586 88.1506C24.9486 89.2102 26.839 89.8116 28.8441 90.0694Z" fill="#F08A40"/>
<path d="M44.5694 59.4544C42.9081 59.4544 40.187 59.4258 37.4658 59.4544C36.5206 59.4544 36.2628 59.2826 36.492 58.2229C37.9528 51.5787 41.5905 46.6528 47.7489 43.6744C48.379 43.3594 49.0379 43.0157 49.7253 42.8439C54.5374 41.5551 57.7169 38.2903 60.2948 34.2235C63.5315 29.1545 66.1094 23.7417 68.716 18.3576C71.0934 13.4317 73.4995 8.5058 76.9654 4.20996C78.2257 2.63482 79.6292 1.23152 81.5197 0.400988C83.3529 -0.400901 85.0715 -0.114512 86.6183 1.05968C88.2796 2.3198 88.9384 4.03813 88.652 6.10013C88.2796 8.64899 87.1339 10.8828 85.7876 13.0307C82.9232 17.613 79.4001 21.7083 75.8769 25.7751C71.9814 30.2714 68.1718 34.8536 65.0783 39.98C63.0732 43.3021 61.9848 46.7674 62.5863 50.6909C62.9586 53.0393 62.5576 55.445 62.0707 57.7647C61.8988 58.538 61.5265 58.853 60.6385 58.9389C55.6545 59.3685 50.6705 59.569 44.5694 59.4544Z" fill="#F08A40"/>
<path d="M43.4523 0.257812C43.2232 0.630118 43.08 0.945146 42.8508 1.23154C39.0698 5.95696 38.2105 11.2838 39.3276 17.0975C40.0437 20.7919 40.0437 24.4863 38.6115 28.0662C36.8643 32.3907 33.4271 34.51 28.8154 35.5123C30.3049 33.078 31.7657 30.9014 32.5964 28.3812C33.6276 25.1737 32.9974 21.9947 32.4818 18.8158C31.9949 15.8374 31.9376 12.8303 32.6537 9.88049C33.7994 5.04051 38.3251 1.03106 43.4523 0.257812Z" fill="#F08A40"/>
<path d="M44.0538 31.7606C44.7699 30.5864 45.3428 29.5841 45.9443 28.5817C48.1499 25.0018 47.6629 21.2215 47.0901 17.298C46.4026 12.5439 46.6031 7.8185 50.8424 4.41047C52.475 3.09308 54.3655 2.26255 56.5997 1.66113C54.9957 3.89497 53.5349 5.95697 52.9333 8.44855C52.2173 11.3984 52.6756 14.2909 53.0766 17.2121C53.3916 19.5318 53.363 21.8516 52.7328 24.1427C51.5871 28.5244 48.5222 30.7583 44.0538 31.7606Z" fill="#F08A40"/>
</g>
<defs>
<clipPath id="clip0_43_1102">
<rect width="90.1414" height="97" fill="white"/>
</clipPath>
</defs>
</svg>
