<svg width="101" height="97" viewBox="0 0 101 97" fill="none" xmlns="http://www.w3.org/2000/svg">
<g clip-path="url(#clip0_44_1142)">
<path d="M0.716049 51.7559C9.27294 57.8579 18.7249 60.0159 28.3917 61.6159C38.2017 63.2158 48.0833 63.6251 57.9649 63.1042C70.5317 62.4344 82.9553 60.7973 94.5555 55.3278C96.4888 54.3976 98.2431 53.1697 100.248 51.8303C98.2074 62.7693 93.0159 71.4758 84.7813 78.136C77.191 84.2752 68.4909 87.6239 58.9674 88.889C46.2215 90.5633 34.0485 88.9262 22.699 82.5265C10.9557 75.8663 3.54448 65.7831 0.716049 51.7559ZM43.3215 85.6891C44.1808 85.5775 44.9326 85.131 45.04 84.052C45.1833 83.0474 44.6462 82.3776 43.7511 82.08C43.1425 81.8939 42.4622 81.8195 41.8178 81.7079C31.7214 79.8475 22.6274 75.7919 15.1804 68.2016C14.2495 67.2342 13.2471 66.5272 12.1372 67.7551C10.9915 68.9829 11.7791 69.9875 12.71 70.9177C17.794 76.1268 23.7731 79.8475 30.4325 82.4149C34.5856 84.0148 38.8103 85.0938 43.3215 85.6891ZM10.7767 63.5506C10.7767 62.3228 10.2754 61.6531 9.20134 61.5786C8.05564 61.467 7.33959 62.0995 7.26798 63.253C7.19637 64.4064 7.94824 65.1506 9.05812 65.1506C10.0248 65.1134 10.7051 64.5552 10.7767 63.5506Z" fill="#F08A40"/>
<path d="M51.6994 52.0536C38.9893 52.128 27.7114 51.0118 16.7557 47.5143C13.4977 46.4725 13.4977 46.4353 15.252 43.4587C18.6175 37.6543 22.9496 36.0916 29.0719 38.5101C31.7929 39.5891 34.4066 40.8542 37.3424 41.2262C40.7795 41.6355 43.1425 40.2216 44.7178 37.2078C46.5437 33.7103 48.9783 32.7057 53.3463 33.7103C54.85 34.0452 56.0673 34.9382 56.9266 36.2776C57.3562 36.9474 57.75 37.6171 58.1439 38.324C60.4353 42.2308 63.0489 43.3843 67.3452 42.4541C69.565 41.9704 71.6416 41.003 73.6823 40.0728C79.4824 37.4683 83.8862 41.1146 85.8553 45.4307C86.285 46.3609 86.1776 46.7701 85.1393 47.1422C79.017 49.2258 72.7157 50.4537 66.3427 51.1978C61.0797 51.8676 55.7451 52.0908 51.6994 52.0536ZM55.8883 42.7889C55.8167 41.5983 55.0648 40.9286 54.0265 40.9286C53.0599 40.9286 52.308 41.6355 52.3438 42.7145C52.3438 43.868 52.9883 44.5377 54.1698 44.5377C55.2438 44.5377 55.7809 43.868 55.8883 42.7889ZM48.6919 44.5749C48.5845 43.4959 47.9401 42.8262 46.9376 42.8262C45.8993 42.8262 45.1116 43.4587 45.1116 44.6865C45.1474 45.8772 45.8635 46.4725 47.0092 46.4353C48.0833 46.3609 48.5845 45.6539 48.6919 44.5749ZM64.839 46.6213C64.9106 45.3563 64.1946 44.7237 63.1205 44.7237C62.118 44.6865 61.3661 45.3935 61.3303 46.4353C61.2945 47.5515 61.939 48.2957 63.1205 48.2957C64.1588 48.2957 64.7674 47.7375 64.839 46.6213ZM23.5583 42.6401C23.5583 43.7191 23.9879 44.4261 25.062 44.5377C26.2077 44.6493 26.888 44.0168 26.9954 42.8634C27.067 41.6727 26.3509 40.9658 25.2768 40.9286C24.3459 40.9286 23.5941 41.4867 23.5583 42.6401ZM75.7947 42.7889C74.6848 42.9006 74.0046 43.4587 74.0404 44.6865C74.0762 45.8028 74.6848 46.3981 75.7231 46.3981C76.7614 46.3981 77.4058 45.8028 77.4774 44.7237C77.5491 43.5331 76.8688 42.9378 75.7947 42.7889Z" fill="#F08A40"/>
<path d="M50.4841 27.7573C63.2657 28.0178 75.9042 29.0596 88.113 33.3757C91.3352 34.5291 94.4501 35.9058 97.2069 38.0266C97.923 38.5847 98.6032 39.18 99.2119 39.8498C101.575 42.4171 101.611 44.9472 99.2477 47.5517C96.5982 50.4539 93.197 52.091 89.6525 53.4305C81.1672 56.7048 72.3239 58.1559 63.3731 59.0116C56.4274 59.6814 49.4458 59.7558 42.4642 59.3465C31.5086 58.714 20.6961 57.2257 10.3848 53.0212C7.48481 51.8678 4.72799 50.4167 2.4008 48.1843C-0.749858 45.1704 -0.749858 42.3799 2.32919 39.2917C4.76379 36.836 7.80704 35.3477 10.9219 34.1198C12.7478 33.4129 12.4614 35.5337 13.1059 36.3151C13.8577 37.2452 12.7836 37.3569 12.2466 37.6173C9.7762 38.6963 7.3058 39.7381 5.22923 41.5613C3.47489 43.0868 3.47488 44.0542 5.19342 45.6169C8.70211 48.8168 13.0343 50.1935 17.3664 51.5329C28.3937 54.8444 39.6716 55.7746 51.0928 55.7746C62.1558 55.7374 73.0757 54.77 83.745 51.5329C88.0414 50.2307 92.2661 48.8168 95.7748 45.6914C97.6365 44.017 97.6723 43.0124 95.7032 41.4125C92.5883 38.9196 88.9722 37.5429 85.2845 36.3151C76.835 33.5617 68.1349 32.2966 59.3274 31.8129C58.2891 31.7385 57.3941 31.4781 56.4274 31.0316C52.6681 29.2084 48.873 28.948 45.1853 31.2548C44.5766 31.6269 43.968 31.7385 43.3235 31.7757C38.5617 31.9618 33.8358 32.3711 29.1456 33.264C28.3221 33.4129 26.1739 30.92 26.532 30.1386C26.7468 29.6549 27.3196 29.6921 27.7851 29.6177C35.2321 28.3899 42.8581 27.9062 50.4841 27.7573Z" fill="#F08A40"/>
<path d="M23.9882 33.6362C21.7326 33.7479 19.6918 34.2688 17.9017 35.385C17.2214 35.7943 16.8992 35.6826 16.5411 34.9757C11.7078 25.8599 6.40892 17.0789 0.859473 8.40954C-0.89487 5.69339 0.179217 2.04705 2.90024 0.595959C5.76447 -0.929549 9.05834 0.409922 10.3472 3.72139C13.4621 11.535 16.8634 19.1253 20.4437 26.6412C21.5536 28.9853 22.7709 31.2177 23.9882 33.6362Z" fill="#F08A40"/>
<path d="M51.0549 96.9633C45.7919 96.9633 41.1017 96.5913 36.4831 95.4378C35.5881 95.2146 34.2992 95.289 34.2992 93.5775C34.2992 91.1962 34.1918 91.2334 36.4831 91.7171C45.9351 93.6891 55.4229 93.7263 64.8748 91.6055C65.4477 91.4938 66.486 90.7869 66.5576 91.9403C66.665 92.9821 67.4168 94.5077 65.6625 95.103C63.3353 95.8843 60.9365 96.2936 58.5019 96.5169C55.8525 96.7773 53.2031 97.1122 51.0549 96.9633Z" fill="#F08A40"/>
<path d="M61.0439 35.645C64.481 36.0171 67.7033 36.3892 70.9971 36.7612C68.3835 40.0355 62.6551 39.5518 61.0439 35.645Z" fill="#F08A40"/>
<path d="M34.0486 36.3894C36.4115 35.8313 38.7387 35.7568 41.2091 35.5708C39.9202 37.9521 37.5214 38.1753 34.0486 36.3894Z" fill="#F08A40"/>
<path d="M92.4072 43.6069C89.9368 45.5044 89.9368 45.5044 87.9677 41.4116C89.722 41.9325 91.0109 42.7511 92.4072 43.6069Z" fill="#F08A40"/>
<path d="M8.59265 43.57C9.27291 43.198 9.80995 42.8631 10.3828 42.5654C10.7408 42.3794 11.1347 42.1934 11.5285 42.0073C10.9556 45.0955 10.6692 45.2816 8.59265 43.57Z" fill="#F08A40"/>
</g>
<defs>
<clipPath id="clip0_44_1142">
<rect width="101" height="97" fill="white"/>
</clipPath>
</defs>
</svg>
