<svg width="44" height="55" viewBox="0 0 44 55" fill="none" xmlns="http://www.w3.org/2000/svg">
<g clip-path="url(#clip0_173_506)">
<path d="M11.128 48.726C11.128 49.518 11.008 50.25 10.768 50.922C10.54 51.582 10.216 52.158 9.79601 52.65C9.38801 53.13 8.89601 53.508 8.32001 53.784C7.75601 54.048 7.14401 54.18 6.48401 54.18C5.81201 54.18 5.19401 54.048 4.63001 53.784C4.06601 53.508 3.57401 53.13 3.15401 52.65C2.74601 52.158 2.42201 51.582 2.18201 50.922C1.95401 50.25 1.84001 49.518 1.84001 48.726C1.84001 47.934 1.95401 47.208 2.18201 46.548C2.42201 45.876 2.74601 45.3 3.15401 44.82C3.57401 44.328 4.06601 43.944 4.63001 43.668C5.19401 43.392 5.81201 43.254 6.48401 43.254C7.14401 43.254 7.75601 43.392 8.32001 43.668C8.89601 43.944 9.38801 44.328 9.79601 44.82C10.216 45.3 10.54 45.876 10.768 46.548C11.008 47.208 11.128 47.934 11.128 48.726ZM8.69801 48.726C8.69801 48.246 8.64401 47.808 8.53601 47.412C8.42801 47.004 8.27201 46.656 8.06801 46.368C7.87601 46.08 7.64201 45.858 7.36601 45.702C7.10201 45.546 6.80801 45.468 6.48401 45.468C6.14801 45.468 5.84201 45.546 5.56601 45.702C5.30201 45.858 5.06801 46.08 4.86401 46.368C4.67201 46.656 4.52201 47.004 4.41401 47.412C4.30601 47.808 4.25201 48.246 4.25201 48.726C4.25201 49.206 4.30601 49.644 4.41401 50.04C4.52201 50.436 4.67201 50.778 4.86401 51.066C5.06801 51.354 5.30201 51.576 5.56601 51.732C5.84201 51.888 6.14801 51.966 6.48401 51.966C6.80801 51.966 7.10201 51.888 7.36601 51.732C7.64201 51.576 7.87601 51.354 8.06801 51.066C8.27201 50.778 8.42801 50.436 8.53601 50.04C8.64401 49.644 8.69801 49.206 8.69801 48.726ZM13.0586 54V51.408H15.0386V54H13.0586ZM26.1376 50.22C26.1376 50.82 26.0116 51.36 25.7596 51.84C25.5196 52.32 25.1836 52.734 24.7516 53.082C24.3316 53.43 23.8396 53.7 23.2756 53.892C22.7116 54.072 22.1116 54.162 21.4756 54.162C20.8396 54.162 20.2396 54.066 19.6756 53.874C19.1116 53.67 18.6196 53.388 18.1996 53.028C17.7796 52.668 17.4496 52.242 17.2096 51.75C16.9696 51.258 16.8496 50.718 16.8496 50.13C16.8496 49.77 16.9096 49.44 17.0296 49.14C17.1496 48.828 17.3056 48.546 17.4976 48.294C17.6896 48.042 17.8996 47.82 18.1276 47.628C18.3676 47.436 18.6076 47.28 18.8476 47.16C18.4036 46.944 18.0256 46.62 17.7136 46.188C17.4016 45.756 17.2456 45.282 17.2456 44.766C17.2456 44.19 17.3716 43.686 17.6236 43.254C17.8876 42.81 18.2236 42.438 18.6316 42.138C19.0516 41.838 19.5076 41.61 19.9996 41.454C20.5036 41.298 21.0016 41.22 21.4936 41.22C21.9736 41.22 22.4656 41.298 22.9696 41.454C23.4856 41.598 23.9476 41.82 24.3556 42.12C24.7636 42.42 25.0996 42.792 25.3636 43.236C25.6276 43.668 25.7596 44.172 25.7596 44.748C25.7596 45 25.7176 45.252 25.6336 45.504C25.5496 45.744 25.4296 45.972 25.2736 46.188C25.1296 46.392 24.9556 46.578 24.7516 46.746C24.5476 46.914 24.3316 47.052 24.1036 47.16C24.3676 47.292 24.6196 47.46 24.8596 47.664C25.0996 47.856 25.3156 48.084 25.5076 48.348C25.6996 48.6 25.8496 48.882 25.9576 49.194C26.0776 49.506 26.1376 49.848 26.1376 50.22ZM23.6896 50.076C23.6896 49.776 23.6236 49.506 23.4916 49.266C23.3716 49.026 23.2036 48.828 22.9876 48.672C22.7836 48.504 22.5496 48.378 22.2856 48.294C22.0216 48.21 21.7516 48.168 21.4756 48.168C21.1876 48.168 20.9116 48.216 20.6476 48.312C20.3836 48.396 20.1496 48.522 19.9456 48.69C19.7536 48.858 19.5976 49.062 19.4776 49.302C19.3576 49.53 19.2976 49.788 19.2976 50.076C19.2976 50.364 19.3576 50.628 19.4776 50.868C19.6096 51.096 19.7776 51.294 19.9816 51.462C20.1856 51.63 20.4196 51.762 20.6836 51.858C20.9476 51.942 21.2176 51.984 21.4936 51.984C21.7816 51.984 22.0576 51.936 22.3216 51.84C22.5856 51.744 22.8196 51.612 23.0236 51.444C23.2276 51.276 23.3896 51.078 23.5096 50.85C23.6296 50.61 23.6896 50.352 23.6896 50.076ZM19.6936 44.838C19.6936 45.09 19.7476 45.312 19.8556 45.504C19.9636 45.684 20.1016 45.84 20.2696 45.972C20.4496 46.092 20.6416 46.188 20.8456 46.26C21.0616 46.32 21.2776 46.35 21.4936 46.35C21.6976 46.35 21.9076 46.32 22.1236 46.26C22.3396 46.188 22.5316 46.086 22.6996 45.954C22.8796 45.822 23.0236 45.666 23.1316 45.486C23.2396 45.294 23.2936 45.072 23.2936 44.82C23.2936 44.376 23.1136 44.022 22.7536 43.758C22.4056 43.494 21.9796 43.362 21.4756 43.362C20.9836 43.362 20.5636 43.5 20.2156 43.776C19.8676 44.04 19.6936 44.394 19.6936 44.838ZM37.6531 49.59L40.4431 44.568H42.9091V54H40.6051V48.33L38.2111 52.578H37.0771L34.6831 48.33V54H32.3791V44.568H34.8631L37.6531 49.59Z" fill="white"/>
<g clip-path="url(#clip1_173_506)">
<path d="M39.2349 15.5747C39.8201 15.5747 40.3543 15.1335 40.3543 14.5057V3.13462C40.3543 2.50679 39.8201 2 39.2349 2H2.16337C1.57716 2 1.06104 2.50679 1.06104 3.13462V14.5057C1.06104 15.1335 1.57716 15.5747 2.16337 15.5747H39.2349ZM3.18499 4.26244H38.2303V13.3122H36.1064V8.93891C36.1064 8.31109 35.6295 7.80204 35.0444 7.80204C34.4592 7.80204 33.9824 8.31109 33.9824 8.93891V13.3122H30.7965V11.3563C30.7965 10.7285 30.3196 10.2195 29.7345 10.2195C29.1493 10.2195 28.6725 10.7285 28.6725 11.3563V13.3122H26.5485V11.3563C26.5485 10.7285 26.0717 10.2195 25.4866 10.2195C24.9014 10.2195 24.4246 10.7285 24.4246 11.3563V13.3122H21.2386V8.93891C21.2386 8.31109 20.7618 7.80204 20.1767 7.80204C19.5915 7.80204 19.1147 8.31109 19.1147 8.93891V13.3122H15.9287V11.3563C15.9287 10.7285 15.4519 10.2195 14.8668 10.2195C14.2816 10.2195 13.8048 10.7285 13.8048 11.3563V13.3122H11.6808V11.3563C11.6808 10.7285 11.204 10.2195 10.6188 10.2195C10.0337 10.2195 9.55687 10.7285 9.55687 11.3563V13.3122H7.43291V8.93891C7.43291 8.31109 6.95608 7.80204 6.37093 7.80204C5.78472 7.80204 5.30895 8.31109 5.30895 8.93891V13.3122H3.18499V4.26244V4.26244Z" fill="white"/>
<path d="M36.4074 27.6437L39.4893 24.1403C39.6837 23.9208 39.7899 23.6278 39.7771 23.3235C39.7686 23.0204 39.6475 22.7342 39.4426 22.5283L36.1175 19.1923C35.6906 18.7636 35.0205 18.7885 34.6212 19.2466C34.43 19.4649 34.3345 19.7432 34.3345 20.0226C34.3345 20.3269 34.447 20.6335 34.67 20.8586L36.1643 22.362H2.05986C1.47364 22.362 1 22.8643 1 23.4932C1 24.1222 1.47364 24.6245 2.05986 24.6245H36.1494L34.8665 26.0815C34.464 26.5385 34.4853 27.2602 34.9101 27.6889C35.3359 28.1222 36.005 28.0996 36.4074 27.6437Z" fill="white"/>
</g>
</g>
<defs>
<clipPath id="clip0_173_506">
<rect width="44" height="55" fill="white"/>
</clipPath>
<clipPath id="clip1_173_506">
<rect width="39.3538" height="26" fill="white" transform="translate(1 2)"/>
</clipPath>
</defs>
</svg>
