<svg width="50" height="55" viewBox="0 0 50 55" fill="none" xmlns="http://www.w3.org/2000/svg">
<g clip-path="url(#clip0_173_433)">
<path d="M2.66177 53C2.66177 52.46 2.70377 51.974 2.78777 51.542C2.87177 51.098 3.01577 50.69 3.21977 50.318C3.43577 49.946 3.72377 49.598 4.08377 49.274C4.45577 48.95 4.92377 48.632 5.48777 48.32C5.97977 48.056 6.41177 47.828 6.78377 47.636C7.16777 47.432 7.48577 47.246 7.73777 47.078C7.98977 46.91 8.18177 46.742 8.31377 46.574C8.44577 46.394 8.51177 46.19 8.51177 45.962C8.51177 45.602 8.36777 45.296 8.07977 45.044C7.79177 44.78 7.37777 44.648 6.83777 44.648C6.54977 44.648 6.28577 44.69 6.04577 44.774C5.80577 44.846 5.57777 44.948 5.36177 45.08C5.15777 45.212 4.96577 45.362 4.78577 45.53C4.61777 45.686 4.46177 45.854 4.31777 46.034L2.76977 44.252C2.92577 44.084 3.14777 43.904 3.43577 43.712C3.72377 43.508 4.05977 43.322 4.44377 43.154C4.83977 42.974 5.27177 42.83 5.73977 42.722C6.21977 42.602 6.72977 42.542 7.26977 42.542C7.88177 42.542 8.42777 42.62 8.90777 42.776C9.38777 42.92 9.78977 43.13 10.1138 43.406C10.4498 43.67 10.7018 43.994 10.8698 44.378C11.0498 44.75 11.1398 45.158 11.1398 45.602C11.1398 46.022 11.0618 46.394 10.9058 46.718C10.7498 47.042 10.5518 47.33 10.3118 47.582C10.0718 47.834 9.80777 48.056 9.51977 48.248C9.24377 48.428 8.97377 48.59 8.70977 48.734C8.49377 48.854 8.24777 48.992 7.97177 49.148C7.69577 49.304 7.41977 49.478 7.14377 49.67C6.87977 49.85 6.63377 50.042 6.40577 50.246C6.17777 50.438 6.00377 50.63 5.88377 50.822H11.3378V53H2.66177ZM13.4519 55.07L13.9379 52.928H13.1819V50.408H15.2699V52.928L14.5319 55.07H13.4519ZM26.4015 49.22C26.4015 49.82 26.2755 50.36 26.0235 50.84C25.7835 51.32 25.4475 51.734 25.0155 52.082C24.5955 52.43 24.1035 52.7 23.5395 52.892C22.9755 53.072 22.3755 53.162 21.7395 53.162C21.1035 53.162 20.5035 53.066 19.9395 52.874C19.3755 52.67 18.8835 52.388 18.4635 52.028C18.0435 51.668 17.7135 51.242 17.4735 50.75C17.2335 50.258 17.1135 49.718 17.1135 49.13C17.1135 48.77 17.1735 48.44 17.2935 48.14C17.4135 47.828 17.5695 47.546 17.7615 47.294C17.9535 47.042 18.1635 46.82 18.3915 46.628C18.6315 46.436 18.8715 46.28 19.1115 46.16C18.6675 45.944 18.2895 45.62 17.9775 45.188C17.6655 44.756 17.5095 44.282 17.5095 43.766C17.5095 43.19 17.6355 42.686 17.8875 42.254C18.1515 41.81 18.4875 41.438 18.8955 41.138C19.3155 40.838 19.7715 40.61 20.2635 40.454C20.7675 40.298 21.2655 40.22 21.7575 40.22C22.2375 40.22 22.7295 40.298 23.2335 40.454C23.7495 40.598 24.2115 40.82 24.6195 41.12C25.0275 41.42 25.3635 41.792 25.6275 42.236C25.8915 42.668 26.0235 43.172 26.0235 43.748C26.0235 44 25.9815 44.252 25.8975 44.504C25.8135 44.744 25.6935 44.972 25.5375 45.188C25.3935 45.392 25.2195 45.578 25.0155 45.746C24.8115 45.914 24.5955 46.052 24.3675 46.16C24.6315 46.292 24.8835 46.46 25.1235 46.664C25.3635 46.856 25.5795 47.084 25.7715 47.348C25.9635 47.6 26.1135 47.882 26.2215 48.194C26.3415 48.506 26.4015 48.848 26.4015 49.22ZM23.9535 49.076C23.9535 48.776 23.8875 48.506 23.7555 48.266C23.6355 48.026 23.4675 47.828 23.2515 47.672C23.0475 47.504 22.8135 47.378 22.5495 47.294C22.2855 47.21 22.0155 47.168 21.7395 47.168C21.4515 47.168 21.1755 47.216 20.9115 47.312C20.6475 47.396 20.4135 47.522 20.2095 47.69C20.0175 47.858 19.8615 48.062 19.7415 48.302C19.6215 48.53 19.5615 48.788 19.5615 49.076C19.5615 49.364 19.6215 49.628 19.7415 49.868C19.8735 50.096 20.0415 50.294 20.2455 50.462C20.4495 50.63 20.6835 50.762 20.9475 50.858C21.2115 50.942 21.4815 50.984 21.7575 50.984C22.0455 50.984 22.3215 50.936 22.5855 50.84C22.8495 50.744 23.0835 50.612 23.2875 50.444C23.4915 50.276 23.6535 50.078 23.7735 49.85C23.8935 49.61 23.9535 49.352 23.9535 49.076ZM19.9575 43.838C19.9575 44.09 20.0115 44.312 20.1195 44.504C20.2275 44.684 20.3655 44.84 20.5335 44.972C20.7135 45.092 20.9055 45.188 21.1095 45.26C21.3255 45.32 21.5415 45.35 21.7575 45.35C21.9615 45.35 22.1715 45.32 22.3875 45.26C22.6035 45.188 22.7955 45.086 22.9635 44.954C23.1435 44.822 23.2875 44.666 23.3955 44.486C23.5035 44.294 23.5575 44.072 23.5575 43.82C23.5575 43.376 23.3775 43.022 23.0175 42.758C22.6695 42.494 22.2435 42.362 21.7395 42.362C21.2475 42.362 20.8275 42.5 20.4795 42.776C20.1315 43.04 19.9575 43.394 19.9575 43.838ZM38.421 43.568H41.013L37.341 48.14L41.301 53H38.565L35.649 49.364H35.019V53H32.643V43.568H35.019V47.312H35.559L38.421 43.568ZM48.6821 45.566H44.7401V53H42.3461V43.568H48.6821V45.566Z" fill="white"/>
<g clip-path="url(#clip1_173_433)">
<path d="M38.9778 30.1927L36.0204 16.3042C35.9606 13.431 33.6578 11.0762 30.8337 11.0762H29.7252C30.8539 10.0792 31.553 8.31659 31.553 6.53802C31.552 2.92407 28.6748 0 25.14 0C21.6043 0 18.727 2.9141 18.727 6.52905C18.727 8.30762 19.4261 10.0792 20.5538 11.0762H19.1673C16.3432 11.0762 14.0385 13.431 13.9796 16.3042L11.0222 30.1748C11.0077 30.2436 11 30.4689 11 30.5417C11 33.4667 13.3279 36.001 16.1887 36.001H33.8103C36.6721 36.001 39 33.4757 39 30.5506C39 30.4779 38.9932 30.2615 38.9778 30.1927ZM20.6581 6.57591C20.6581 4.05361 22.6683 2.00188 25.14 2.00188C27.6108 2.00188 29.621 4.05361 29.621 6.57591C29.621 9.0982 27.6108 11.1499 25.14 11.1499C22.6683 11.1499 20.6581 9.0982 20.6581 6.57591ZM33.8103 34.0061H16.1887C14.4257 34.0061 12.9851 32.4299 12.932 30.6454L15.8865 16.7369C15.9019 16.6681 15.9087 16.5305 15.9087 16.4587C15.9087 14.6263 17.3705 13.0711 19.1663 13.0711H30.8327C32.6286 13.0711 34.0894 14.5924 34.0894 16.4248C34.0894 16.4956 34.0971 16.5823 34.1116 16.6521L37.067 30.6384C37.0159 32.4219 35.5753 34.0061 33.8103 34.0061Z" fill="white"/>
<path d="M25.14 3.57129C23.5208 3.57129 22.2039 4.91917 22.2039 6.57611C22.2039 8.23404 23.5208 9.58192 25.14 9.58192C26.7582 9.58192 28.0752 8.23304 28.0752 6.57611C28.0752 4.91917 26.7582 3.57129 25.14 3.57129ZM25.14 7.59898C24.5858 7.59898 24.1349 7.14038 24.1349 6.57611C24.1349 6.01183 24.5848 5.55323 25.14 5.55323C25.6932 5.55323 26.1441 6.01083 26.1441 6.57511C26.1441 7.13939 25.6932 7.59898 25.14 7.59898Z" fill="white"/>
<path d="M20.4119 25.1317H19.652V28.8862H17.8764V19.8379H19.652V23.5615H20.2719L22.5283 19.8379H24.7239L21.8109 24.052L24.9672 28.8872H22.705L20.4119 25.1317Z" fill="white"/>
<path d="M25.2385 29.0354H22.6248L20.3317 25.2809H19.7968V29.0354H17.7316V19.689H19.7968V23.4126H20.1917L22.4481 19.689H25.0048L21.9876 24.0536L25.2385 29.0354ZM22.7851 28.7373H24.6958L21.6352 24.0486L24.4438 19.9871H22.6094L20.3529 23.7107H19.5072V19.9871H18.0203V28.7373H19.5072V24.9838H20.492L22.7851 28.7373Z" fill="white"/>
<path d="M32.2346 27.6483C31.9595 28.0181 31.5481 28.3372 31.0007 28.6093C30.4533 28.8795 29.7475 29.0151 28.8843 29.0151C27.8145 29.0151 26.9388 28.6721 26.2571 27.9832C25.5764 27.2963 25.2356 26.4031 25.2356 25.3054V23.4182C25.2356 22.3235 25.5658 21.4313 26.2272 20.7414C26.8886 20.0515 27.7373 19.7075 28.7752 19.7075C29.8575 19.7075 30.6869 19.9687 31.2624 20.4931C31.8388 21.0175 32.1168 21.7174 32.0956 22.5907L32.084 22.6276H30.4117C30.4117 22.1481 30.2756 21.7742 30.0043 21.507C29.733 21.2388 29.3371 21.1062 28.8177 21.1062C28.2741 21.1062 27.8357 21.3216 27.5036 21.7493C27.1715 22.18 27.0044 22.7313 27.0044 23.4052V25.3064C27.0044 25.9903 27.1744 26.5476 27.5152 26.9793C27.856 27.41 28.3117 27.6233 28.8833 27.6233C29.3062 27.6233 29.6393 27.5815 29.8846 27.4937C30.1298 27.407 30.319 27.2963 30.4523 27.1647V25.4121H28.7491V24.1569H32.2337V27.6483H32.2346Z" fill="white"/>
<path d="M28.8833 29.1647C27.7778 29.1647 26.8596 28.8038 26.1547 28.09C25.449 27.3772 25.0898 26.4401 25.0898 25.3065V23.4183C25.0898 22.2877 25.4374 21.3526 26.1229 20.6378C26.8084 19.922 27.7005 19.5591 28.7742 19.5591C29.8894 19.5591 30.7593 19.8362 31.3579 20.3826C31.9652 20.9359 32.2626 21.6806 32.2404 22.5948L32.2211 22.6726L32.1902 22.7763H30.2659V22.6277C30.2659 22.1861 30.1481 21.8551 29.9039 21.6138C29.6615 21.3755 29.2956 21.2549 28.8176 21.2549C28.3165 21.2549 27.9236 21.4463 27.6165 21.8421C27.3066 22.2419 27.1492 22.7683 27.1492 23.4043V25.3055C27.1492 25.9506 27.3105 26.4829 27.6281 26.8847C27.9419 27.2805 28.3523 27.4739 28.8833 27.4739C29.2898 27.4739 29.6103 27.433 29.8372 27.3533C30.0342 27.2835 30.1916 27.1977 30.3065 27.098V25.5617H28.6043V24.0085H32.3794V27.6992L32.3495 27.7391C32.0618 28.1249 31.6292 28.4639 31.0634 28.743C30.4976 29.0222 29.7648 29.1647 28.8833 29.1647ZM28.7742 19.8572C27.7816 19.8572 26.959 20.1902 26.3295 20.8461C25.699 21.5041 25.3794 22.3685 25.3794 23.4183V25.3065C25.3794 26.3583 25.7087 27.2227 26.3575 27.8777C27.0063 28.5347 27.856 28.8666 28.8833 28.8666C29.7204 28.8666 30.4117 28.735 30.937 28.4748C31.4419 28.2246 31.8301 27.9305 32.0888 27.5975V24.3056H28.8939V25.2627H30.5971V27.2277L30.5527 27.2715C30.404 27.4181 30.1954 27.5407 29.9309 27.6334C29.6692 27.7271 29.3274 27.773 28.8823 27.773C28.2683 27.773 27.7701 27.5367 27.4022 27.0731C27.0411 26.6155 26.8586 26.0213 26.8586 25.3065V23.4053C26.8586 22.7005 27.0372 22.1113 27.3887 21.6567C27.7498 21.1921 28.2296 20.9578 28.8167 20.9578C29.3719 20.9578 29.8044 21.1064 30.1027 21.3995C30.3731 21.6666 30.5247 22.0295 30.5507 22.4792H31.9507C31.9459 21.6966 31.6891 21.0834 31.1648 20.6059C30.6212 20.1094 29.816 19.8572 28.7742 19.8572Z" fill="white"/>
</g>
</g>
<defs>
<clipPath id="clip0_173_433">
<rect width="50" height="55" fill="white"/>
</clipPath>
<clipPath id="clip1_173_433">
<rect width="28" height="36" fill="white" transform="translate(11)"/>
</clipPath>
</defs>
</svg>
