<svg width="45" height="55" viewBox="0 0 45 55" fill="none" xmlns="http://www.w3.org/2000/svg">
<g clip-path="url(#clip0_173_543)">
<path d="M6.8111 44.638V46.582H4.9571V48.616H2.7791V46.582H0.925102V44.638H2.7791V42.604H4.9571V44.638H6.8111ZM7.98771 52C7.98771 51.46 8.02971 50.974 8.11371 50.542C8.19771 50.098 8.34171 49.69 8.54571 49.318C8.76171 48.946 9.04971 48.598 9.40971 48.274C9.78171 47.95 10.2497 47.632 10.8137 47.32C11.3057 47.056 11.7377 46.828 12.1097 46.636C12.4937 46.432 12.8117 46.246 13.0637 46.078C13.3157 45.91 13.5077 45.742 13.6397 45.574C13.7717 45.394 13.8377 45.19 13.8377 44.962C13.8377 44.602 13.6937 44.296 13.4057 44.044C13.1177 43.78 12.7037 43.648 12.1637 43.648C11.8757 43.648 11.6117 43.69 11.3717 43.774C11.1317 43.846 10.9037 43.948 10.6877 44.08C10.4837 44.212 10.2917 44.362 10.1117 44.53C9.94371 44.686 9.78771 44.854 9.64371 45.034L8.09571 43.252C8.25171 43.084 8.47371 42.904 8.76171 42.712C9.04971 42.508 9.38571 42.322 9.76971 42.154C10.1657 41.974 10.5977 41.83 11.0657 41.722C11.5457 41.602 12.0557 41.542 12.5957 41.542C13.2077 41.542 13.7537 41.62 14.2337 41.776C14.7137 41.92 15.1157 42.13 15.4397 42.406C15.7757 42.67 16.0277 42.994 16.1957 43.378C16.3757 43.75 16.4657 44.158 16.4657 44.602C16.4657 45.022 16.3877 45.394 16.2317 45.718C16.0757 46.042 15.8777 46.33 15.6377 46.582C15.3977 46.834 15.1337 47.056 14.8457 47.248C14.5697 47.428 14.2997 47.59 14.0357 47.734C13.8197 47.854 13.5737 47.992 13.2977 48.148C13.0217 48.304 12.7457 48.478 12.4697 48.67C12.2057 48.85 11.9597 49.042 11.7317 49.246C11.5037 49.438 11.3297 49.63 11.2097 49.822H16.6637V52H7.98771ZM23.0799 54.286V51.604H17.8239V49.462L23.8539 41.722H25.4919V49.444H27.0759V51.604H25.4919V54.286H23.0799ZM20.2359 49.444H23.3499V45.376L20.2359 49.444ZM28.1682 40.75C28.1682 40.246 28.3362 39.826 28.6722 39.49C29.0202 39.142 29.4642 38.968 30.0042 38.968C30.5442 38.968 30.9882 39.142 31.3362 39.49C31.6842 39.826 31.8582 40.246 31.8582 40.75C31.8582 41.326 31.6842 41.788 31.3362 42.136C30.9882 42.484 30.5442 42.658 30.0042 42.658C29.4642 42.658 29.0202 42.484 28.6722 42.136C28.3362 41.776 28.1682 41.314 28.1682 40.75ZM29.5182 40.336C29.3982 40.48 29.3382 40.642 29.3382 40.822C29.3382 41.002 29.3982 41.152 29.5182 41.272C29.6862 41.416 29.8482 41.488 30.0042 41.488C30.2082 41.488 30.3702 41.416 30.4902 41.272C30.6102 41.152 30.6702 41.002 30.6702 40.822C30.6702 40.642 30.6102 40.48 30.4902 40.336C30.4302 40.276 30.3582 40.228 30.2742 40.192C30.1902 40.156 30.1002 40.138 30.0042 40.138C29.8362 40.138 29.6742 40.204 29.5182 40.336ZM33.1391 45.52C33.1391 44.74 33.2771 43.972 33.5531 43.216C33.8411 42.448 34.2551 41.764 34.7951 41.164C35.3351 40.564 35.9951 40.078 36.7751 39.706C37.5551 39.334 38.4431 39.148 39.4391 39.148C40.6151 39.148 41.6291 39.406 42.4811 39.922C43.3451 40.438 43.9871 41.11 44.4071 41.938L42.4991 43.252C42.3311 42.892 42.1271 42.592 41.8871 42.352C41.6471 42.1 41.3891 41.902 41.1131 41.758C40.8371 41.614 40.5491 41.512 40.2491 41.452C39.9491 41.38 39.6551 41.344 39.3671 41.344C38.7431 41.344 38.1971 41.47 37.7291 41.722C37.2731 41.974 36.8891 42.304 36.5771 42.712C36.2771 43.108 36.0491 43.564 35.8931 44.08C35.7371 44.584 35.6591 45.088 35.6591 45.592C35.6591 46.156 35.7491 46.702 35.9291 47.23C36.1091 47.746 36.3611 48.202 36.6851 48.598C37.0211 48.994 37.4171 49.312 37.8731 49.552C38.3411 49.792 38.8511 49.912 39.4031 49.912C39.6911 49.912 39.9911 49.876 40.3031 49.804C40.6151 49.732 40.9091 49.618 41.1851 49.462C41.4731 49.306 41.7371 49.108 41.9771 48.868C42.2171 48.616 42.4091 48.316 42.5531 47.968L44.5871 49.138C44.3831 49.618 44.0891 50.044 43.7051 50.416C43.3331 50.776 42.9071 51.082 42.4271 51.334C41.9591 51.586 41.4551 51.778 40.9151 51.91C40.3751 52.042 39.8471 52.108 39.3311 52.108C38.4191 52.108 37.5851 51.916 36.8291 51.532C36.0731 51.148 35.4191 50.65 34.8671 50.038C34.3271 49.414 33.9011 48.712 33.5891 47.932C33.2891 47.14 33.1391 46.336 33.1391 45.52Z" fill="white"/>
<g clip-path="url(#clip1_173_543)">
<path d="M38.2333 13.3722C38.2333 15.6119 38.2333 17.8516 38.2333 20.0584C38.2333 20.4207 38.3321 20.7171 38.5956 21.0135C40.9671 23.6485 41.6587 26.7116 40.473 30.0382C39.2873 33.3978 36.817 35.374 33.2598 35.901C28.3852 36.5927 23.9716 33.2661 23.2141 28.3585C22.9835 26.8434 23.1811 25.3941 23.6752 23.9449C23.8069 23.5826 23.9058 23.4838 24.2681 23.6814C24.828 23.9779 25.3879 24.2084 25.9808 24.439C26.3101 24.5707 26.3431 24.7025 26.2113 25.0318C24.828 29.1819 27.7923 33.299 32.14 33.2661C34.6102 33.2331 36.9158 31.6521 37.8051 29.3466C38.7273 26.9751 38.1674 24.3072 36.2571 22.5945C35.6642 22.0675 35.4337 21.5405 35.4337 20.7171C35.4666 16.2706 35.3678 11.7912 35.4666 7.34474C35.5325 4.41335 32.4364 2.53595 30.0649 4.21573C29.8015 4.41335 29.6697 4.31454 29.505 4.11692C29.1098 3.62287 28.7145 3.12882 28.2864 2.70064C27.9899 2.40421 28.0558 2.27246 28.3522 2.0419C31.3824 -0.16487 35.763 0.856173 37.5087 4.21573C37.9369 5.07209 38.2004 5.96139 38.2004 6.91656C38.2333 9.02452 38.2333 11.1983 38.2333 13.3722Z" fill="white"/>
<path d="M30.6578 17.1272C30.6578 15.2498 30.6578 13.3724 30.6578 11.495C30.6578 11.0997 30.7566 10.935 31.1848 10.968C31.6459 11.0009 32.14 10.968 32.634 10.968C33.4574 10.968 33.4574 10.968 33.4574 11.7585C33.4574 15.2168 33.4574 18.6752 33.4574 22.1336C33.4574 22.7923 33.5562 23.2205 34.2479 23.5828C35.8948 24.4721 36.5864 26.4812 36.0265 28.2598C35.4995 30.0055 33.7868 31.2241 32.0082 31.1912C30.0979 31.1253 28.451 29.8079 28.0558 27.9634C27.6276 26.1519 28.5169 24.2415 30.1967 23.4181C30.5919 23.2205 30.7237 22.9899 30.7237 22.5617C30.6578 20.7832 30.6578 18.9387 30.6578 17.1272ZM32.0411 25.7566C31.2177 25.7566 30.6578 26.3165 30.6907 27.107C30.6907 27.8316 31.3165 28.4574 32.0411 28.4574C32.7658 28.4574 33.4245 27.7987 33.4245 27.0412C33.3916 26.3165 32.7987 25.7566 32.0411 25.7566Z" fill="white"/>
<path d="M17.1537 6.06055C20.4804 6.06055 23.2141 8.79431 23.1812 12.088C23.1482 15.3817 20.645 18.1484 17.0879 18.1484C13.3001 18.1484 10.9616 14.9535 11.0275 11.9892C11.1263 8.6955 13.7942 6.06055 17.1537 6.06055ZM20.7439 12.1209C20.7439 10.0788 19.1958 8.49788 17.1537 8.49788C15.1446 8.49788 13.4977 10.1118 13.4977 12.1209C13.4977 14.1301 15.1117 15.744 17.1208 15.744C19.1629 15.7111 20.7439 14.163 20.7439 12.1209Z" fill="white"/>
<path d="M15.9021 1.9763C15.9021 1.74574 15.9021 1.51518 15.9021 1.28463C15.935 0.560015 16.4291 0.0330251 17.0878 8.82399e-05C17.7466 -0.0328486 18.3065 0.461204 18.3724 1.18582C18.4053 1.67987 18.4053 2.20686 18.3724 2.70091C18.3394 3.52433 17.8124 4.01839 17.0878 4.01839C16.3962 3.98545 15.935 3.45846 15.9021 2.66797C15.9021 2.43742 15.9021 2.20686 15.9021 1.9763Z" fill="white"/>
<path d="M27.2982 10.9021C27.5947 10.9021 27.8911 10.8691 28.1875 10.9021C28.7804 11.0009 29.1756 11.3632 29.2415 11.989C29.3074 12.6148 29.011 13.0759 28.3851 13.2406C27.6605 13.4382 26.8701 13.4382 26.1454 13.2406C25.4867 13.0759 25.1573 12.5489 25.2561 11.8902C25.355 11.2644 25.7831 10.968 26.376 10.8691C26.7054 10.8691 27.0018 10.9021 27.2982 10.9021Z" fill="white"/>
<path d="M7.00916 10.9023C7.27266 10.9023 7.50322 10.9023 7.76671 10.9023C8.42545 10.9353 8.9195 11.3964 8.98538 11.9893C9.05125 12.5821 8.65601 13.175 7.99727 13.2738C7.3056 13.4055 6.61392 13.4055 5.95518 13.2738C5.26351 13.142 4.93414 12.6151 5.00001 11.9234C5.06589 11.3635 5.55994 10.9353 6.18574 10.9023C6.48217 10.8694 6.74567 10.9023 7.00916 10.9023Z" fill="white"/>
<path d="M18.3395 22.1665C18.3395 22.4959 18.3724 22.8252 18.3395 23.1217C18.2407 23.7804 17.6149 24.2745 17.0549 24.2415C16.4291 24.1757 15.9351 23.6816 15.9021 22.9899C15.8692 22.4959 15.8692 21.9689 15.9021 21.4748C15.9351 20.7502 16.3633 20.2891 17.022 20.2562C17.7137 20.2232 18.2407 20.6514 18.3395 21.376C18.4053 21.6066 18.3724 21.903 18.3395 22.1665C18.3724 22.1665 18.3724 22.1665 18.3395 22.1665Z" fill="white"/>
<path d="M26.0796 4.3807C26.0467 4.71006 25.9479 5.0065 25.7503 5.20412C25.388 5.59936 24.9927 5.9946 24.5645 6.35691C24.0376 6.81802 23.3459 6.78509 22.8848 6.35691C22.3907 5.86285 22.3578 5.17118 22.8848 4.64419C23.2471 4.24895 23.6423 3.85371 24.0705 3.4914C24.4328 3.16203 24.8939 3.09616 25.355 3.29378C25.8161 3.52434 26.0138 3.91958 26.0796 4.3807Z" fill="white"/>
<path d="M26.1126 19.7291C26.0137 20.2561 25.8491 20.6514 25.4209 20.849C24.9927 21.0466 24.5645 21.0466 24.1693 20.7831C23.6423 20.3879 23.1482 19.9267 22.753 19.3668C22.3578 18.8398 22.4566 18.247 22.8847 17.8188C23.3129 17.3906 23.9717 17.3247 24.4328 17.72C24.9268 18.1482 25.355 18.6093 25.7832 19.1033C25.9808 19.3009 26.0137 19.5644 26.1126 19.7291Z" fill="white"/>
<path d="M11.7191 5.50057C11.6532 5.99462 11.4885 6.38987 11.0604 6.58749C10.5993 6.81804 10.1381 6.78511 9.77583 6.45574C9.31472 6.0605 8.8536 5.59938 8.45836 5.13827C8.06312 4.67715 8.06312 4.15016 8.45836 3.68904C8.82066 3.22793 9.31472 3.03031 9.84171 3.2938C10.5993 3.68904 11.1592 4.31484 11.6203 5.07239C11.6862 5.20414 11.6862 5.36882 11.7191 5.50057Z" fill="white"/>
<path d="M9.44652 21.0139C8.95246 20.981 8.55722 20.8163 8.3596 20.3881C8.12904 19.927 8.12904 19.4988 8.45841 19.1036C8.88659 18.6095 9.3477 18.1484 9.80882 17.7532C10.237 17.3909 10.764 17.4238 11.1922 17.7532C11.6862 18.0825 11.8838 18.6095 11.5874 19.1365C11.1922 19.927 10.5334 20.4869 9.77588 20.948C9.67707 21.0139 9.54533 21.0139 9.44652 21.0139Z" fill="white"/>
</g>
</g>
<defs>
<clipPath id="clip0_173_543">
<rect width="45" height="55" fill="white"/>
</clipPath>
<clipPath id="clip1_173_543">
<rect width="36" height="36" fill="white" transform="translate(5)"/>
</clipPath>
</defs>
</svg>
