<svg width="84" height="55" viewBox="0 0 84 55" fill="none" xmlns="http://www.w3.org/2000/svg">
<g clip-path="url(#clip0_173_352)">
<path d="M0.684 52C0.684 51.46 0.726 50.974 0.81 50.542C0.894 50.098 1.038 49.69 1.242 49.318C1.458 48.946 1.746 48.598 2.106 48.274C2.478 47.95 2.946 47.632 3.51 47.32C4.002 47.056 4.434 46.828 4.806 46.636C5.19 46.432 5.508 46.246 5.76 46.078C6.012 45.91 6.204 45.742 6.336 45.574C6.468 45.394 6.534 45.19 6.534 44.962C6.534 44.602 6.39 44.296 6.102 44.044C5.814 43.78 5.4 43.648 4.86 43.648C4.572 43.648 4.308 43.69 4.068 43.774C3.828 43.846 3.6 43.948 3.384 44.08C3.18 44.212 2.988 44.362 2.808 44.53C2.64 44.686 2.484 44.854 2.34 45.034L0.792 43.252C0.948 43.084 1.17 42.904 1.458 42.712C1.746 42.508 2.082 42.322 2.466 42.154C2.862 41.974 3.294 41.83 3.762 41.722C4.242 41.602 4.752 41.542 5.292 41.542C5.904 41.542 6.45 41.62 6.93 41.776C7.41 41.92 7.812 42.13 8.136 42.406C8.472 42.67 8.724 42.994 8.892 43.378C9.072 43.75 9.162 44.158 9.162 44.602C9.162 45.022 9.084 45.394 8.928 45.718C8.772 46.042 8.574 46.33 8.334 46.582C8.094 46.834 7.83 47.056 7.542 47.248C7.266 47.428 6.996 47.59 6.732 47.734C6.516 47.854 6.27 47.992 5.994 48.148C5.718 48.304 5.442 48.478 5.166 48.67C4.902 48.85 4.656 49.042 4.428 49.246C4.2 49.438 4.026 49.63 3.906 49.822H9.36V52H0.684ZM11.2042 52V49.408H13.1842V52H11.2042ZM22.6631 49.822V52H15.3551V49.822H17.9111V44.368C17.8031 44.512 17.6291 44.662 17.3891 44.818C17.1611 44.962 16.9091 45.1 16.6331 45.232C16.3571 45.364 16.0691 45.472 15.7691 45.556C15.4811 45.64 15.2231 45.682 14.9951 45.682V43.432C15.2111 43.432 15.4751 43.366 15.7871 43.234C16.0991 43.09 16.4051 42.922 16.7051 42.73C17.0051 42.538 17.2631 42.352 17.4791 42.172C17.7071 41.98 17.8511 41.83 17.9111 41.722H20.3771V49.822H22.6631ZM28.3177 46.258C28.9177 46.258 29.4757 46.36 29.9917 46.564C30.5077 46.756 30.9517 47.032 31.3237 47.392C31.6957 47.752 31.9837 48.184 32.1877 48.688C32.4037 49.192 32.5117 49.75 32.5117 50.362C32.5117 51.01 32.3917 51.598 32.1517 52.126C31.9237 52.654 31.5997 53.104 31.1797 53.476C30.7597 53.86 30.2617 54.154 29.6857 54.358C29.1097 54.574 28.4857 54.682 27.8137 54.682C26.8777 54.682 26.0377 54.484 25.2937 54.088C24.5617 53.692 24.0037 53.152 23.6197 52.468L25.0057 51.028C25.3417 51.496 25.7617 51.868 26.2657 52.144C26.7697 52.42 27.2917 52.558 27.8317 52.558C28.4797 52.558 29.0077 52.366 29.4157 51.982C29.8357 51.586 30.0457 51.064 30.0457 50.416C30.0457 49.792 29.8477 49.288 29.4517 48.904C29.0677 48.52 28.5757 48.328 27.9757 48.328C27.5797 48.328 27.2077 48.418 26.8597 48.598C26.5237 48.778 26.2537 49.024 26.0497 49.336H23.9437C23.9437 49.3 23.9677 49.168 24.0157 48.94C24.0637 48.7 24.1237 48.4 24.1957 48.04C24.2677 47.668 24.3457 47.26 24.4297 46.816C24.5137 46.36 24.6037 45.898 24.6997 45.43C24.9157 44.326 25.1557 43.09 25.4197 41.722H31.7197V43.918H27.1657L26.6437 46.78C26.7877 46.624 26.9977 46.498 27.2737 46.402C27.5617 46.306 27.9097 46.258 28.3177 46.258ZM35.6565 42.568L37.6905 45.52L37.8345 45.844L38.0145 45.52L40.0305 42.568H42.5145L39.1485 47.302L42.5685 52H40.0845L37.9965 49.066L37.8345 48.76L37.6905 49.066L35.6205 52H33.1365L36.5385 47.302L33.1905 42.568H35.6565ZM51.087 49.822V52H43.779V49.822H46.335V44.368C46.227 44.512 46.053 44.662 45.813 44.818C45.585 44.962 45.333 45.1 45.057 45.232C44.781 45.364 44.493 45.472 44.193 45.556C43.905 45.64 43.647 45.682 43.419 45.682V43.432C43.635 43.432 43.899 43.366 44.211 43.234C44.523 43.09 44.829 42.922 45.129 42.73C45.429 42.538 45.687 42.352 45.903 42.172C46.131 41.98 46.275 41.83 46.335 41.722H48.801V49.822H51.087ZM52.5655 52V49.408H54.5455V52H52.5655ZM65.6445 48.22C65.6445 48.82 65.5185 49.36 65.2665 49.84C65.0265 50.32 64.6905 50.734 64.2585 51.082C63.8385 51.43 63.3465 51.7 62.7825 51.892C62.2185 52.072 61.6185 52.162 60.9825 52.162C60.3465 52.162 59.7465 52.066 59.1825 51.874C58.6185 51.67 58.1265 51.388 57.7065 51.028C57.2865 50.668 56.9565 50.242 56.7165 49.75C56.4765 49.258 56.3565 48.718 56.3565 48.13C56.3565 47.77 56.4165 47.44 56.5365 47.14C56.6565 46.828 56.8125 46.546 57.0045 46.294C57.1965 46.042 57.4065 45.82 57.6345 45.628C57.8745 45.436 58.1145 45.28 58.3545 45.16C57.9105 44.944 57.5325 44.62 57.2205 44.188C56.9085 43.756 56.7525 43.282 56.7525 42.766C56.7525 42.19 56.8785 41.686 57.1305 41.254C57.3945 40.81 57.7305 40.438 58.1385 40.138C58.5585 39.838 59.0145 39.61 59.5065 39.454C60.0105 39.298 60.5085 39.22 61.0005 39.22C61.4805 39.22 61.9725 39.298 62.4765 39.454C62.9925 39.598 63.4545 39.82 63.8625 40.12C64.2705 40.42 64.6065 40.792 64.8705 41.236C65.1345 41.668 65.2665 42.172 65.2665 42.748C65.2665 43 65.2245 43.252 65.1405 43.504C65.0565 43.744 64.9365 43.972 64.7805 44.188C64.6365 44.392 64.4625 44.578 64.2585 44.746C64.0545 44.914 63.8385 45.052 63.6105 45.16C63.8745 45.292 64.1265 45.46 64.3665 45.664C64.6065 45.856 64.8225 46.084 65.0145 46.348C65.2065 46.6 65.3565 46.882 65.4645 47.194C65.5845 47.506 65.6445 47.848 65.6445 48.22ZM63.1965 48.076C63.1965 47.776 63.1305 47.506 62.9985 47.266C62.8785 47.026 62.7105 46.828 62.4945 46.672C62.2905 46.504 62.0565 46.378 61.7925 46.294C61.5285 46.21 61.2585 46.168 60.9825 46.168C60.6945 46.168 60.4185 46.216 60.1545 46.312C59.8905 46.396 59.6565 46.522 59.4525 46.69C59.2605 46.858 59.1045 47.062 58.9845 47.302C58.8645 47.53 58.8045 47.788 58.8045 48.076C58.8045 48.364 58.8645 48.628 58.9845 48.868C59.1165 49.096 59.2845 49.294 59.4885 49.462C59.6925 49.63 59.9265 49.762 60.1905 49.858C60.4545 49.942 60.7245 49.984 61.0005 49.984C61.2885 49.984 61.5645 49.936 61.8285 49.84C62.0925 49.744 62.3265 49.612 62.5305 49.444C62.7345 49.276 62.8965 49.078 63.0165 48.85C63.1365 48.61 63.1965 48.352 63.1965 48.076ZM59.2005 42.838C59.2005 43.09 59.2545 43.312 59.3625 43.504C59.4705 43.684 59.6085 43.84 59.7765 43.972C59.9565 44.092 60.1485 44.188 60.3525 44.26C60.5685 44.32 60.7845 44.35 61.0005 44.35C61.2045 44.35 61.4145 44.32 61.6305 44.26C61.8465 44.188 62.0385 44.086 62.2065 43.954C62.3865 43.822 62.5305 43.666 62.6385 43.486C62.7465 43.294 62.8005 43.072 62.8005 42.82C62.8005 42.376 62.6205 42.022 62.2605 41.758C61.9125 41.494 61.4865 41.362 60.9825 41.362C60.4905 41.362 60.0705 41.5 59.7225 41.776C59.3745 42.04 59.2005 42.394 59.2005 42.838ZM77.16 47.59L79.95 42.568H82.416V52H80.112V46.33L77.718 50.578H76.584L74.19 46.33V52H71.886V42.568H74.37L77.16 47.59Z" fill="white"/>
<g clip-path="url(#clip1_173_352)">
<path d="M60.2468 13.5747C60.8168 13.5747 61.3372 13.1335 61.3372 12.5057V1.13462C61.3372 0.506787 60.8168 0 60.2468 0H24.1328C23.5617 0 23.059 0.506787 23.059 1.13462V12.5057C23.059 13.1335 23.5617 13.5747 24.1328 13.5747H60.2468ZM25.1281 2.26244H59.2681V11.3122H57.199V6.93891C57.199 6.31109 56.7345 5.80204 56.1645 5.80204C55.5944 5.80204 55.1299 6.31109 55.1299 6.93891V11.3122H52.0263V9.35634C52.0263 8.72851 51.5618 8.21946 50.9917 8.21946C50.4217 8.21946 49.9572 8.72851 49.9572 9.35634V11.3122H47.8881V9.35634C47.8881 8.72851 47.4236 8.21946 46.8535 8.21946C46.2835 8.21946 45.819 8.72851 45.819 9.35634V11.3122H42.7154V6.93891C42.7154 6.31109 42.2508 5.80204 41.6808 5.80204C41.1108 5.80204 40.6463 6.31109 40.6463 6.93891V11.3122H37.5426V9.35634C37.5426 8.72851 37.0781 8.21946 36.5081 8.21946C35.938 8.21946 35.4735 8.72851 35.4735 9.35634V11.3122H33.4044V9.35634C33.4044 8.72851 32.9399 8.21946 32.3699 8.21946C31.7998 8.21946 31.3353 8.72851 31.3353 9.35634V11.3122H29.2662V6.93891C29.2662 6.31109 28.8017 5.80204 28.2317 5.80204C27.6606 5.80204 27.1971 6.31109 27.1971 6.93891V11.3122H25.1281V2.26244V2.26244Z" fill="white"/>
<path d="M57.4928 25.6437L60.4951 22.1403C60.6844 21.9208 60.7879 21.6278 60.7754 21.3235C60.7672 21.0204 60.6492 20.7342 60.4496 20.5283L57.2104 17.1923C56.7945 16.7636 56.1417 16.7885 55.7527 17.2466C55.5665 17.4649 55.4734 17.7432 55.4734 18.0226C55.4734 18.3269 55.5831 18.6335 55.8003 18.8586L57.2559 20.362H24.0325C23.4614 20.362 23 20.8643 23 21.4932C23 22.1222 23.4614 22.6245 24.0325 22.6245H57.2414L55.9917 24.0815C55.5996 24.5385 55.6203 25.2602 56.0341 25.6889C56.449 26.1222 57.1007 26.0996 57.4928 25.6437Z" fill="white"/>
</g>
</g>
<defs>
<clipPath id="clip0_173_352">
<rect width="84" height="55" fill="white"/>
</clipPath>
<clipPath id="clip1_173_352">
<rect width="38.3372" height="26" fill="white" transform="translate(23)"/>
</clipPath>
</defs>
</svg>
