<svg width="57" height="55" viewBox="0 0 57 55" fill="none" xmlns="http://www.w3.org/2000/svg">
<g clip-path="url(#clip0_173_520)">
<path d="M10.1163 48.822V51H2.80825V48.822H5.36425V43.368C5.25625 43.512 5.08225 43.662 4.84225 43.818C4.61425 43.962 4.36225 44.1 4.08625 44.232C3.81025 44.364 3.52225 44.472 3.22225 44.556C2.93425 44.64 2.67625 44.682 2.44825 44.682V42.432C2.66425 42.432 2.92825 42.366 3.24025 42.234C3.55225 42.09 3.85825 41.922 4.15825 41.73C4.45825 41.538 4.71625 41.352 4.93225 41.172C5.16025 40.98 5.30425 40.83 5.36425 40.722H7.83025V48.822H10.1163ZM11.5948 51V48.408H13.5748V51H11.5948ZM21.4518 46.752C22.1958 46.884 22.7958 47.244 23.2518 47.832C23.7198 48.408 23.9538 49.116 23.9538 49.956C23.9538 50.52 23.8398 51.03 23.6118 51.486C23.3958 51.942 23.0838 52.326 22.6758 52.638C22.2798 52.962 21.7938 53.208 21.2178 53.376C20.6418 53.556 19.9938 53.646 19.2738 53.646C18.3618 53.646 17.5518 53.496 16.8438 53.196C16.1478 52.908 15.5658 52.482 15.0978 51.918L16.4658 50.208C16.7778 50.604 17.1498 50.91 17.5818 51.126C18.0138 51.342 18.5538 51.45 19.2018 51.45C19.9338 51.45 20.4918 51.306 20.8758 51.018C21.2598 50.73 21.4518 50.286 21.4518 49.686C21.4518 49.062 21.2298 48.582 20.7858 48.246C20.3418 47.91 19.6698 47.742 18.7698 47.742H18.2658V45.942H18.8238C19.5678 45.942 20.1438 45.78 20.5518 45.456C20.9598 45.12 21.1638 44.694 21.1638 44.178C21.1638 43.686 20.9958 43.32 20.6598 43.08C20.3238 42.84 19.8858 42.72 19.3457 42.72C18.7938 42.72 18.2958 42.846 17.8518 43.098C17.4198 43.35 17.0658 43.704 16.7898 44.16L15.2778 42.468C15.4578 42.192 15.6978 41.946 15.9978 41.73C16.2978 41.502 16.6338 41.31 17.0058 41.154C17.3898 40.986 17.8038 40.86 18.2478 40.776C18.6918 40.68 19.1478 40.632 19.6158 40.632C20.2278 40.632 20.7858 40.71 21.2898 40.866C21.7938 41.022 22.2258 41.238 22.5858 41.514C22.9578 41.79 23.2398 42.126 23.4318 42.522C23.6358 42.906 23.7378 43.338 23.7378 43.818C23.7378 44.178 23.6838 44.52 23.5758 44.844C23.4678 45.168 23.3118 45.462 23.1078 45.726C22.9038 45.99 22.6578 46.212 22.3698 46.392C22.0938 46.572 21.7878 46.692 21.4518 46.752ZM34.8369 46.734C34.8369 47.358 34.7169 47.94 34.4769 48.48C34.2369 49.02 33.9069 49.494 33.4869 49.902C33.0669 50.298 32.5689 50.61 31.9929 50.838C31.4289 51.066 30.8169 51.18 30.1569 51.18C29.4369 51.18 28.7829 51.048 28.1949 50.784C27.6189 50.52 27.1269 50.136 26.7189 49.632C26.3109 49.128 25.9989 48.516 25.7829 47.796C25.5669 47.064 25.4589 46.236 25.4589 45.312C25.4589 44.148 25.5729 43.122 25.8009 42.234C26.0289 41.334 26.3589 40.584 26.7909 39.984C27.2229 39.372 27.7449 38.91 28.3569 38.598C28.9689 38.286 29.6529 38.13 30.4089 38.13C31.2129 38.13 31.9509 38.304 32.6229 38.652C33.3069 39 33.8829 39.498 34.3509 40.146L32.9649 41.658C32.6769 41.202 32.3049 40.848 31.8489 40.596C31.3929 40.344 30.9009 40.218 30.3729 40.218C29.5689 40.218 28.9269 40.536 28.4469 41.172C27.9669 41.808 27.7149 42.708 27.6909 43.872C27.9429 43.44 28.2969 43.098 28.7529 42.846C29.2209 42.594 29.7609 42.468 30.3729 42.468C30.9969 42.468 31.5789 42.576 32.1189 42.792C32.6709 43.008 33.1449 43.308 33.5409 43.692C33.9489 44.076 34.2669 44.532 34.4949 45.06C34.7229 45.576 34.8369 46.134 34.8369 46.734ZM30.1749 49.146C30.4869 49.146 30.7869 49.086 31.0749 48.966C31.3629 48.834 31.6149 48.66 31.8309 48.444C32.0469 48.216 32.2149 47.958 32.3349 47.67C32.4669 47.37 32.5329 47.058 32.5329 46.734C32.5329 46.41 32.4669 46.11 32.3349 45.834C32.2149 45.546 32.0469 45.294 31.8309 45.078C31.6149 44.862 31.3629 44.694 31.0749 44.574C30.7989 44.454 30.4989 44.394 30.1749 44.394C29.8509 44.394 29.5449 44.454 29.2569 44.574C28.9689 44.694 28.7169 44.862 28.5009 45.078C28.2849 45.294 28.1169 45.546 27.9969 45.834C27.8769 46.11 27.8169 46.41 27.8169 46.734C27.8169 47.058 27.8769 47.37 27.9969 47.67C28.1289 47.958 28.3029 48.21 28.5189 48.426C28.7349 48.642 28.9809 48.816 29.2569 48.948C29.5449 49.08 29.8509 49.146 30.1749 49.146ZM46.8007 41.568H49.3927L45.7207 46.14L49.6807 51H46.9447L44.0287 47.364H43.3987V51H41.0227V41.568H43.3987V45.312H43.9387L46.8007 41.568ZM57.0618 43.566H53.1198V51H50.7258V41.568H57.0618V43.566Z" fill="white"/>
<g clip-path="url(#clip1_173_520)">
<path d="M43.1513 30.285L40.2813 16.354C40.2232 13.472 37.9884 11.11 35.2477 11.11H34.1721C35.2674 10.11 35.9458 8.342 35.9458 6.558C35.9449 2.933 33.1526 0 29.7223 0C26.291 0 23.4988 2.923 23.4988 6.549C23.4988 8.333 24.1772 10.11 25.2716 11.11H23.926C21.1853 11.11 18.9487 13.472 18.8916 16.354L16.0216 30.267C16.0075 30.336 16 30.562 16 30.635C16 33.569 18.2591 36.111 21.0354 36.111H38.1365C40.9137 36.111 43.1728 33.578 43.1728 30.644C43.1728 30.571 43.1663 30.354 43.1513 30.285ZM25.3728 6.596C25.3728 4.066 27.3236 2.008 29.7223 2.008C32.1201 2.008 34.0709 4.066 34.0709 6.596C34.0709 9.126 32.1201 11.184 29.7223 11.184C27.3236 11.184 25.3728 9.126 25.3728 6.596ZM38.1365 34.11H21.0354C19.3245 34.11 17.9265 32.529 17.8749 30.739L20.7421 16.788C20.7571 16.719 20.7637 16.581 20.7637 16.509C20.7637 14.671 22.1823 13.111 23.9251 13.111H35.2468C36.9896 13.111 38.4073 14.637 38.4073 16.475C38.4073 16.546 38.4148 16.633 38.4288 16.703L41.297 30.732C41.2473 32.521 39.8493 34.11 38.1365 34.11Z" fill="white"/>
<path d="M29.7223 3.58203C28.151 3.58203 26.8729 4.93403 26.8729 6.59603C26.8729 8.25903 28.151 9.61103 29.7223 9.61103C31.2927 9.61103 32.5708 8.25803 32.5708 6.59603C32.5708 4.93403 31.2927 3.58203 29.7223 3.58203ZM29.7223 7.62203C29.1845 7.62203 28.7469 7.16203 28.7469 6.59603C28.7469 6.03003 29.1836 5.57003 29.7223 5.57003C30.2592 5.57003 30.6968 6.02903 30.6968 6.59503C30.6968 7.16103 30.2592 7.62203 29.7223 7.62203Z" fill="white"/>
<path d="M25.1344 25.2089H24.397V28.9749H22.6738V19.8989H24.397V23.6339H24.9985L27.1883 19.8989H29.319L26.4921 24.1259L29.5551 28.9759H27.3597L25.1344 25.2089Z" fill="white"/>
<path d="M29.8178 29.124H27.2814L25.056 25.358H24.5369V29.124H22.5327V19.749H24.5369V23.484H24.9202L27.1099 19.749H29.5911L26.663 24.127L29.8178 29.124ZM27.4369 28.825H29.2913L26.321 24.122L29.0467 20.048H27.2664L25.0767 23.783H24.2558V20.048H22.8129V28.825H24.2558V25.06H25.2116L27.4369 28.825Z" fill="white"/>
<path d="M36.6079 27.7331C36.3409 28.1041 35.9417 28.4241 35.4105 28.6971C34.8792 28.9681 34.1942 29.1041 33.3566 29.1041C32.3184 29.1041 31.4685 28.7601 30.807 28.0691C30.1464 27.3801 29.8157 26.4841 29.8157 25.3831V23.4901C29.8157 22.3921 30.1361 21.4971 30.778 20.8051C31.4198 20.1131 32.2434 19.7681 33.2507 19.7681C34.3011 19.7681 35.1059 20.0301 35.6644 20.5561C36.2238 21.0821 36.4936 21.7841 36.473 22.6601L36.4618 22.6971H34.8389C34.8389 22.2161 34.7068 21.8411 34.4435 21.5731C34.1802 21.3041 33.796 21.1711 33.2919 21.1711C32.7644 21.1711 32.339 21.3871 32.0167 21.8161C31.6943 22.2481 31.5322 22.8011 31.5322 23.4771V25.3841C31.5322 26.0701 31.6972 26.6291 32.0279 27.0621C32.3587 27.4941 32.8009 27.7081 33.3556 27.7081C33.766 27.7081 34.0893 27.6661 34.3273 27.5781C34.5653 27.4911 34.7489 27.3801 34.8783 27.2481V25.4901H33.2254V24.2311H36.607V27.7331H36.6079Z" fill="white"/>
<path d="M33.355 29.2541C32.2822 29.2541 31.3911 28.8921 30.7071 28.1761C30.0221 27.4611 29.6736 26.5211 29.6736 25.3841V23.4901C29.6736 22.3561 30.0109 21.4181 30.6762 20.7011C31.3414 19.9831 32.2072 19.6191 33.2492 19.6191C34.3314 19.6191 35.1756 19.8971 35.7565 20.4451C36.3459 21.0001 36.6345 21.7471 36.613 22.6641L36.5942 22.7421L36.5642 22.8461H34.6968V22.6971C34.6968 22.2541 34.5825 21.9221 34.3454 21.6801C34.1103 21.4411 33.7551 21.3201 33.2913 21.3201C32.805 21.3201 32.4237 21.5121 32.1257 21.9091C31.8249 22.3101 31.6722 22.8381 31.6722 23.4761V25.3831C31.6722 26.0301 31.8287 26.5641 32.1369 26.9671C32.4415 27.3641 32.8397 27.5581 33.355 27.5581C33.7495 27.5581 34.0606 27.5171 34.2808 27.4371C34.4719 27.3671 34.6247 27.2811 34.7362 27.1811V25.6401H33.0842V24.0821H36.7479V27.7841L36.7188 27.8241C36.4396 28.2111 36.0198 28.5511 35.4708 28.8311C34.9217 29.1111 34.2105 29.2541 33.355 29.2541ZM33.2492 19.9181C32.2859 19.9181 31.4876 20.2521 30.8767 20.9101C30.2648 21.5701 29.9547 22.4371 29.9547 23.4901V25.3841C29.9547 26.4391 30.2742 27.3061 30.9039 27.9631C31.5335 28.6221 32.3581 28.9551 33.355 28.9551C34.1674 28.9551 34.8383 28.8231 35.348 28.5621C35.8381 28.3111 36.2147 28.0161 36.4659 27.6821V24.3801H33.3653V25.3401H35.0182V27.3111L34.9751 27.3551C34.8308 27.5021 34.6284 27.6251 34.3717 27.7181C34.1177 27.8121 33.7861 27.8581 33.3541 27.8581C32.7582 27.8581 32.2747 27.6211 31.9177 27.1561C31.5672 26.6971 31.3902 26.1011 31.3902 25.3841V23.4771C31.3902 22.7701 31.5635 22.1791 31.9046 21.7231C32.255 21.2571 32.7207 21.0221 33.2904 21.0221C33.8292 21.0221 34.2489 21.1711 34.5385 21.4651C34.8008 21.7331 34.9479 22.0971 34.9732 22.5481H36.3319C36.3272 21.7631 36.0779 21.1481 35.5692 20.6691C35.0416 20.1711 34.2602 19.9181 33.2492 19.9181Z" fill="white"/>
</g>
</g>
<defs>
<clipPath id="clip0_173_520">
<rect width="57" height="55" fill="white"/>
</clipPath>
<clipPath id="clip1_173_520">
<rect width="27.1728" height="36.11" fill="white" transform="translate(16)"/>
</clipPath>
</defs>
</svg>
