<svg width="45" height="55" viewBox="0 0 45 55" fill="none" xmlns="http://www.w3.org/2000/svg">
<g clip-path="url(#clip0_173_330)">
<path d="M9.00253 47.752C9.74653 47.884 10.3465 48.244 10.8025 48.832C11.2705 49.408 11.5045 50.116 11.5045 50.956C11.5045 51.52 11.3905 52.03 11.1625 52.486C10.9465 52.942 10.6345 53.326 10.2265 53.638C9.83053 53.962 9.34453 54.208 8.76853 54.376C8.19253 54.556 7.54453 54.646 6.82453 54.646C5.91253 54.646 5.10253 54.496 4.39453 54.196C3.69853 53.908 3.11653 53.482 2.64853 52.918L4.01653 51.208C4.32853 51.604 4.70053 51.91 5.13253 52.126C5.56453 52.342 6.10453 52.45 6.75253 52.45C7.48453 52.45 8.04253 52.306 8.42653 52.018C8.81053 51.73 9.00253 51.286 9.00253 50.686C9.00253 50.062 8.78053 49.582 8.33653 49.246C7.89253 48.91 7.22053 48.742 6.32053 48.742H5.81653V46.942H6.37453C7.11853 46.942 7.69453 46.78 8.10253 46.456C8.51053 46.12 8.71453 45.694 8.71453 45.178C8.71453 44.686 8.54653 44.32 8.21053 44.08C7.87453 43.84 7.43653 43.72 6.89653 43.72C6.34453 43.72 5.84653 43.846 5.40253 44.098C4.97053 44.35 4.61653 44.704 4.34053 45.16L2.82853 43.468C3.00853 43.192 3.24853 42.946 3.54853 42.73C3.84853 42.502 4.18453 42.31 4.55653 42.154C4.94053 41.986 5.35453 41.86 5.79853 41.776C6.24253 41.68 6.69853 41.632 7.16653 41.632C7.77853 41.632 8.33653 41.71 8.84053 41.866C9.34453 42.022 9.77653 42.238 10.1365 42.514C10.5085 42.79 10.7905 43.126 10.9825 43.522C11.1865 43.906 11.2885 44.338 11.2885 44.818C11.2885 45.178 11.2345 45.52 11.1265 45.844C11.0185 46.168 10.8625 46.462 10.6585 46.726C10.4545 46.99 10.2085 47.212 9.92053 47.392C9.64453 47.572 9.33853 47.692 9.00253 47.752ZM20.6416 49.822V52H13.3336V49.822H15.8896V44.368C15.7816 44.512 15.6076 44.662 15.3676 44.818C15.1396 44.962 14.8876 45.1 14.6116 45.232C14.3356 45.364 14.0476 45.472 13.7476 45.556C13.4596 45.64 13.2016 45.682 12.9736 45.682V43.432C13.1896 43.432 13.4536 43.366 13.7656 43.234C14.0776 43.09 14.3836 42.922 14.6836 42.73C14.9836 42.538 15.2416 42.352 15.4576 42.172C15.6856 41.98 15.8296 41.83 15.8896 41.722H18.3556V49.822H20.6416ZM32.3124 42.568H34.9044L31.2324 47.14L35.1924 52H32.4564L29.5404 48.364H28.9104V52H26.5344V42.568H28.9104V46.312H29.4504L32.3124 42.568ZM42.5735 44.566H38.6315V52H36.2375V42.568H42.5735V44.566Z" fill="white"/>
<g clip-path="url(#clip1_173_330)">
<path d="M29.9429 13.1895H15.8754C14.7922 13.1895 13.9198 14.1532 13.9198 15.3319V19.2824C13.9198 19.7204 14.247 20.0788 14.6468 20.0788H14.7995V27.6452C14.7995 29.3018 16.0281 30.6399 17.533 30.6399H28.2781C29.7903 30.6399 31.0116 29.2939 31.0116 27.6452V20.0788H31.1643C31.5641 20.0788 31.8913 19.7204 31.8913 19.2824V15.3319C31.9058 14.1532 31.0262 13.1895 29.9429 13.1895ZM15.3738 15.3399C15.3738 15.0372 15.5992 14.7903 15.8754 14.7903H29.9429C30.2192 14.7903 30.4446 15.0372 30.4446 15.3399V18.4939H15.3738V15.3399ZM22.2803 20.0868H23.5453V24.9611H22.2803V20.0868ZM29.5722 27.6532C29.5722 28.4257 28.9978 29.0549 28.2926 29.0549H17.5403C16.8351 29.0549 16.2607 28.4257 16.2607 27.6532V20.0868H20.8336V25.7576C20.8336 26.1956 21.1607 26.5541 21.5606 26.5541H24.2796C24.6794 26.5541 25.0066 26.1956 25.0066 25.7576V20.0868H29.5794V27.6532H29.5722Z" fill="white"/>
<path d="M36.7112 18.8841H34.9737V9.28673C34.9737 6.29204 32.9308 3.80708 30.2918 3.41681V0.79646C30.2918 0.358407 29.9647 0 29.5648 0H26.3733C25.9734 0 25.6463 0.358407 25.6463 0.79646V3.36106H20.1719V0.79646C20.1719 0.358407 19.8448 0 19.4449 0H16.2534C15.8536 0 15.5264 0.358407 15.5264 0.79646V3.41681C12.8947 3.80708 10.8518 6.29204 10.8518 9.28673V18.8841H9.11425C8.29274 18.8841 7.6239 19.6168 7.6239 20.5168V27.5336C7.6239 29.6522 9.01974 31.4124 10.8518 31.7947V33.1089C10.8518 34.7097 12.0441 36.008 13.4981 36.008H32.3201C33.7814 36.008 34.9664 34.7018 34.9664 33.1089V31.7947C36.7985 31.4204 38.1943 29.6522 38.1943 27.5336V20.5168C38.2016 19.6168 37.5327 18.8841 36.7112 18.8841ZM36.7112 20.477C36.7258 20.477 36.7476 20.4929 36.7476 20.5168V22.2531H34.9737V20.485H36.7112V20.477ZM27.1003 1.59292H28.8378V3.36106H27.1003V1.59292ZM16.9877 1.59292H18.7252V3.36106H16.9877V1.59292ZM9.11425 20.477H10.8518V22.2451H9.0779V20.5089C9.0779 20.4929 9.09244 20.477 9.11425 20.477ZM9.0779 27.5257V23.8381H10.8518V30.146C9.82672 29.8035 9.0779 28.7602 9.0779 27.5257ZM33.5197 33.0929C33.5197 33.8177 32.9817 34.3991 32.3274 34.3991H13.4981C12.8365 34.3991 12.3058 33.8097 12.3058 33.0929V31.0619V9.28673C12.3058 6.89735 14.0797 4.95398 16.2607 4.95398H29.5648C31.7458 4.95398 33.5197 6.89735 33.5197 9.28673V31.0619V33.0929ZM34.9737 30.146V23.8381H36.7476V27.5257C36.7476 28.7602 35.9988 29.8035 34.9737 30.146Z" fill="white"/>
</g>
</g>
<defs>
<clipPath id="clip0_173_330">
<rect width="45" height="55" fill="white"/>
</clipPath>
<clipPath id="clip1_173_330">
<rect width="32.8605" height="36" fill="white" transform="translate(6.48254)"/>
</clipPath>
</defs>
</svg>
