<svg width="43" height="55" viewBox="0 0 43 55" fill="none" xmlns="http://www.w3.org/2000/svg">
<g clip-path="url(#clip0_173_527)">
<path d="M-0.0253359 50.148V47.97H5.42866V50.148H-0.0253359ZM14.5274 51.822V54H7.21938V51.822H9.77538V46.368C9.66738 46.512 9.49338 46.662 9.25338 46.818C9.02538 46.962 8.77338 47.1 8.49738 47.232C8.22138 47.364 7.93338 47.472 7.63338 47.556C7.34538 47.64 7.08738 47.682 6.85938 47.682V45.432C7.07538 45.432 7.33938 45.366 7.65138 45.234C7.96338 45.09 8.26938 44.922 8.56938 44.73C8.86938 44.538 9.12738 44.352 9.34338 44.172C9.57138 43.98 9.71538 43.83 9.77538 43.722H12.2414V51.822H14.5274ZM25.1319 48.726C25.1319 49.518 25.0119 50.25 24.7719 50.922C24.5439 51.582 24.2199 52.158 23.7999 52.65C23.3919 53.13 22.8999 53.508 22.3239 53.784C21.7599 54.048 21.1479 54.18 20.4879 54.18C19.8159 54.18 19.1979 54.048 18.6339 53.784C18.0699 53.508 17.5779 53.13 17.1579 52.65C16.7499 52.158 16.4259 51.582 16.1859 50.922C15.9579 50.25 15.8439 49.518 15.8439 48.726C15.8439 47.934 15.9579 47.208 16.1859 46.548C16.4259 45.876 16.7499 45.3 17.1579 44.82C17.5779 44.328 18.0699 43.944 18.6339 43.668C19.1979 43.392 19.8159 43.254 20.4879 43.254C21.1479 43.254 21.7599 43.392 22.3239 43.668C22.8999 43.944 23.3919 44.328 23.7999 44.82C24.2199 45.3 24.5439 45.876 24.7719 46.548C25.0119 47.208 25.1319 47.934 25.1319 48.726ZM22.7019 48.726C22.7019 48.246 22.6479 47.808 22.5399 47.412C22.4319 47.004 22.2759 46.656 22.0719 46.368C21.8799 46.08 21.6459 45.858 21.3699 45.702C21.1059 45.546 20.8119 45.468 20.4879 45.468C20.1519 45.468 19.8459 45.546 19.5699 45.702C19.3059 45.858 19.0719 46.08 18.8679 46.368C18.6759 46.656 18.5259 47.004 18.4179 47.412C18.3099 47.808 18.2559 48.246 18.2559 48.726C18.2559 49.206 18.3099 49.644 18.4179 50.04C18.5259 50.436 18.6759 50.778 18.8679 51.066C19.0719 51.354 19.3059 51.576 19.5699 51.732C19.8459 51.888 20.1519 51.966 20.4879 51.966C20.8119 51.966 21.1059 51.888 21.3699 51.732C21.6459 51.576 21.8799 51.354 22.0719 51.066C22.2759 50.778 22.4319 50.436 22.5399 50.04C22.6479 49.644 22.7019 49.206 22.7019 48.726ZM26.3167 42.75C26.3167 42.246 26.4847 41.826 26.8207 41.49C27.1687 41.142 27.6127 40.968 28.1527 40.968C28.6927 40.968 29.1367 41.142 29.4847 41.49C29.8327 41.826 30.0067 42.246 30.0067 42.75C30.0067 43.326 29.8327 43.788 29.4847 44.136C29.1367 44.484 28.6927 44.658 28.1527 44.658C27.6127 44.658 27.1687 44.484 26.8207 44.136C26.4847 43.776 26.3167 43.314 26.3167 42.75ZM27.6667 42.336C27.5467 42.48 27.4867 42.642 27.4867 42.822C27.4867 43.002 27.5467 43.152 27.6667 43.272C27.8347 43.416 27.9967 43.488 28.1527 43.488C28.3567 43.488 28.5187 43.416 28.6387 43.272C28.7587 43.152 28.8187 43.002 28.8187 42.822C28.8187 42.642 28.7587 42.48 28.6387 42.336C28.5787 42.276 28.5067 42.228 28.4227 42.192C28.3387 42.156 28.2487 42.138 28.1527 42.138C27.9847 42.138 27.8227 42.204 27.6667 42.336ZM31.2875 47.52C31.2875 46.74 31.4255 45.972 31.7015 45.216C31.9895 44.448 32.4035 43.764 32.9435 43.164C33.4835 42.564 34.1435 42.078 34.9235 41.706C35.7035 41.334 36.5915 41.148 37.5875 41.148C38.7635 41.148 39.7775 41.406 40.6295 41.922C41.4935 42.438 42.1355 43.11 42.5555 43.938L40.6475 45.252C40.4795 44.892 40.2755 44.592 40.0355 44.352C39.7955 44.1 39.5375 43.902 39.2615 43.758C38.9855 43.614 38.6975 43.512 38.3975 43.452C38.0975 43.38 37.8035 43.344 37.5155 43.344C36.8915 43.344 36.3455 43.47 35.8775 43.722C35.4215 43.974 35.0375 44.304 34.7255 44.712C34.4255 45.108 34.1975 45.564 34.0415 46.08C33.8855 46.584 33.8075 47.088 33.8075 47.592C33.8075 48.156 33.8975 48.702 34.0775 49.23C34.2575 49.746 34.5095 50.202 34.8335 50.598C35.1695 50.994 35.5655 51.312 36.0215 51.552C36.4895 51.792 36.9995 51.912 37.5515 51.912C37.8395 51.912 38.1395 51.876 38.4515 51.804C38.7635 51.732 39.0575 51.618 39.3335 51.462C39.6215 51.306 39.8855 51.108 40.1255 50.868C40.3655 50.616 40.5575 50.316 40.7015 49.968L42.7355 51.138C42.5315 51.618 42.2375 52.044 41.8535 52.416C41.4815 52.776 41.0555 53.082 40.5755 53.334C40.1075 53.586 39.6035 53.778 39.0635 53.91C38.5235 54.042 37.9955 54.108 37.4795 54.108C36.5675 54.108 35.7335 53.916 34.9775 53.532C34.2215 53.148 33.5675 52.65 33.0155 52.038C32.4755 51.414 32.0495 50.712 31.7375 49.932C31.4375 49.14 31.2875 48.336 31.2875 47.52Z" fill="white"/>
<g clip-path="url(#clip1_173_527)">
<path d="M17.9803 13.699C19.2245 14.4528 20.3704 15.1082 21.4836 15.7964C21.7455 15.9603 21.9747 15.862 22.2039 15.8292C23.2516 15.567 24.2666 15.3048 25.3143 15.0099C25.7399 14.9116 26.0019 14.8788 26.0673 15.4359C26.1328 15.993 26.362 16.5174 26.493 17.0417C26.5912 17.3694 26.5257 17.5661 26.1328 17.6644C25.3143 17.861 24.4958 18.1232 23.6773 18.287C23.2189 18.3854 23.2189 18.582 23.3171 18.9097C23.5463 19.729 23.71 20.5483 23.9719 21.3676C24.1029 21.7281 23.9392 21.8591 23.6445 21.9247C23.0552 22.0885 22.4331 22.1869 21.8438 22.3835C21.4836 22.5146 21.3854 22.3507 21.2872 22.0558C20.9925 20.9415 20.6978 19.8273 20.4032 18.7131C20.3704 18.5164 20.3377 18.3526 20.174 18.2543C19.028 17.5988 17.9149 16.9106 16.638 16.1897C16.638 17.2711 16.7034 18.2215 16.6052 19.1719C16.5397 20.0895 16.7689 20.7777 17.522 21.3676C18.2095 21.9247 18.7661 22.5801 19.3882 23.2028C19.6174 23.4322 19.6501 23.5633 19.3882 23.7927C18.9298 24.2187 18.4387 24.6775 18.0131 25.1691C17.7512 25.464 17.6202 25.3985 17.391 25.1363C16.8017 24.5464 16.1796 23.9893 15.6557 23.3666C15.2956 22.9734 15.0991 23.0717 14.8045 23.3994C14.2806 23.9893 13.6913 24.5136 13.1347 25.0707C12.84 25.3985 12.6436 25.3657 12.3489 25.038C11.9888 24.6119 11.5959 24.2187 11.1702 23.8582C10.8428 23.5633 10.9083 23.3994 11.1702 23.1372C11.956 22.3835 12.7091 21.597 13.4621 20.876C13.724 20.6138 13.8877 20.3516 13.855 19.9584C13.8222 18.8769 13.855 17.7955 13.855 16.714C13.855 16.3863 13.855 16.1569 13.4294 16.4191C12.4471 17.009 11.4322 17.5988 10.4499 18.1887C10.188 18.3526 10.0898 18.582 10.0243 18.8442C9.76238 19.9256 9.43497 21.0071 9.20579 22.0885C9.10756 22.449 9.00934 22.5473 8.61645 22.449C8.05986 22.2524 7.47052 22.1541 6.88118 22.023C6.55377 21.9575 6.42281 21.8264 6.55377 21.4331C6.8157 20.5811 6.97941 19.729 7.24133 18.8442C7.30681 18.5492 7.27407 18.4509 6.97941 18.3854C6.0954 18.1887 5.2114 17.9266 4.36014 17.6972C4.03273 17.6316 3.9345 17.5333 4.03273 17.2056C4.19643 16.6157 4.36014 16.0258 4.4911 15.4031C4.55658 14.9771 4.78577 14.9771 5.11318 15.0754C6.16088 15.3704 7.17585 15.5998 8.22356 15.8947C8.61645 15.993 8.91112 15.993 9.27127 15.7636C10.319 15.1082 11.3994 14.4855 12.5454 13.7973C11.2685 13.0436 10.0898 12.3554 8.87838 11.6672C8.64919 11.5361 8.42 11.6672 8.22356 11.7327C7.14311 11.9949 6.06266 12.2571 4.98221 12.5848C4.6548 12.6831 4.55658 12.5848 4.45836 12.2899C4.29465 11.6672 4.16369 11.0445 3.96725 10.4219C3.86902 10.0942 3.96725 9.99585 4.29465 9.89753C5.08044 9.73367 5.83348 9.4715 6.61926 9.30764C7.20859 9.20933 7.27407 8.94716 7.11037 8.45558C6.88118 7.70184 6.71748 6.94809 6.52103 6.19435C6.42281 5.86663 6.45555 5.73555 6.8157 5.63723C7.43778 5.50615 8.05985 5.37506 8.68193 5.14566C9.04208 5.01457 9.10756 5.14566 9.17304 5.4406C9.43497 6.55483 9.76238 7.6363 10.0243 8.75053C10.0898 9.07824 10.2535 9.30764 10.5482 9.4715C11.5304 10.0286 12.4799 10.5857 13.4294 11.1756C13.7568 11.3722 13.855 11.3067 13.855 10.9462C13.855 9.79922 13.855 8.61944 13.855 7.47244C13.855 7.14472 13.6913 6.98086 13.4948 6.78424C12.7091 5.99772 11.956 5.2112 11.1375 4.45746C10.8428 4.16251 10.8428 3.99866 11.1375 3.70371C11.5631 3.34322 11.956 2.94997 12.3162 2.52394C12.6108 2.22899 12.7745 2.16345 13.1019 2.52394C13.6585 3.1466 14.3134 3.70371 14.9027 4.32637C15.1646 4.58854 15.2956 4.55577 15.5248 4.32637C16.1469 3.67094 16.8017 3.08105 17.4237 2.42562C17.6202 2.19622 17.7839 2.22899 17.9803 2.42562C18.4387 2.91719 18.8971 3.376 19.3882 3.8348C19.6174 4.0642 19.5519 4.19528 19.3555 4.39191C18.5697 5.17843 17.7839 5.96495 16.9654 6.75146C16.7034 7.01364 16.5725 7.27581 16.5725 7.66907C16.6052 8.7833 16.5725 9.86476 16.5725 10.979C16.5725 11.2739 16.638 11.405 16.9654 11.2084C17.9803 10.6185 18.9953 10.0286 20.0103 9.40596C20.2395 9.27487 20.3049 9.11101 20.3704 8.84884C20.6324 7.73461 20.9598 6.62038 21.2544 5.50615C21.3199 5.2112 21.3854 5.01457 21.7783 5.17843C22.3676 5.40783 23.0224 5.53892 23.6445 5.67C23.9719 5.73555 24.0374 5.86663 23.9392 6.19435C23.71 7.01364 23.5135 7.83292 23.2844 8.65221C23.1534 9.07824 23.2844 9.2421 23.71 9.34041C24.5285 9.53704 25.3143 9.76645 26.1001 9.9303C26.5257 10.0286 26.5584 10.2252 26.4602 10.553C26.2965 11.1101 26.1328 11.6672 26.0019 12.2243C25.9364 12.6503 25.7727 12.7159 25.3798 12.6176C24.3321 12.3226 23.2516 12.0605 22.2039 11.7655C21.8438 11.6672 21.5491 11.7 21.2217 11.8966C20.2395 12.4209 19.159 13.0108 17.9803 13.699Z" fill="white"/>
<path d="M36.2497 14.4857C36.2497 16.7142 36.2497 18.9426 36.2497 21.1383C36.2497 21.4988 36.348 21.7938 36.6099 22.0887C38.9672 24.7104 39.6548 27.7582 38.4761 31.0681C37.2974 34.4108 34.8419 36.3771 31.3059 36.9014C26.4602 37.5896 22.0729 34.2797 21.3199 29.3968C21.0907 27.8893 21.2872 26.4473 21.7783 25.0054C21.9092 24.6449 22.0075 24.5466 22.3676 24.7432C22.9242 25.0381 23.4808 25.2675 24.0701 25.4969C24.3975 25.628 24.4303 25.7591 24.2993 26.0868C22.9242 30.216 25.8709 34.3125 30.1927 34.2797C32.6482 34.2469 34.9401 32.6739 35.8241 30.3799C36.7409 28.0203 36.1843 25.3659 34.2853 23.6617C33.6959 23.1374 33.4668 22.613 33.4668 21.7938C33.4995 17.3696 33.4013 12.9127 33.4995 8.48851C33.565 5.57185 30.4873 3.70387 28.13 5.37522C27.8681 5.57185 27.7371 5.47353 27.5734 5.2769C27.1805 4.78533 26.7876 4.29376 26.362 3.86773C26.0673 3.57278 26.1328 3.4417 26.4275 3.2123C29.4396 1.0166 33.7942 2.03252 35.5294 5.37522C35.9551 6.22728 36.217 7.11211 36.217 8.06248C36.2497 10.1599 36.2497 12.3228 36.2497 14.4857Z" fill="white"/>
<path d="M28.7194 18.2217C28.7194 16.3537 28.7194 14.4858 28.7194 12.6178C28.7194 12.2245 28.8176 12.0607 29.2432 12.0934C29.7016 12.1262 30.1927 12.0934 30.6838 12.0934C31.5023 12.0934 31.5023 12.0934 31.5023 12.88C31.5023 16.321 31.5023 19.762 31.5023 23.203C31.5023 23.8584 31.6006 24.2844 32.2881 24.6449C33.9252 25.5298 34.6127 27.5288 34.0561 29.2985C33.5323 31.0354 31.8298 32.2479 30.0618 32.2152C28.1628 32.1496 26.5257 30.8387 26.1328 29.0035C25.7072 27.2011 26.5912 25.3004 28.261 24.4811C28.6539 24.2844 28.7849 24.055 28.7849 23.629C28.7194 21.8266 28.7194 20.0241 28.7194 18.2217ZM30.0945 26.7751C29.276 26.7751 28.7194 27.3322 28.7521 28.1187C28.7521 28.8397 29.3742 29.4623 30.0945 29.4623C30.8148 29.4623 31.4696 28.8069 31.4696 28.0532C31.4369 27.3322 30.8475 26.7751 30.0945 26.7751Z" fill="white"/>
</g>
</g>
<defs>
<clipPath id="clip0_173_527">
<rect width="43" height="55" fill="white"/>
</clipPath>
<clipPath id="clip1_173_527">
<rect width="35" height="35" fill="white" transform="translate(4 2)"/>
</clipPath>
</defs>
</svg>
