<svg width="56" height="55" viewBox="0 0 56 55" fill="none" xmlns="http://www.w3.org/2000/svg">
<path d="M19.442 47.752C20.186 47.884 20.786 48.244 21.242 48.832C21.71 49.408 21.944 50.116 21.944 50.956C21.944 51.52 21.83 52.03 21.602 52.486C21.386 52.942 21.074 53.326 20.666 53.638C20.27 53.962 19.784 54.208 19.208 54.376C18.632 54.556 17.984 54.646 17.264 54.646C16.352 54.646 15.542 54.496 14.834 54.196C14.138 53.908 13.556 53.482 13.088 52.918L14.456 51.208C14.768 51.604 15.14 51.91 15.572 52.126C16.004 52.342 16.544 52.45 17.192 52.45C17.924 52.45 18.482 52.306 18.866 52.018C19.25 51.73 19.442 51.286 19.442 50.686C19.442 50.062 19.22 49.582 18.776 49.246C18.332 48.91 17.66 48.742 16.76 48.742H16.256V46.942H16.814C17.558 46.942 18.134 46.78 18.542 46.456C18.95 46.12 19.154 45.694 19.154 45.178C19.154 44.686 18.986 44.32 18.65 44.08C18.314 43.84 17.876 43.72 17.336 43.72C16.784 43.72 16.286 43.846 15.842 44.098C15.41 44.35 15.056 44.704 14.78 45.16L13.268 43.468C13.448 43.192 13.688 42.946 13.988 42.73C14.288 42.502 14.624 42.31 14.996 42.154C15.38 41.986 15.794 41.86 16.238 41.776C16.682 41.68 17.138 41.632 17.606 41.632C18.218 41.632 18.776 41.71 19.28 41.866C19.784 42.022 20.216 42.238 20.576 42.514C20.948 42.79 21.23 43.126 21.422 43.522C21.626 43.906 21.728 44.338 21.728 44.818C21.728 45.178 21.674 45.52 21.566 45.844C21.458 46.168 21.302 46.462 21.098 46.726C20.894 46.99 20.648 47.212 20.36 47.392C20.084 47.572 19.778 47.692 19.442 47.752ZM29.3531 44.638V46.582H27.4991V48.616H25.3211V46.582H23.4671V44.638H25.3211V42.604H27.4991V44.638H29.3531ZM42.9815 49.822V52H35.6735V49.822H38.2295V44.368C38.1215 44.512 37.9475 44.662 37.7075 44.818C37.4795 44.962 37.2275 45.1 36.9515 45.232C36.6755 45.364 36.3875 45.472 36.0875 45.556C35.7995 45.64 35.5415 45.682 35.3135 45.682V43.432C35.5295 43.432 35.7935 43.366 36.1055 43.234C36.4175 43.09 36.7235 42.922 37.0235 42.73C37.3235 42.538 37.5815 42.352 37.7975 42.172C38.0255 41.98 38.1695 41.83 38.2295 41.722H40.6955V49.822H42.9815Z" fill="white"/>
<g clip-path="url(#clip0_173_346)">
<path d="M38.3668 35.9968H34.8871C33.603 35.9968 32.5583 34.8265 32.5583 33.3883V27.6446C31.5312 27.3732 30.7653 26.3386 30.7653 25.1069V17.5272C30.7653 16.0889 31.81 14.9175 33.0951 14.9175H40.1608C41.447 14.9175 42.4917 16.0889 42.4917 17.5272V25.0837C42.4917 26.3154 41.7288 27.35 40.7017 27.6214V33.3883C40.6976 34.8265 39.6519 35.9968 38.3668 35.9968ZM33.0951 17.2372C32.9238 17.2372 32.835 17.3833 32.835 17.5272V25.1069C32.835 25.2611 32.9568 25.3945 33.0951 25.3945H34.628V33.3883C34.628 33.5448 34.7446 33.6771 34.8871 33.6771H38.3668C38.5082 33.6771 38.6269 33.5448 38.6269 33.3883V25.3725H40.1577C40.3012 25.3725 40.4179 25.2414 40.4179 25.0837V17.5272C40.4179 17.3694 40.3012 17.2372 40.1577 17.2372H33.0951Z" fill="white"/>
<path d="M36.6172 16.0307C34.3906 16.0307 32.579 14.0056 32.579 11.5153C32.579 9.02512 34.3906 7 36.6172 7C38.8437 7 40.6553 9.02628 40.6553 11.5165C40.6553 14.0067 38.8437 16.0307 36.6172 16.0307ZM36.6172 9.31972C35.5323 9.31972 34.6497 10.3056 34.6497 11.5165C34.6497 12.7274 35.5323 13.7121 36.6172 13.7121C37.7031 13.7121 38.5847 12.7274 38.5847 11.5165C38.5847 10.3056 37.7031 9.31972 36.6172 9.31972Z" fill="white"/>
<path d="M24.4728 35.9968H20.9931C19.7079 35.9968 18.6612 34.8265 18.6612 33.3883V27.6446C17.6362 27.3721 16.8703 26.3386 16.8703 25.1069V17.5272C16.8703 16.0889 17.9149 14.9175 19.2001 14.9175H26.2648C27.551 14.9175 28.5966 16.0889 28.5966 17.5272V25.0837C28.5966 26.3154 27.8328 27.3489 26.8057 27.6214V33.3883C26.8036 34.8265 25.7579 35.9968 24.4728 35.9968ZM19.2001 17.2372C19.0298 17.2372 18.941 17.3833 18.941 17.5272V25.1069C18.941 25.2611 19.0628 25.3945 19.2001 25.3945H20.733V33.3883C20.733 33.5448 20.8527 33.6771 20.9931 33.6771H24.4728C24.6142 33.6771 24.734 33.5448 24.734 33.3883V25.3725H26.2637C26.4052 25.3725 26.5259 25.2414 26.5259 25.0837V17.5272C26.5259 17.3694 26.4052 17.2372 26.2637 17.2372H19.2001Z" fill="white"/>
<path d="M22.721 16.0307C20.4955 16.0307 18.6839 14.0056 18.6839 11.5153C18.6839 9.02512 20.4955 7 22.721 7C24.9486 7 26.7612 9.02628 26.7612 11.5165C26.7612 14.0067 24.9486 16.0307 22.721 16.0307ZM22.721 9.31972C21.6372 9.31972 20.7546 10.3056 20.7546 11.5165C20.7546 12.7274 21.6372 13.7121 22.7221 13.7121C23.808 13.7121 24.6916 12.7274 24.6916 11.5165C24.6916 10.3056 23.8069 9.31972 22.721 9.31972Z" fill="white"/>
<path d="M10.6025 35.9968H7.1228C5.83765 35.9968 4.79301 34.8265 4.79301 33.3883V27.6446C3.76593 27.3732 3 26.3386 3 25.1069V17.5272C3 16.0889 4.0467 14.9175 5.32978 14.9175H12.3966C13.6827 14.9175 14.7284 16.0889 14.7284 17.5272V25.0837C14.7284 26.3154 13.9625 27.3489 12.9354 27.6214V33.3883C12.9333 34.8265 11.8866 35.9968 10.6025 35.9968ZM5.32875 17.2372C5.15843 17.2372 5.06966 17.3833 5.06966 17.5272V25.1069C5.06966 25.2611 5.19146 25.3945 5.32875 25.3945H6.86164V33.3883C6.86267 33.5448 6.98138 33.6771 7.1228 33.6771H10.6025C10.7439 33.6771 10.8637 33.5448 10.8637 33.3883V25.3725H12.3945C12.5359 25.3725 12.6567 25.2414 12.6567 25.0837V17.5272C12.6567 17.3694 12.5359 17.2372 12.3945 17.2372H5.32875Z" fill="white"/>
<path d="M8.84974 16.0307C6.62628 16.0307 4.81262 14.0056 4.81262 11.5153C4.81262 9.02512 6.62525 7 8.84974 7C11.0773 7 12.89 9.02628 12.89 11.5165C12.89 14.0067 11.0784 16.0307 8.84974 16.0307ZM8.84974 9.31972C7.76588 9.31972 6.88537 10.3056 6.88537 11.5165C6.88537 12.7274 7.76691 13.7121 8.85077 13.7121C9.93876 13.7121 10.8203 12.7274 10.8203 11.5165C10.8203 10.3056 9.9367 9.31972 8.84974 9.31972Z" fill="white"/>
<path d="M49.9632 36H47.5942C46.5929 36 45.7784 35.0872 45.7784 33.968V30.2506C45.0683 29.9746 44.5552 29.2183 44.5552 28.3322V23.1685C44.5552 22.0469 45.3676 21.1353 46.371 21.1353H51.1833C52.1835 21.1353 52.999 22.0469 52.999 23.1685V28.316C52.999 29.2067 52.487 29.9606 51.7748 30.2344V33.9749C51.7768 35.0872 50.9624 36 49.9632 36ZM46.7106 28.273H47.6396V33.968L49.9095 33.9111V28.2545H51.1781L51.1296 22.5897L46.3679 22.6454L46.4184 28.3287L46.7106 28.273Z" fill="white"/>
<path d="M48.7709 22.3592C46.9376 22.3592 45.4398 20.6902 45.4398 18.6372C45.4398 16.5843 46.9335 14.9141 48.7709 14.9141C50.6052 14.9141 52.1009 16.5843 52.1009 18.6372C52.1009 20.6902 50.6062 22.3592 48.7709 22.3592ZM48.7709 17.003C47.9647 17.003 47.3051 17.736 47.3051 18.6372C47.3051 19.5373 47.9647 20.2703 48.7709 20.2703C49.5771 20.2703 50.2346 19.5373 50.2346 18.6372C50.2346 17.736 49.5802 17.003 48.7709 17.003Z" fill="white"/>
</g>
<defs>
<clipPath id="clip0_173_346">
<rect width="50" height="29" fill="white" transform="translate(3 7)"/>
</clipPath>
</defs>
</svg>
