<svg width="57" height="55" viewBox="0 0 57 55" fill="none" xmlns="http://www.w3.org/2000/svg">
<g clip-path="url(#clip0_173_520)">
<path d="M10.7804 45.726C10.7804 46.518 10.6604 47.25 10.4204 47.922C10.1924 48.582 9.86835 49.158 9.44835 49.65C9.04035 50.13 8.54835 50.508 7.97235 50.784C7.40835 51.048 6.79635 51.18 6.13635 51.18C5.46435 51.18 4.84635 51.048 4.28235 50.784C3.71835 50.508 3.22635 50.13 2.80635 49.65C2.39835 49.158 2.07435 48.582 1.83435 47.922C1.60635 47.25 1.49235 46.518 1.49235 45.726C1.49235 44.934 1.60635 44.208 1.83435 43.548C2.07435 42.876 2.39835 42.3 2.80635 41.82C3.22635 41.328 3.71835 40.944 4.28235 40.668C4.84635 40.392 5.46435 40.254 6.13635 40.254C6.79635 40.254 7.40835 40.392 7.97235 40.668C8.54835 40.944 9.04035 41.328 9.44835 41.82C9.86835 42.3 10.1924 42.876 10.4204 43.548C10.6604 44.208 10.7804 44.934 10.7804 45.726ZM8.35035 45.726C8.35035 45.246 8.29635 44.808 8.18835 44.412C8.08035 44.004 7.92435 43.656 7.72035 43.368C7.52835 43.08 7.29435 42.858 7.01835 42.702C6.75435 42.546 6.46035 42.468 6.13635 42.468C5.80035 42.468 5.49435 42.546 5.21835 42.702C4.95435 42.858 4.72035 43.08 4.51635 43.368C4.32435 43.656 4.17435 44.004 4.06635 44.412C3.95835 44.808 3.90435 45.246 3.90435 45.726C3.90435 46.206 3.95835 46.644 4.06635 47.04C4.17435 47.436 4.32435 47.778 4.51635 48.066C4.72035 48.354 4.95435 48.576 5.21835 48.732C5.49435 48.888 5.80035 48.966 6.13635 48.966C6.46035 48.966 6.75435 48.888 7.01835 48.732C7.29435 48.576 7.52835 48.354 7.72035 48.066C7.92435 47.778 8.08035 47.436 8.18835 47.04C8.29635 46.644 8.35035 46.206 8.35035 45.726ZM12.711 51V48.408H14.691V51H12.711ZM20.93 45.258C21.53 45.258 22.088 45.36 22.604 45.564C23.12 45.756 23.564 46.032 23.936 46.392C24.308 46.752 24.596 47.184 24.8 47.688C25.016 48.192 25.124 48.75 25.124 49.362C25.124 50.01 25.004 50.598 24.764 51.126C24.536 51.654 24.212 52.104 23.792 52.476C23.372 52.86 22.874 53.154 22.298 53.358C21.722 53.574 21.098 53.682 20.426 53.682C19.49 53.682 18.65 53.484 17.906 53.088C17.174 52.692 16.616 52.152 16.232 51.468L17.618 50.028C17.954 50.496 18.374 50.868 18.878 51.144C19.382 51.42 19.904 51.558 20.444 51.558C21.092 51.558 21.62 51.366 22.028 50.982C22.448 50.586 22.658 50.064 22.658 49.416C22.658 48.792 22.46 48.288 22.064 47.904C21.68 47.52 21.188 47.328 20.588 47.328C20.192 47.328 19.82 47.418 19.472 47.598C19.136 47.778 18.866 48.024 18.662 48.336H16.556C16.556 48.3 16.58 48.168 16.628 47.94C16.676 47.7 16.736 47.4 16.808 47.04C16.88 46.668 16.958 46.26 17.042 45.816C17.126 45.36 17.216 44.898 17.312 44.43C17.528 43.326 17.768 42.09 18.032 40.722H24.332V42.918H19.778L19.256 45.78C19.4 45.624 19.61 45.498 19.886 45.402C20.174 45.306 20.522 45.258 20.93 45.258ZM35.8828 46.734C35.8828 47.358 35.7628 47.94 35.5228 48.48C35.2828 49.02 34.9528 49.494 34.5328 49.902C34.1128 50.298 33.6148 50.61 33.0388 50.838C32.4748 51.066 31.8628 51.18 31.2028 51.18C30.4828 51.18 29.8288 51.048 29.2408 50.784C28.6648 50.52 28.1728 50.136 27.7648 49.632C27.3568 49.128 27.0448 48.516 26.8288 47.796C26.6128 47.064 26.5048 46.236 26.5048 45.312C26.5048 44.148 26.6188 43.122 26.8468 42.234C27.0748 41.334 27.4048 40.584 27.8368 39.984C28.2688 39.372 28.7908 38.91 29.4028 38.598C30.0148 38.286 30.6988 38.13 31.4548 38.13C32.2588 38.13 32.9968 38.304 33.6688 38.652C34.3528 39 34.9288 39.498 35.3968 40.146L34.0108 41.658C33.7228 41.202 33.3508 40.848 32.8948 40.596C32.4388 40.344 31.9468 40.218 31.4188 40.218C30.6148 40.218 29.9728 40.536 29.4928 41.172C29.0128 41.808 28.7608 42.708 28.7368 43.872C28.9888 43.44 29.3428 43.098 29.7988 42.846C30.2668 42.594 30.8068 42.468 31.4188 42.468C32.0428 42.468 32.6248 42.576 33.1648 42.792C33.7168 43.008 34.1908 43.308 34.5868 43.692C34.9948 44.076 35.3128 44.532 35.5408 45.06C35.7688 45.576 35.8828 46.134 35.8828 46.734ZM31.2208 49.146C31.5328 49.146 31.8328 49.086 32.1208 48.966C32.4088 48.834 32.6608 48.66 32.8768 48.444C33.0928 48.216 33.2608 47.958 33.3808 47.67C33.5128 47.37 33.5788 47.058 33.5788 46.734C33.5788 46.41 33.5128 46.11 33.3808 45.834C33.2608 45.546 33.0928 45.294 32.8768 45.078C32.6608 44.862 32.4088 44.694 32.1208 44.574C31.8448 44.454 31.5448 44.394 31.2208 44.394C30.8968 44.394 30.5908 44.454 30.3028 44.574C30.0148 44.694 29.7628 44.862 29.5468 45.078C29.3308 45.294 29.1628 45.546 29.0428 45.834C28.9228 46.11 28.8628 46.41 28.8628 46.734C28.8628 47.058 28.9228 47.37 29.0428 47.67C29.1748 47.958 29.3488 48.21 29.5648 48.426C29.7808 48.642 30.0268 48.816 30.3028 48.948C30.5908 49.08 30.8968 49.146 31.2208 49.146ZM47.8466 41.568H50.4386L46.7666 46.14L50.7266 51H47.9906L45.0746 47.364H44.4446V51H42.0686V41.568H44.4446V45.312H44.9846L47.8466 41.568ZM58.1077 43.566H54.1657V51H51.7717V41.568H58.1077V43.566Z" fill="white"/>
<g clip-path="url(#clip1_173_520)">
<path d="M43.1513 30.285L40.2813 16.354C40.2232 13.472 37.9884 11.11 35.2477 11.11H34.1721C35.2674 10.11 35.9458 8.342 35.9458 6.558C35.9449 2.933 33.1526 0 29.7223 0C26.291 0 23.4988 2.923 23.4988 6.549C23.4988 8.333 24.1772 10.11 25.2716 11.11H23.926C21.1853 11.11 18.9487 13.472 18.8916 16.354L16.0216 30.267C16.0075 30.336 16 30.562 16 30.635C16 33.569 18.2591 36.111 21.0354 36.111H38.1365C40.9137 36.111 43.1728 33.578 43.1728 30.644C43.1728 30.571 43.1663 30.354 43.1513 30.285ZM25.3728 6.596C25.3728 4.066 27.3236 2.008 29.7223 2.008C32.1201 2.008 34.0709 4.066 34.0709 6.596C34.0709 9.126 32.1201 11.184 29.7223 11.184C27.3236 11.184 25.3728 9.126 25.3728 6.596ZM38.1365 34.11H21.0354C19.3245 34.11 17.9265 32.529 17.8749 30.739L20.7421 16.788C20.7571 16.719 20.7637 16.581 20.7637 16.509C20.7637 14.671 22.1823 13.111 23.9251 13.111H35.2468C36.9896 13.111 38.4073 14.637 38.4073 16.475C38.4073 16.546 38.4148 16.633 38.4288 16.703L41.297 30.732C41.2473 32.521 39.8493 34.11 38.1365 34.11Z" fill="white"/>
<path d="M29.7223 3.58203C28.151 3.58203 26.8729 4.93403 26.8729 6.59603C26.8729 8.25903 28.151 9.61103 29.7223 9.61103C31.2927 9.61103 32.5708 8.25803 32.5708 6.59603C32.5708 4.93403 31.2927 3.58203 29.7223 3.58203ZM29.7223 7.62203C29.1845 7.62203 28.7469 7.16203 28.7469 6.59603C28.7469 6.03003 29.1836 5.57003 29.7223 5.57003C30.2592 5.57003 30.6968 6.02903 30.6968 6.59503C30.6968 7.16103 30.2592 7.62203 29.7223 7.62203Z" fill="white"/>
<path d="M25.1344 25.2089H24.397V28.9749H22.6738V19.8989H24.397V23.6339H24.9985L27.1883 19.8989H29.319L26.4921 24.1259L29.5551 28.9759H27.3597L25.1344 25.2089Z" fill="white"/>
<path d="M29.8178 29.124H27.2814L25.056 25.358H24.5369V29.124H22.5327V19.749H24.5369V23.484H24.9202L27.1099 19.749H29.5911L26.663 24.127L29.8178 29.124ZM27.4369 28.825H29.2913L26.321 24.122L29.0467 20.048H27.2664L25.0767 23.783H24.2558V20.048H22.8129V28.825H24.2558V25.06H25.2116L27.4369 28.825Z" fill="white"/>
<path d="M36.6079 27.7331C36.3409 28.1041 35.9417 28.4241 35.4105 28.6971C34.8792 28.9681 34.1942 29.1041 33.3566 29.1041C32.3184 29.1041 31.4685 28.7601 30.807 28.0691C30.1464 27.3801 29.8157 26.4841 29.8157 25.3831V23.4901C29.8157 22.3921 30.1361 21.4971 30.778 20.8051C31.4198 20.1131 32.2434 19.7681 33.2507 19.7681C34.3011 19.7681 35.1059 20.0301 35.6644 20.5561C36.2238 21.0821 36.4936 21.7841 36.473 22.6601L36.4618 22.6971H34.8389C34.8389 22.2161 34.7068 21.8411 34.4435 21.5731C34.1802 21.3041 33.796 21.1711 33.2919 21.1711C32.7644 21.1711 32.339 21.3871 32.0167 21.8161C31.6943 22.2481 31.5322 22.8011 31.5322 23.4771V25.3841C31.5322 26.0701 31.6972 26.6291 32.0279 27.0621C32.3587 27.4941 32.8009 27.7081 33.3556 27.7081C33.766 27.7081 34.0893 27.6661 34.3273 27.5781C34.5653 27.4911 34.7489 27.3801 34.8783 27.2481V25.4901H33.2254V24.2311H36.607V27.7331H36.6079Z" fill="white"/>
<path d="M33.355 29.2541C32.2822 29.2541 31.3911 28.8921 30.7071 28.1761C30.0221 27.4611 29.6736 26.5211 29.6736 25.3841V23.4901C29.6736 22.3561 30.0109 21.4181 30.6762 20.7011C31.3414 19.9831 32.2072 19.6191 33.2492 19.6191C34.3314 19.6191 35.1756 19.8971 35.7565 20.4451C36.3459 21.0001 36.6345 21.7471 36.613 22.6641L36.5942 22.7421L36.5642 22.8461H34.6968V22.6971C34.6968 22.2541 34.5825 21.9221 34.3454 21.6801C34.1103 21.4411 33.7551 21.3201 33.2913 21.3201C32.805 21.3201 32.4237 21.5121 32.1257 21.9091C31.8249 22.3101 31.6722 22.8381 31.6722 23.4761V25.3831C31.6722 26.0301 31.8287 26.5641 32.1369 26.9671C32.4415 27.3641 32.8397 27.5581 33.355 27.5581C33.7495 27.5581 34.0606 27.5171 34.2808 27.4371C34.4719 27.3671 34.6247 27.2811 34.7362 27.1811V25.6401H33.0842V24.0821H36.7479V27.7841L36.7188 27.8241C36.4396 28.2111 36.0198 28.5511 35.4708 28.8311C34.9217 29.1111 34.2105 29.2541 33.355 29.2541ZM33.2492 19.9181C32.2859 19.9181 31.4876 20.2521 30.8767 20.9101C30.2648 21.5701 29.9547 22.4371 29.9547 23.4901V25.3841C29.9547 26.4391 30.2742 27.3061 30.9039 27.9631C31.5335 28.6221 32.3581 28.9551 33.355 28.9551C34.1674 28.9551 34.8383 28.8231 35.348 28.5621C35.8381 28.3111 36.2147 28.0161 36.4659 27.6821V24.3801H33.3653V25.3401H35.0182V27.3111L34.9751 27.3551C34.8308 27.5021 34.6284 27.6251 34.3717 27.7181C34.1177 27.8121 33.7861 27.8581 33.3541 27.8581C32.7582 27.8581 32.2747 27.6211 31.9177 27.1561C31.5672 26.6971 31.3902 26.1011 31.3902 25.3841V23.4771C31.3902 22.7701 31.5635 22.1791 31.9046 21.7231C32.255 21.2571 32.7207 21.0221 33.2904 21.0221C33.8292 21.0221 34.2489 21.1711 34.5385 21.4651C34.8008 21.7331 34.9479 22.0971 34.9732 22.5481H36.3319C36.3272 21.7631 36.0779 21.1481 35.5692 20.6691C35.0416 20.1711 34.2602 19.9181 33.2492 19.9181Z" fill="white"/>
</g>
</g>
<defs>
<clipPath id="clip0_173_520">
<rect width="57" height="55" fill="white"/>
</clipPath>
<clipPath id="clip1_173_520">
<rect width="27.1728" height="36.11" fill="white" transform="translate(16)"/>
</clipPath>
</defs>
</svg>
