<svg width="56" height="55" viewBox="0 0 56 55" fill="none" xmlns="http://www.w3.org/2000/svg">
<g clip-path="url(#clip0_173_316)">
<path d="M11.6964 48.726C11.6964 49.518 11.5764 50.25 11.3364 50.922C11.1084 51.582 10.7844 52.158 10.3644 52.65C9.95637 53.13 9.46437 53.508 8.88837 53.784C8.32437 54.048 7.71237 54.18 7.05237 54.18C6.38037 54.18 5.76237 54.048 5.19837 53.784C4.63437 53.508 4.14237 53.13 3.72237 52.65C3.31437 52.158 2.99037 51.582 2.75037 50.922C2.52237 50.25 2.40837 49.518 2.40837 48.726C2.40837 47.934 2.52237 47.208 2.75037 46.548C2.99037 45.876 3.31437 45.3 3.72237 44.82C4.14237 44.328 4.63437 43.944 5.19837 43.668C5.76237 43.392 6.38037 43.254 7.05237 43.254C7.71237 43.254 8.32437 43.392 8.88837 43.668C9.46437 43.944 9.95637 44.328 10.3644 44.82C10.7844 45.3 11.1084 45.876 11.3364 46.548C11.5764 47.208 11.6964 47.934 11.6964 48.726ZM9.26637 48.726C9.26637 48.246 9.21237 47.808 9.10437 47.412C8.99637 47.004 8.84037 46.656 8.63637 46.368C8.44437 46.08 8.21037 45.858 7.93437 45.702C7.67037 45.546 7.37637 45.468 7.05237 45.468C6.71637 45.468 6.41037 45.546 6.13437 45.702C5.87037 45.858 5.63637 46.08 5.43237 46.368C5.24037 46.656 5.09037 47.004 4.98237 47.412C4.87437 47.808 4.82037 48.246 4.82037 48.726C4.82037 49.206 4.87437 49.644 4.98237 50.04C5.09037 50.436 5.24037 50.778 5.43237 51.066C5.63637 51.354 5.87037 51.576 6.13437 51.732C6.41037 51.888 6.71637 51.966 7.05237 51.966C7.37637 51.966 7.67037 51.888 7.93437 51.732C8.21037 51.576 8.44437 51.354 8.63637 51.066C8.84037 50.778 8.99637 50.436 9.10437 50.04C9.21237 49.644 9.26637 49.206 9.26637 48.726ZM13.627 54V51.408H15.607V54H13.627ZM26.706 50.22C26.706 50.82 26.58 51.36 26.328 51.84C26.088 52.32 25.752 52.734 25.32 53.082C24.9 53.43 24.408 53.7 23.844 53.892C23.28 54.072 22.68 54.162 22.044 54.162C21.408 54.162 20.808 54.066 20.244 53.874C19.68 53.67 19.188 53.388 18.768 53.028C18.348 52.668 18.018 52.242 17.778 51.75C17.538 51.258 17.418 50.718 17.418 50.13C17.418 49.77 17.478 49.44 17.598 49.14C17.718 48.828 17.874 48.546 18.066 48.294C18.258 48.042 18.468 47.82 18.696 47.628C18.936 47.436 19.176 47.28 19.416 47.16C18.972 46.944 18.594 46.62 18.282 46.188C17.97 45.756 17.814 45.282 17.814 44.766C17.814 44.19 17.94 43.686 18.192 43.254C18.456 42.81 18.792 42.438 19.2 42.138C19.62 41.838 20.076 41.61 20.568 41.454C21.072 41.298 21.57 41.22 22.062 41.22C22.542 41.22 23.034 41.298 23.538 41.454C24.054 41.598 24.516 41.82 24.924 42.12C25.332 42.42 25.668 42.792 25.932 43.236C26.196 43.668 26.328 44.172 26.328 44.748C26.328 45 26.286 45.252 26.202 45.504C26.118 45.744 25.998 45.972 25.842 46.188C25.698 46.392 25.524 46.578 25.32 46.746C25.116 46.914 24.9 47.052 24.672 47.16C24.936 47.292 25.188 47.46 25.428 47.664C25.668 47.856 25.884 48.084 26.076 48.348C26.268 48.6 26.418 48.882 26.526 49.194C26.646 49.506 26.706 49.848 26.706 50.22ZM24.258 50.076C24.258 49.776 24.192 49.506 24.06 49.266C23.94 49.026 23.772 48.828 23.556 48.672C23.352 48.504 23.118 48.378 22.854 48.294C22.59 48.21 22.32 48.168 22.044 48.168C21.756 48.168 21.48 48.216 21.216 48.312C20.952 48.396 20.718 48.522 20.514 48.69C20.322 48.858 20.166 49.062 20.046 49.302C19.926 49.53 19.866 49.788 19.866 50.076C19.866 50.364 19.926 50.628 20.046 50.868C20.178 51.096 20.346 51.294 20.55 51.462C20.754 51.63 20.988 51.762 21.252 51.858C21.516 51.942 21.786 51.984 22.062 51.984C22.35 51.984 22.626 51.936 22.89 51.84C23.154 51.744 23.388 51.612 23.592 51.444C23.796 51.276 23.958 51.078 24.078 50.85C24.198 50.61 24.258 50.352 24.258 50.076ZM20.262 44.838C20.262 45.09 20.316 45.312 20.424 45.504C20.532 45.684 20.67 45.84 20.838 45.972C21.018 46.092 21.21 46.188 21.414 46.26C21.63 46.32 21.846 46.35 22.062 46.35C22.266 46.35 22.476 46.32 22.692 46.26C22.908 46.188 23.1 46.086 23.268 45.954C23.448 45.822 23.592 45.666 23.7 45.486C23.808 45.294 23.862 45.072 23.862 44.82C23.862 44.376 23.682 44.022 23.322 43.758C22.974 43.494 22.548 43.362 22.044 43.362C21.552 43.362 21.132 43.5 20.784 43.776C20.436 44.04 20.262 44.394 20.262 44.838ZM37.5693 50.22C37.5693 50.82 37.4433 51.36 37.1913 51.84C36.9513 52.32 36.6153 52.734 36.1833 53.082C35.7633 53.43 35.2713 53.7 34.7073 53.892C34.1433 54.072 33.5433 54.162 32.9073 54.162C32.2713 54.162 31.6713 54.066 31.1073 53.874C30.5433 53.67 30.0513 53.388 29.6313 53.028C29.2113 52.668 28.8813 52.242 28.6413 51.75C28.4013 51.258 28.2813 50.718 28.2813 50.13C28.2813 49.77 28.3413 49.44 28.4613 49.14C28.5813 48.828 28.7373 48.546 28.9293 48.294C29.1213 48.042 29.3313 47.82 29.5593 47.628C29.7993 47.436 30.0393 47.28 30.2793 47.16C29.8353 46.944 29.4573 46.62 29.1453 46.188C28.8333 45.756 28.6773 45.282 28.6773 44.766C28.6773 44.19 28.8033 43.686 29.0553 43.254C29.3193 42.81 29.6553 42.438 30.0633 42.138C30.4833 41.838 30.9393 41.61 31.4313 41.454C31.9353 41.298 32.4333 41.22 32.9253 41.22C33.4053 41.22 33.8973 41.298 34.4013 41.454C34.9173 41.598 35.3793 41.82 35.7873 42.12C36.1953 42.42 36.5313 42.792 36.7953 43.236C37.0593 43.668 37.1913 44.172 37.1913 44.748C37.1913 45 37.1493 45.252 37.0653 45.504C36.9813 45.744 36.8613 45.972 36.7053 46.188C36.5613 46.392 36.3873 46.578 36.1833 46.746C35.9793 46.914 35.7633 47.052 35.5353 47.16C35.7993 47.292 36.0513 47.46 36.2913 47.664C36.5313 47.856 36.7473 48.084 36.9393 48.348C37.1313 48.6 37.2813 48.882 37.3893 49.194C37.5093 49.506 37.5693 49.848 37.5693 50.22ZM35.1213 50.076C35.1213 49.776 35.0553 49.506 34.9233 49.266C34.8033 49.026 34.6353 48.828 34.4193 48.672C34.2153 48.504 33.9813 48.378 33.7173 48.294C33.4533 48.21 33.1833 48.168 32.9073 48.168C32.6193 48.168 32.3433 48.216 32.0793 48.312C31.8153 48.396 31.5813 48.522 31.3773 48.69C31.1853 48.858 31.0293 49.062 30.9093 49.302C30.7893 49.53 30.7293 49.788 30.7293 50.076C30.7293 50.364 30.7893 50.628 30.9093 50.868C31.0413 51.096 31.2093 51.294 31.4133 51.462C31.6173 51.63 31.8513 51.762 32.1153 51.858C32.3793 51.942 32.6493 51.984 32.9253 51.984C33.2133 51.984 33.4893 51.936 33.7533 51.84C34.0173 51.744 34.2513 51.612 34.4553 51.444C34.6593 51.276 34.8213 51.078 34.9413 50.85C35.0613 50.61 35.1213 50.352 35.1213 50.076ZM31.1253 44.838C31.1253 45.09 31.1793 45.312 31.2873 45.504C31.3953 45.684 31.5333 45.84 31.7013 45.972C31.8813 46.092 32.0733 46.188 32.2773 46.26C32.4933 46.32 32.7093 46.35 32.9253 46.35C33.1293 46.35 33.3393 46.32 33.5553 46.26C33.7713 46.188 33.9633 46.086 34.1313 45.954C34.3113 45.822 34.4553 45.666 34.5633 45.486C34.6713 45.294 34.7253 45.072 34.7253 44.82C34.7253 44.376 34.5453 44.022 34.1853 43.758C33.8373 43.494 33.4113 43.362 32.9073 43.362C32.4153 43.362 31.9953 43.5 31.6473 43.776C31.2993 44.04 31.1253 44.394 31.1253 44.838ZM49.0848 49.59L51.8748 44.568H54.3408V54H52.0368V48.33L49.6428 52.578H48.5088L46.1148 48.33V54H43.8108V44.568H46.2948L49.0848 49.59Z" fill="white"/>
<g clip-path="url(#clip1_173_316)">
<path d="M29.9845 1.04462C29.9845 0.494345 29.5754 0 29.0673 0H19.8659C19.3579 0 19 0.494345 19 1.04462V35.9064C19 36.4577 19.3579 36.9511 19.8659 36.9511H29.0673C29.5754 36.9511 29.9845 36.4577 29.9845 35.9064V1.04462ZM20.8308 34.9537V1.99735H28.1538V3.99471H24.5628C24.0547 3.99471 23.6428 4.44312 23.6428 4.99339C23.6428 5.54366 24.0547 5.99206 24.5628 5.99206H28.1538V8.9881H26.518C26.01 8.9881 25.598 9.4365 25.598 9.98677C25.598 10.537 26.01 10.9855 26.518 10.9855H28.1538V12.9828H26.518C26.01 12.9828 25.598 13.4312 25.598 13.9815C25.598 14.5318 26.01 14.9802 26.518 14.9802H28.1538V17.9762H24.5628C24.0547 17.9762 23.6428 18.4246 23.6428 18.9749C23.6428 19.5251 24.0547 19.9735 24.5628 19.9735H28.1538V22.9696H26.518C26.01 22.9696 25.598 23.418 25.598 23.9683C25.598 24.5185 26.01 24.9669 26.518 24.9669H28.1538V26.9643H26.518C26.01 26.9643 25.598 27.4127 25.598 27.963C25.598 28.5132 26.01 28.9616 26.518 28.9616H28.1538V30.959H24.5628C24.0547 30.959 23.6428 31.4074 23.6428 31.9577C23.6428 32.5089 24.0547 32.9564 24.5628 32.9564H28.1538V34.9537H20.8308Z" fill="white"/>
<path d="M39.6985 3.70299L36.8636 0.804826C36.686 0.622068 36.4489 0.521202 36.2027 0.533186C35.9574 0.541175 35.7258 0.655024 35.5592 0.848768L32.8597 3.97463C32.5128 4.3771 32.533 5.00726 32.9037 5.38276C33.0804 5.56253 33.3055 5.65141 33.5316 5.65141C33.7779 5.65141 34.0516 5.54555 34.2346 5.33583L35.4768 3.93169V36.0032C35.4768 36.5545 35.8832 36.9999 36.3922 36.9999C36.9011 36.9999 37.3076 36.5545 37.3076 36.0032V3.94567L38.4609 5.15207C38.8308 5.53057 39.401 5.51159 39.748 5.11112C40.0986 4.71165 40.0683 4.08049 39.6985 3.70299Z" fill="white"/>
</g>
</g>
<defs>
<clipPath id="clip0_173_316">
<rect width="56" height="55" fill="white"/>
</clipPath>
<clipPath id="clip1_173_316">
<rect width="20.9942" height="37" fill="white" transform="translate(19)"/>
</clipPath>
</defs>
</svg>
