<svg width="52" height="55" viewBox="0 0 52 55" fill="none" xmlns="http://www.w3.org/2000/svg">
<g clip-path="url(#clip0_173_551)">
<path d="M10.0323 45.726C10.0323 46.518 9.9123 47.25 9.6723 47.922C9.44431 48.582 9.12031 49.158 8.70031 49.65C8.29231 50.13 7.8003 50.508 7.2243 50.784C6.6603 51.048 6.0483 51.18 5.3883 51.18C4.7163 51.18 4.0983 51.048 3.5343 50.784C2.9703 50.508 2.4783 50.13 2.0583 49.65C1.6503 49.158 1.3263 48.582 1.0863 47.922C0.858305 47.25 0.744305 46.518 0.744305 45.726C0.744305 44.934 0.858305 44.208 1.0863 43.548C1.3263 42.876 1.6503 42.3 2.0583 41.82C2.4783 41.328 2.9703 40.944 3.5343 40.668C4.0983 40.392 4.7163 40.254 5.3883 40.254C6.0483 40.254 6.6603 40.392 7.2243 40.668C7.8003 40.944 8.29231 41.328 8.70031 41.82C9.12031 42.3 9.44431 42.876 9.6723 43.548C9.9123 44.208 10.0323 44.934 10.0323 45.726ZM7.6023 45.726C7.6023 45.246 7.5483 44.808 7.44031 44.412C7.33231 44.004 7.17631 43.656 6.9723 43.368C6.7803 43.08 6.5463 42.858 6.2703 42.702C6.0063 42.546 5.71231 42.468 5.3883 42.468C5.0523 42.468 4.7463 42.546 4.4703 42.702C4.2063 42.858 3.9723 43.08 3.7683 43.368C3.5763 43.656 3.4263 44.004 3.3183 44.412C3.2103 44.808 3.1563 45.246 3.1563 45.726C3.1563 46.206 3.2103 46.644 3.3183 47.04C3.4263 47.436 3.5763 47.778 3.7683 48.066C3.9723 48.354 4.2063 48.576 4.4703 48.732C4.7463 48.888 5.0523 48.966 5.3883 48.966C5.71231 48.966 6.0063 48.888 6.2703 48.732C6.5463 48.576 6.7803 48.354 6.9723 48.066C7.17631 47.778 7.33231 47.436 7.44031 47.04C7.5483 46.644 7.6023 46.206 7.6023 45.726ZM11.9629 51V48.408H13.9429V51H11.9629ZM20.1819 45.258C20.7819 45.258 21.3399 45.36 21.8559 45.564C22.3719 45.756 22.8159 46.032 23.1879 46.392C23.5599 46.752 23.8479 47.184 24.0519 47.688C24.2679 48.192 24.3759 48.75 24.3759 49.362C24.3759 50.01 24.2559 50.598 24.0159 51.126C23.7879 51.654 23.4639 52.104 23.0439 52.476C22.6239 52.86 22.1259 53.154 21.5499 53.358C20.9739 53.574 20.3499 53.682 19.6779 53.682C18.7419 53.682 17.9019 53.484 17.1579 53.088C16.4259 52.692 15.8679 52.152 15.4839 51.468L16.8699 50.028C17.2059 50.496 17.6259 50.868 18.1299 51.144C18.6339 51.42 19.1559 51.558 19.6959 51.558C20.3439 51.558 20.8719 51.366 21.2799 50.982C21.6999 50.586 21.9099 50.064 21.9099 49.416C21.9099 48.792 21.7119 48.288 21.3159 47.904C20.9319 47.52 20.4399 47.328 19.8399 47.328C19.4439 47.328 19.0719 47.418 18.7239 47.598C18.3879 47.778 18.1179 48.024 17.9139 48.336H15.8079C15.8079 48.3 15.8319 48.168 15.8799 47.94C15.9279 47.7 15.9879 47.4 16.0599 47.04C16.1319 46.668 16.2099 46.26 16.2939 45.816C16.3779 45.36 16.4679 44.898 16.5639 44.43C16.7799 43.326 17.0199 42.09 17.2839 40.722H23.5839V42.918H19.0299L18.5079 45.78C18.6519 45.624 18.8619 45.498 19.1379 45.402C19.4259 45.306 19.7739 45.258 20.1819 45.258ZM30.1487 45.258C30.7487 45.258 31.3067 45.36 31.8227 45.564C32.3387 45.756 32.7827 46.032 33.1547 46.392C33.5267 46.752 33.8147 47.184 34.0187 47.688C34.2347 48.192 34.3427 48.75 34.3427 49.362C34.3427 50.01 34.2227 50.598 33.9827 51.126C33.7547 51.654 33.4307 52.104 33.0107 52.476C32.5907 52.86 32.0927 53.154 31.5167 53.358C30.9407 53.574 30.3167 53.682 29.6447 53.682C28.7087 53.682 27.8687 53.484 27.1247 53.088C26.3927 52.692 25.8347 52.152 25.4507 51.468L26.8367 50.028C27.1727 50.496 27.5927 50.868 28.0967 51.144C28.6007 51.42 29.1227 51.558 29.6627 51.558C30.3107 51.558 30.8387 51.366 31.2467 50.982C31.6667 50.586 31.8767 50.064 31.8767 49.416C31.8767 48.792 31.6787 48.288 31.2827 47.904C30.8987 47.52 30.4067 47.328 29.8067 47.328C29.4107 47.328 29.0387 47.418 28.6907 47.598C28.3547 47.778 28.0847 48.024 27.8807 48.336H25.7747C25.7747 48.3 25.7987 48.168 25.8467 47.94C25.8947 47.7 25.9547 47.4 26.0267 47.04C26.0987 46.668 26.1767 46.26 26.2607 45.816C26.3447 45.36 26.4347 44.898 26.5307 44.43C26.7467 43.326 26.9867 42.09 27.2507 40.722H33.5507V42.918H28.9967L28.4747 45.78C28.6187 45.624 28.8287 45.498 29.1047 45.402C29.3927 45.306 29.7407 45.258 30.1487 45.258ZM45.6277 46.59L48.4177 41.568H50.8837V51H48.5797V45.33L46.1857 49.578H45.0517L42.6577 45.33V51H40.3537V41.568H42.8377L45.6277 46.59ZM62.7488 46.59L65.5388 41.568H68.0048V51H65.7008V45.33L63.3068 49.578H62.1728L59.7788 45.33V51H57.4748V41.568H59.9588L62.7488 46.59Z" fill="white"/>
<g clip-path="url(#clip1_173_551)">
<path d="M44.2349 15.5747C44.8201 15.5747 45.3543 15.1335 45.3543 14.5057V3.13462C45.3543 2.50679 44.8201 2 44.2349 2H7.16337C6.57716 2 6.06104 2.50679 6.06104 3.13462V14.5057C6.06104 15.1335 6.57716 15.5747 7.16337 15.5747H44.2349ZM8.18499 4.26244H43.2303V13.3122H41.1064V8.93891C41.1064 8.31109 40.6295 7.80204 40.0444 7.80204C39.4592 7.80204 38.9824 8.31109 38.9824 8.93891V13.3122H35.7965V11.3563C35.7965 10.7285 35.3196 10.2195 34.7345 10.2195C34.1493 10.2195 33.6725 10.7285 33.6725 11.3563V13.3122H31.5485V11.3563C31.5485 10.7285 31.0717 10.2195 30.4866 10.2195C29.9014 10.2195 29.4246 10.7285 29.4246 11.3563V13.3122H26.2386V8.93891C26.2386 8.31109 25.7618 7.80204 25.1767 7.80204C24.5915 7.80204 24.1147 8.31109 24.1147 8.93891V13.3122H20.9287V11.3563C20.9287 10.7285 20.4519 10.2195 19.8668 10.2195C19.2816 10.2195 18.8048 10.7285 18.8048 11.3563V13.3122H16.6808V11.3563C16.6808 10.7285 16.204 10.2195 15.6188 10.2195C15.0337 10.2195 14.5569 10.7285 14.5569 11.3563V13.3122H12.4329V8.93891C12.4329 8.31109 11.9561 7.80204 11.3709 7.80204C10.7847 7.80204 10.309 8.31109 10.309 8.93891V13.3122H8.18499V4.26244V4.26244Z" fill="white"/>
<path d="M41.4074 27.6437L44.4893 24.1403C44.6837 23.9208 44.7899 23.6278 44.7771 23.3235C44.7686 23.0204 44.6475 22.7342 44.4426 22.5283L41.1175 19.1923C40.6906 18.7636 40.0205 18.7885 39.6212 19.2466C39.43 19.4649 39.3345 19.7432 39.3345 20.0226C39.3345 20.3269 39.447 20.6335 39.67 20.8586L41.1643 22.362H7.05986C6.47364 22.362 6 22.8643 6 23.4932C6 24.1222 6.47364 24.6245 7.05986 24.6245H41.1494L39.8665 26.0815C39.464 26.5385 39.4853 27.2602 39.9101 27.6889C40.3359 28.1222 41.005 28.0996 41.4074 27.6437Z" fill="white"/>
</g>
</g>
<defs>
<clipPath id="clip0_173_551">
<rect width="52" height="55" fill="white"/>
</clipPath>
<clipPath id="clip1_173_551">
<rect width="39.3538" height="26" fill="white" transform="translate(6 2)"/>
</clipPath>
</defs>
</svg>
