<svg width="52" height="55" viewBox="0 0 52 55" fill="none" xmlns="http://www.w3.org/2000/svg">
<g clip-path="url(#clip0_173_585)">
<path d="M9.1885 48.822V51H1.8805V48.822H4.4365V43.368C4.3285 43.512 4.1545 43.662 3.9145 43.818C3.6865 43.962 3.4345 44.1 3.1585 44.232C2.8825 44.364 2.5945 44.472 2.2945 44.556C2.0065 44.64 1.7485 44.682 1.5205 44.682V42.432C1.7365 42.432 2.0005 42.366 2.3125 42.234C2.6245 42.09 2.9305 41.922 3.2305 41.73C3.5305 41.538 3.7885 41.352 4.0045 41.172C4.2325 40.98 4.3765 40.83 4.4365 40.722H6.9025V48.822H9.1885ZM10.667 51V48.408H12.647V51H10.667ZM23.746 47.22C23.746 47.82 23.62 48.36 23.368 48.84C23.128 49.32 22.792 49.734 22.36 50.082C21.94 50.43 21.448 50.7 20.884 50.892C20.32 51.072 19.72 51.162 19.084 51.162C18.448 51.162 17.848 51.066 17.284 50.874C16.72 50.67 16.228 50.388 15.808 50.028C15.388 49.668 15.058 49.242 14.818 48.75C14.578 48.258 14.458 47.718 14.458 47.13C14.458 46.77 14.518 46.44 14.638 46.14C14.758 45.828 14.914 45.546 15.106 45.294C15.298 45.042 15.508 44.82 15.736 44.628C15.976 44.436 16.216 44.28 16.456 44.16C16.012 43.944 15.634 43.62 15.322 43.188C15.01 42.756 14.854 42.282 14.854 41.766C14.854 41.19 14.98 40.686 15.232 40.254C15.496 39.81 15.832 39.438 16.24 39.138C16.66 38.838 17.116 38.61 17.608 38.454C18.112 38.298 18.61 38.22 19.102 38.22C19.582 38.22 20.074 38.298 20.578 38.454C21.094 38.598 21.556 38.82 21.964 39.12C22.372 39.42 22.708 39.792 22.972 40.236C23.236 40.668 23.368 41.172 23.368 41.748C23.368 42 23.326 42.252 23.242 42.504C23.158 42.744 23.038 42.972 22.882 43.188C22.738 43.392 22.564 43.578 22.36 43.746C22.156 43.914 21.94 44.052 21.712 44.16C21.976 44.292 22.228 44.46 22.468 44.664C22.708 44.856 22.924 45.084 23.116 45.348C23.308 45.6 23.458 45.882 23.566 46.194C23.686 46.506 23.746 46.848 23.746 47.22ZM21.298 47.076C21.298 46.776 21.232 46.506 21.1 46.266C20.98 46.026 20.812 45.828 20.596 45.672C20.392 45.504 20.158 45.378 19.894 45.294C19.63 45.21 19.36 45.168 19.084 45.168C18.796 45.168 18.52 45.216 18.256 45.312C17.992 45.396 17.758 45.522 17.554 45.69C17.362 45.858 17.206 46.062 17.086 46.302C16.966 46.53 16.906 46.788 16.906 47.076C16.906 47.364 16.966 47.628 17.086 47.868C17.218 48.096 17.386 48.294 17.59 48.462C17.794 48.63 18.028 48.762 18.292 48.858C18.556 48.942 18.826 48.984 19.102 48.984C19.39 48.984 19.666 48.936 19.93 48.84C20.194 48.744 20.428 48.612 20.632 48.444C20.836 48.276 20.998 48.078 21.118 47.85C21.238 47.61 21.298 47.352 21.298 47.076ZM17.302 41.838C17.302 42.09 17.356 42.312 17.464 42.504C17.572 42.684 17.71 42.84 17.878 42.972C18.058 43.092 18.25 43.188 18.454 43.26C18.67 43.32 18.886 43.35 19.102 43.35C19.306 43.35 19.516 43.32 19.732 43.26C19.948 43.188 20.14 43.086 20.308 42.954C20.488 42.822 20.632 42.666 20.74 42.486C20.848 42.294 20.902 42.072 20.902 41.82C20.902 41.376 20.722 41.022 20.362 40.758C20.014 40.494 19.588 40.362 19.084 40.362C18.592 40.362 18.172 40.5 17.824 40.776C17.476 41.04 17.302 41.394 17.302 41.838ZM29.7493 45.258C30.3493 45.258 30.9073 45.36 31.4233 45.564C31.9393 45.756 32.3833 46.032 32.7553 46.392C33.1273 46.752 33.4153 47.184 33.6193 47.688C33.8353 48.192 33.9433 48.75 33.9433 49.362C33.9433 50.01 33.8233 50.598 33.5833 51.126C33.3553 51.654 33.0313 52.104 32.6113 52.476C32.1913 52.86 31.6933 53.154 31.1173 53.358C30.5413 53.574 29.9173 53.682 29.2453 53.682C28.3093 53.682 27.4693 53.484 26.7253 53.088C25.9933 52.692 25.4353 52.152 25.0513 51.468L26.4373 50.028C26.7733 50.496 27.1933 50.868 27.6973 51.144C28.2013 51.42 28.7233 51.558 29.2633 51.558C29.9113 51.558 30.4393 51.366 30.8473 50.982C31.2673 50.586 31.4773 50.064 31.4773 49.416C31.4773 48.792 31.2793 48.288 30.8833 47.904C30.4993 47.52 30.0073 47.328 29.4073 47.328C29.0113 47.328 28.6393 47.418 28.2913 47.598C27.9553 47.778 27.6853 48.024 27.4813 48.336H25.3753C25.3753 48.3 25.3993 48.168 25.4473 47.94C25.4953 47.7 25.5553 47.4 25.6273 47.04C25.6993 46.668 25.7773 46.26 25.8613 45.816C25.9453 45.36 26.0353 44.898 26.1313 44.43C26.3473 43.326 26.5873 42.09 26.8513 40.722H33.1513V42.918H28.5973L28.0753 45.78C28.2193 45.624 28.4293 45.498 28.7053 45.402C28.9933 45.306 29.3413 45.258 29.7493 45.258ZM45.2283 46.59L48.0183 41.568H50.4843V51H48.1803V45.33L45.7863 49.578H44.6523L42.2583 45.33V51H39.9543V41.568H42.4383L45.2283 46.59Z" fill="white"/>
<g clip-path="url(#clip1_173_585)">
<path d="M29.5108 0.959918C29.5108 0.454263 29.082 0 28.5496 0H18.9074C18.3751 0 18 0.454263 18 0.959918V32.9951C18 33.5017 18.3751 33.955 18.9074 33.955H28.5496C29.082 33.955 29.5108 33.5017 29.5108 32.9951V0.959918ZM19.9185 32.1196V1.83541H27.5923V3.67081H23.8293C23.2969 3.67081 22.8652 4.08286 22.8652 4.58852C22.8652 5.09417 23.2969 5.50622 23.8293 5.50622H27.5923V8.25933H25.8782C25.3458 8.25933 24.9141 8.67138 24.9141 9.17704C24.9141 9.68269 25.3458 10.0947 25.8782 10.0947H27.5923V11.9301H25.8782C25.3458 11.9301 24.9141 12.3422 24.9141 12.8478C24.9141 13.3535 25.3458 13.7656 25.8782 13.7656H27.5923V16.5187H23.8293C23.2969 16.5187 22.8652 16.9307 22.8652 17.4364C22.8652 17.942 23.2969 18.3541 23.8293 18.3541H27.5923V21.1072H25.8782C25.3458 21.1072 24.9141 21.5192 24.9141 22.0249C24.9141 22.5305 25.3458 22.9426 25.8782 22.9426H27.5923V24.778H25.8782C25.3458 24.778 24.9141 25.19 24.9141 25.6957C24.9141 26.2014 25.3458 26.6134 25.8782 26.6134H27.5923V28.4488H23.8293C23.2969 28.4488 22.8652 28.8609 22.8652 29.3665C22.8652 29.8731 23.2969 30.2842 23.8293 30.2842H27.5923V32.1196H19.9185Z" fill="white"/>
<path d="M39.6901 3.40293L36.7194 0.739755C36.5333 0.571815 36.2849 0.479127 36.0268 0.490139C35.7698 0.497481 35.5271 0.602099 35.3525 0.780134L32.5237 3.65255C32.1602 4.02238 32.1813 4.60145 32.5698 4.94651C32.7549 5.11169 32.9909 5.19337 33.2278 5.19337C33.4858 5.19337 33.7726 5.09609 33.9645 4.90338L35.2662 3.61308V33.0842C35.2662 33.5908 35.6921 34.0001 36.2254 34.0001C36.7587 34.0001 37.1846 33.5908 37.1846 33.0842V3.62593L38.3933 4.73452C38.7808 5.08233 39.3784 5.06489 39.7419 4.69689C40.1093 4.32981 40.0777 3.74982 39.6901 3.40293Z" fill="white"/>
</g>
</g>
<defs>
<clipPath id="clip0_173_585">
<rect width="52" height="55" fill="white"/>
</clipPath>
<clipPath id="clip1_173_585">
<rect width="22" height="34" fill="white" transform="translate(18)"/>
</clipPath>
</defs>
</svg>
