<svg width="41" height="55" viewBox="0 0 41 55" fill="none" xmlns="http://www.w3.org/2000/svg">
<g clip-path="url(#clip0_173_315)">
<path d="M5.22 46.258C5.82 46.258 6.378 46.36 6.894 46.564C7.41 46.756 7.854 47.032 8.226 47.392C8.598 47.752 8.886 48.184 9.09 48.688C9.306 49.192 9.414 49.75 9.414 50.362C9.414 51.01 9.294 51.598 9.054 52.126C8.826 52.654 8.502 53.104 8.082 53.476C7.662 53.86 7.164 54.154 6.588 54.358C6.012 54.574 5.388 54.682 4.716 54.682C3.78 54.682 2.94 54.484 2.196 54.088C1.464 53.692 0.906 53.152 0.522 52.468L1.908 51.028C2.244 51.496 2.664 51.868 3.168 52.144C3.672 52.42 4.194 52.558 4.734 52.558C5.382 52.558 5.91 52.366 6.318 51.982C6.738 51.586 6.948 51.064 6.948 50.416C6.948 49.792 6.75 49.288 6.354 48.904C5.97 48.52 5.478 48.328 4.878 48.328C4.482 48.328 4.11 48.418 3.762 48.598C3.426 48.778 3.156 49.024 2.952 49.336H0.846C0.846 49.3 0.87 49.168 0.918 48.94C0.966 48.7 1.026 48.4 1.098 48.04C1.17 47.668 1.248 47.26 1.332 46.816C1.416 46.36 1.506 45.898 1.602 45.43C1.818 44.326 2.058 43.09 2.322 41.722H8.622V43.918H4.068L3.546 46.78C3.69 46.624 3.9 46.498 4.176 46.402C4.464 46.306 4.812 46.258 5.22 46.258ZM11.0108 52V49.408H12.9908V52H11.0108ZM19.7828 43.702H13.9688V41.506H23.5808L17.2448 54.286H14.5088L19.7828 43.702ZM34.2869 47.59L37.0769 42.568H39.5429V52H37.2389V46.33L34.8449 50.578H33.7109L31.3169 46.33V52H29.0129V42.568H31.4969L34.2869 47.59Z" fill="white"/>
<g clip-path="url(#clip1_173_315)">
<path d="M38.2468 13.5747C38.8168 13.5747 39.3372 13.1335 39.3372 12.5057V1.13462C39.3372 0.506787 38.8168 0 38.2468 0H2.13282C1.56175 0 1.05896 0.506787 1.05896 1.13462V12.5057C1.05896 13.1335 1.56175 13.5747 2.13282 13.5747H38.2468ZM3.12805 2.26244H37.2681V11.3122H35.199V6.93891C35.199 6.31109 34.7345 5.80204 34.1645 5.80204C33.5944 5.80204 33.1299 6.31109 33.1299 6.93891V11.3122H30.0263V9.35634C30.0263 8.72851 29.5618 8.21946 28.9917 8.21946C28.4217 8.21946 27.9572 8.72851 27.9572 9.35634V11.3122H25.8881V9.35634C25.8881 8.72851 25.4236 8.21946 24.8535 8.21946C24.2835 8.21946 23.819 8.72851 23.819 9.35634V11.3122H20.7154V6.93891C20.7154 6.31109 20.2508 5.80204 19.6808 5.80204C19.1108 5.80204 18.6463 6.31109 18.6463 6.93891V11.3122H15.5426V9.35634C15.5426 8.72851 15.0781 8.21946 14.5081 8.21946C13.938 8.21946 13.4735 8.72851 13.4735 9.35634V11.3122H11.4044V9.35634C11.4044 8.72851 10.9399 8.21946 10.3699 8.21946C9.79985 8.21946 9.33534 8.72851 9.33534 9.35634V11.3122H7.26624V6.93891C7.26624 6.31109 6.80173 5.80204 6.23169 5.80204C5.66062 5.80204 5.19715 6.31109 5.19715 6.93891V11.3122H3.12805V2.26244V2.26244Z" fill="white"/>
<path d="M35.4928 25.6437L38.4951 22.1403C38.6844 21.9208 38.7879 21.6278 38.7754 21.3235C38.7672 21.0204 38.6492 20.7342 38.4496 20.5283L35.2104 17.1923C34.7945 16.7636 34.1417 16.7885 33.7527 17.2466C33.5665 17.4649 33.4734 17.7432 33.4734 18.0226C33.4734 18.3269 33.5831 18.6335 33.8003 18.8586L35.2559 20.362H2.03248C1.46141 20.362 1 20.8643 1 21.4932C1 22.1222 1.46141 22.6245 2.03248 22.6245H35.2414L33.9917 24.0815C33.5996 24.5385 33.6203 25.2602 34.0341 25.6889C34.449 26.1222 35.1007 26.0996 35.4928 25.6437Z" fill="white"/>
</g>
</g>
<defs>
<clipPath id="clip0_173_315">
<rect width="41" height="55" fill="white"/>
</clipPath>
<clipPath id="clip1_173_315">
<rect width="38.3372" height="26" fill="white" transform="translate(1)"/>
</clipPath>
</defs>
</svg>
