<svg width="50" height="55" viewBox="0 0 50 55" fill="none" xmlns="http://www.w3.org/2000/svg">
<g clip-path="url(#clip0_173_426)">
<path d="M9.0518 51.822V54H1.7438V51.822H4.2998V46.368C4.1918 46.512 4.0178 46.662 3.7778 46.818C3.5498 46.962 3.2978 47.1 3.0218 47.232C2.7458 47.364 2.4578 47.472 2.1578 47.556C1.8698 47.64 1.6118 47.682 1.3838 47.682V45.432C1.5998 45.432 1.8638 45.366 2.1758 45.234C2.4878 45.09 2.7938 44.922 3.0938 44.73C3.3938 44.538 3.6518 44.352 3.8678 44.172C4.0958 43.98 4.2398 43.83 4.2998 43.722H6.7658V51.822H9.0518ZM10.5303 54V51.408H12.5103V54H10.5303ZM21.9893 51.822V54H14.6813V51.822H17.2373V46.368C17.1293 46.512 16.9553 46.662 16.7153 46.818C16.4873 46.962 16.2353 47.1 15.9593 47.232C15.6833 47.364 15.3953 47.472 15.0953 47.556C14.8073 47.64 14.5493 47.682 14.3213 47.682V45.432C14.5373 45.432 14.8013 45.366 15.1133 45.234C15.4253 45.09 15.7313 44.922 16.0313 44.73C16.3313 44.538 16.5893 44.352 16.8053 44.172C17.0333 43.98 17.1773 43.83 17.2373 43.722H19.7033V51.822H21.9893ZM32.5038 50.22C32.5038 50.82 32.3778 51.36 32.1258 51.84C31.8858 52.32 31.5498 52.734 31.1178 53.082C30.6978 53.43 30.2058 53.7 29.6418 53.892C29.0778 54.072 28.4778 54.162 27.8418 54.162C27.2058 54.162 26.6058 54.066 26.0418 53.874C25.4778 53.67 24.9858 53.388 24.5658 53.028C24.1458 52.668 23.8158 52.242 23.5758 51.75C23.3358 51.258 23.2158 50.718 23.2158 50.13C23.2158 49.77 23.2758 49.44 23.3958 49.14C23.5158 48.828 23.6718 48.546 23.8638 48.294C24.0558 48.042 24.2658 47.82 24.4938 47.628C24.7338 47.436 24.9738 47.28 25.2138 47.16C24.7698 46.944 24.3918 46.62 24.0798 46.188C23.7678 45.756 23.6118 45.282 23.6118 44.766C23.6118 44.19 23.7378 43.686 23.9898 43.254C24.2538 42.81 24.5898 42.438 24.9978 42.138C25.4178 41.838 25.8738 41.61 26.3658 41.454C26.8698 41.298 27.3678 41.22 27.8598 41.22C28.3398 41.22 28.8318 41.298 29.3358 41.454C29.8518 41.598 30.3138 41.82 30.7218 42.12C31.1298 42.42 31.4658 42.792 31.7298 43.236C31.9938 43.668 32.1258 44.172 32.1258 44.748C32.1258 45 32.0838 45.252 31.9998 45.504C31.9158 45.744 31.7958 45.972 31.6398 46.188C31.4958 46.392 31.3218 46.578 31.1178 46.746C30.9138 46.914 30.6978 47.052 30.4698 47.16C30.7338 47.292 30.9858 47.46 31.2258 47.664C31.4658 47.856 31.6818 48.084 31.8738 48.348C32.0658 48.6 32.2158 48.882 32.3238 49.194C32.4438 49.506 32.5038 49.848 32.5038 50.22ZM30.0558 50.076C30.0558 49.776 29.9898 49.506 29.8578 49.266C29.7378 49.026 29.5698 48.828 29.3538 48.672C29.1498 48.504 28.9158 48.378 28.6518 48.294C28.3878 48.21 28.1178 48.168 27.8418 48.168C27.5538 48.168 27.2778 48.216 27.0138 48.312C26.7498 48.396 26.5158 48.522 26.3118 48.69C26.1198 48.858 25.9638 49.062 25.8438 49.302C25.7238 49.53 25.6638 49.788 25.6638 50.076C25.6638 50.364 25.7238 50.628 25.8438 50.868C25.9758 51.096 26.1438 51.294 26.3478 51.462C26.5518 51.63 26.7858 51.762 27.0498 51.858C27.3138 51.942 27.5838 51.984 27.8598 51.984C28.1478 51.984 28.4238 51.936 28.6878 51.84C28.9518 51.744 29.1858 51.612 29.3898 51.444C29.5938 51.276 29.7558 51.078 29.8758 50.85C29.9958 50.61 30.0558 50.352 30.0558 50.076ZM26.0598 44.838C26.0598 45.09 26.1138 45.312 26.2218 45.504C26.3298 45.684 26.4678 45.84 26.6358 45.972C26.8158 46.092 27.0078 46.188 27.2118 46.26C27.4278 46.32 27.6438 46.35 27.8598 46.35C28.0638 46.35 28.2738 46.32 28.4898 46.26C28.7058 46.188 28.8978 46.086 29.0658 45.954C29.2458 45.822 29.3898 45.666 29.4978 45.486C29.6058 45.294 29.6598 45.072 29.6598 44.82C29.6598 44.376 29.4798 44.022 29.1198 43.758C28.7718 43.494 28.3458 43.362 27.8418 43.362C27.3498 43.362 26.9298 43.5 26.5818 43.776C26.2338 44.04 26.0598 44.394 26.0598 44.838ZM44.0193 49.59L46.8093 44.568H49.2753V54H46.9713V48.33L44.5773 52.578H43.4433L41.0493 48.33V54H38.7453V44.568H41.2293L44.0193 49.59Z" fill="white"/>
<g clip-path="url(#clip1_173_426)">
<path d="M28.9845 1.04462C28.9845 0.494345 28.5754 0 28.0673 0H18.8659C18.3579 0 18 0.494345 18 1.04462V35.9064C18 36.4577 18.3579 36.9511 18.8659 36.9511H28.0673C28.5754 36.9511 28.9845 36.4577 28.9845 35.9064V1.04462ZM19.8308 34.9537V1.99735H27.1538V3.99471H23.5628C23.0547 3.99471 22.6428 4.44312 22.6428 4.99339C22.6428 5.54366 23.0547 5.99206 23.5628 5.99206H27.1538V8.9881H25.518C25.01 8.9881 24.598 9.4365 24.598 9.98677C24.598 10.537 25.01 10.9855 25.518 10.9855H27.1538V12.9828H25.518C25.01 12.9828 24.598 13.4312 24.598 13.9815C24.598 14.5318 25.01 14.9802 25.518 14.9802H27.1538V17.9762H23.5628C23.0547 17.9762 22.6428 18.4246 22.6428 18.9749C22.6428 19.5251 23.0547 19.9735 23.5628 19.9735H27.1538V22.9696H25.518C25.01 22.9696 24.598 23.418 24.598 23.9683C24.598 24.5185 25.01 24.9669 25.518 24.9669H27.1538V26.9643H25.518C25.01 26.9643 24.598 27.4127 24.598 27.963C24.598 28.5132 25.01 28.9616 25.518 28.9616H27.1538V30.959H23.5628C23.0547 30.959 22.6428 31.4074 22.6428 31.9577C22.6428 32.5089 23.0547 32.9564 23.5628 32.9564H27.1538V34.9537H19.8308Z" fill="white"/>
<path d="M38.6985 3.70299L35.8636 0.804826C35.686 0.622068 35.4489 0.521202 35.2027 0.533186C34.9574 0.541175 34.7258 0.655024 34.5592 0.848768L31.8597 3.97463C31.5128 4.3771 31.533 5.00726 31.9037 5.38276C32.0804 5.56253 32.3055 5.65141 32.5316 5.65141C32.7779 5.65141 33.0516 5.54555 33.2346 5.33583L34.4768 3.93169V36.0032C34.4768 36.5545 34.8832 36.9999 35.3922 36.9999C35.9011 36.9999 36.3076 36.5545 36.3076 36.0032V3.94567L37.4609 5.15207C37.8308 5.53057 38.401 5.51159 38.748 5.11112C39.0986 4.71165 39.0683 4.08049 38.6985 3.70299Z" fill="white"/>
</g>
</g>
<defs>
<clipPath id="clip0_173_426">
<rect width="50" height="55" fill="white"/>
</clipPath>
<clipPath id="clip1_173_426">
<rect width="20.9942" height="37" fill="white" transform="translate(18)"/>
</clipPath>
</defs>
</svg>
