<svg width="56" height="55" viewBox="0 0 56 55" fill="none" xmlns="http://www.w3.org/2000/svg">
<g clip-path="url(#clip0_173_323)">
<path d="M9.12874 47.752C9.87274 47.884 10.4727 48.244 10.9287 48.832C11.3967 49.408 11.6307 50.116 11.6307 50.956C11.6307 51.52 11.5167 52.03 11.2887 52.486C11.0727 52.942 10.7607 53.326 10.3527 53.638C9.95674 53.962 9.47074 54.208 8.89474 54.376C8.31874 54.556 7.67074 54.646 6.95074 54.646C6.03874 54.646 5.22873 54.496 4.52073 54.196C3.82473 53.908 3.24273 53.482 2.77473 52.918L4.14273 51.208C4.45473 51.604 4.82673 51.91 5.25873 52.126C5.69073 52.342 6.23073 52.45 6.87874 52.45C7.61073 52.45 8.16873 52.306 8.55273 52.018C8.93673 51.73 9.12874 51.286 9.12874 50.686C9.12874 50.062 8.90674 49.582 8.46273 49.246C8.01873 48.91 7.34673 48.742 6.44673 48.742H5.94273V46.942H6.50074C7.24474 46.942 7.82074 46.78 8.22874 46.456C8.63674 46.12 8.84073 45.694 8.84073 45.178C8.84073 44.686 8.67273 44.32 8.33674 44.08C8.00074 43.84 7.56273 43.72 7.02273 43.72C6.47073 43.72 5.97273 43.846 5.52873 44.098C5.09673 44.35 4.74273 44.704 4.46673 45.16L2.95473 43.468C3.13473 43.192 3.37473 42.946 3.67473 42.73C3.97473 42.502 4.31073 42.31 4.68273 42.154C5.06673 41.986 5.48073 41.86 5.92473 41.776C6.36873 41.68 6.82473 41.632 7.29274 41.632C7.90474 41.632 8.46273 41.71 8.96673 41.866C9.47074 42.022 9.90274 42.238 10.2627 42.514C10.6347 42.79 10.9167 43.126 11.1087 43.522C11.3127 43.906 11.4147 44.338 11.4147 44.818C11.4147 45.178 11.3607 45.52 11.2527 45.844C11.1447 46.168 10.9887 46.462 10.7847 46.726C10.5807 46.99 10.3347 47.212 10.0467 47.392C9.77073 47.572 9.46473 47.692 9.12874 47.752ZM18.3094 43.702H12.4954V41.506H22.1074L15.7714 54.286H13.0354L18.3094 43.702ZM32.0052 46.726C32.0052 47.518 31.8852 48.25 31.6452 48.922C31.4172 49.582 31.0932 50.158 30.6732 50.65C30.2652 51.13 29.7732 51.508 29.1972 51.784C28.6332 52.048 28.0212 52.18 27.3612 52.18C26.6892 52.18 26.0712 52.048 25.5072 51.784C24.9432 51.508 24.4512 51.13 24.0312 50.65C23.6232 50.158 23.2992 49.582 23.0592 48.922C22.8312 48.25 22.7172 47.518 22.7172 46.726C22.7172 45.934 22.8312 45.208 23.0592 44.548C23.2992 43.876 23.6232 43.3 24.0312 42.82C24.4512 42.328 24.9432 41.944 25.5072 41.668C26.0712 41.392 26.6892 41.254 27.3612 41.254C28.0212 41.254 28.6332 41.392 29.1972 41.668C29.7732 41.944 30.2652 42.328 30.6732 42.82C31.0932 43.3 31.4172 43.876 31.6452 44.548C31.8852 45.208 32.0052 45.934 32.0052 46.726ZM29.5752 46.726C29.5752 46.246 29.5212 45.808 29.4132 45.412C29.3052 45.004 29.1492 44.656 28.9452 44.368C28.7532 44.08 28.5192 43.858 28.2432 43.702C27.9792 43.546 27.6852 43.468 27.3612 43.468C27.0252 43.468 26.7192 43.546 26.4432 43.702C26.1792 43.858 25.9452 44.08 25.7412 44.368C25.5492 44.656 25.3992 45.004 25.2912 45.412C25.1832 45.808 25.1292 46.246 25.1292 46.726C25.1292 47.206 25.1832 47.644 25.2912 48.04C25.3992 48.436 25.5492 48.778 25.7412 49.066C25.9452 49.354 26.1792 49.576 26.4432 49.732C26.7192 49.888 27.0252 49.966 27.3612 49.966C27.6852 49.966 27.9792 49.888 28.2432 49.732C28.5192 49.576 28.7532 49.354 28.9452 49.066C29.1492 48.778 29.3052 48.436 29.4132 48.04C29.5212 47.644 29.5752 47.206 29.5752 46.726ZM44.128 42.568H46.72L43.048 47.14L47.008 52H44.272L41.356 48.364H40.726V52H38.35V42.568H40.726V46.312H41.266L44.128 42.568ZM54.3892 44.566H50.4472V52H48.0532V42.568H54.3892V44.566Z" fill="white"/>
<g clip-path="url(#clip1_173_323)">
<path d="M42.1767 30.285L39.3808 16.354C39.3242 13.472 37.1472 11.11 34.4773 11.11H33.4294C34.4965 10.11 35.1573 8.342 35.1573 6.558C35.1564 2.933 32.4363 0 29.0946 0C25.7519 0 23.0318 2.923 23.0318 6.549C23.0318 8.333 23.6927 10.11 24.7588 11.11H23.448C20.7781 11.11 18.5993 13.472 18.5436 16.354L15.7477 30.267C15.734 30.336 15.7267 30.562 15.7267 30.635C15.7267 33.569 17.9275 36.111 20.6321 36.111H37.2914C39.9969 36.111 42.1977 33.578 42.1977 30.644C42.1977 30.571 42.1913 30.354 42.1767 30.285ZM24.8574 6.596C24.8574 4.066 26.7578 2.008 29.0946 2.008C31.4304 2.008 33.3308 4.066 33.3308 6.596C33.3308 9.126 31.4304 11.184 29.0946 11.184C26.7578 11.184 24.8574 9.126 24.8574 6.596ZM37.2914 34.11H20.6321C18.9653 34.11 17.6034 32.529 17.5532 30.739L20.3464 16.788C20.361 16.719 20.3674 16.581 20.3674 16.509C20.3674 14.671 21.7493 13.111 23.4471 13.111H34.4764C36.1742 13.111 37.5552 14.637 37.5552 16.475C37.5552 16.546 37.5625 16.633 37.5762 16.703L40.3703 30.732C40.3219 32.521 38.96 34.11 37.2914 34.11Z" fill="white"/>
<path d="M29.0946 3.58203C27.5638 3.58203 26.3188 4.93403 26.3188 6.59603C26.3188 8.25903 27.5638 9.61103 29.0946 9.61103C30.6244 9.61103 31.8695 8.25803 31.8695 6.59603C31.8695 4.93403 30.6244 3.58203 29.0946 3.58203ZM29.0946 7.62203C28.5706 7.62203 28.1444 7.16203 28.1444 6.59603C28.1444 6.03003 28.5697 5.57003 29.0946 5.57003C29.6176 5.57003 30.0439 6.02903 30.0439 6.59503C30.0439 7.16103 29.6176 7.62203 29.0946 7.62203Z" fill="white"/>
<path d="M24.6246 25.2089H23.9062V28.9749H22.2276V19.8989H23.9062V23.6339H24.4922L26.6254 19.8989H28.7011L25.9472 24.1259L28.9311 28.9759H26.7925L24.6246 25.2089Z" fill="white"/>
<path d="M29.1876 29.124H26.7167L24.5488 25.358H24.0432V29.124H22.0907V19.749H24.0432V23.484H24.4165L26.5497 19.749H28.9668L26.1143 24.127L29.1876 29.124ZM26.8682 28.825H28.6747L25.7811 24.122L28.4364 20.048H26.7021L24.5689 23.783H23.7693V20.048H22.3636V28.825H23.7693V25.06H24.7004L26.8682 28.825Z" fill="white"/>
<path d="M35.8017 27.7331C35.5416 28.1041 35.1527 28.4241 34.6351 28.6971C34.1176 28.9681 33.4503 29.1041 32.6343 29.1041C31.6229 29.1041 30.795 28.7601 30.1506 28.0691C29.5071 27.3801 29.1849 26.4841 29.1849 25.3831V23.4901C29.1849 22.3921 29.497 21.4971 30.1223 20.8051C30.7476 20.1131 31.5499 19.7681 32.5312 19.7681C33.5544 19.7681 34.3385 20.0301 34.8825 20.5561C35.4275 21.0821 35.6903 21.7841 35.6703 22.6601L35.6593 22.6971H34.0783C34.0783 22.2161 33.9496 21.8411 33.6931 21.5731C33.4367 21.3041 33.0624 21.1711 32.5713 21.1711C32.0574 21.1711 31.643 21.3871 31.329 21.8161C31.015 22.2481 30.8571 22.8011 30.8571 23.4771V25.3841C30.8571 26.0701 31.0178 26.6291 31.34 27.0621C31.6622 27.4941 32.093 27.7081 32.6334 27.7081C33.0332 27.7081 33.3481 27.6661 33.58 27.5781C33.8118 27.4911 33.9907 27.3801 34.1167 27.2481V25.4901H32.5065V24.2311H35.8008V27.7331H35.8017Z" fill="white"/>
<path d="M32.6334 29.2541C31.5883 29.2541 30.7202 28.8921 30.0539 28.1761C29.3866 27.4611 29.0471 26.5211 29.0471 25.3841V23.4901C29.0471 22.3561 29.3757 21.4181 30.0237 20.7011C30.6718 19.9831 31.5152 19.6191 32.5303 19.6191C33.5845 19.6191 34.407 19.8971 34.9729 20.4451C35.547 21.0001 35.8282 21.7471 35.8072 22.6641L35.7889 22.7421L35.7597 22.8461H33.9405V22.6971C33.9405 22.2541 33.8292 21.9221 33.5982 21.6801C33.3691 21.4411 33.0232 21.3201 32.5713 21.3201C32.0976 21.3201 31.7261 21.5121 31.4358 21.9091C31.1428 22.3101 30.994 22.8381 30.994 23.4761V25.3831C30.994 26.0301 31.1465 26.5641 31.4468 26.9671C31.7434 27.3641 32.1314 27.5581 32.6334 27.5581C33.0177 27.5581 33.3207 27.5171 33.5352 27.4371C33.7215 27.3671 33.8702 27.2811 33.9789 27.1811V25.6401H32.3696V24.0821H35.9386V27.7841L35.9103 27.8241C35.6383 28.2111 35.2294 28.5511 34.6945 28.8311C34.1596 29.1111 33.4668 29.2541 32.6334 29.2541ZM32.5303 19.9181C31.5919 19.9181 30.8142 20.2521 30.2191 20.9101C29.623 21.5701 29.3209 22.4371 29.3209 23.4901V25.3841C29.3209 26.4391 29.6322 27.3061 30.2456 27.9631C30.8589 28.6221 31.6622 28.9551 32.6334 28.9551C33.4248 28.9551 34.0784 28.8231 34.5749 28.5621C35.0523 28.3111 35.4192 28.0161 35.6639 27.6821V24.3801H32.6435V25.3401H34.2536V27.3111L34.2116 27.3551C34.0711 27.5021 33.8739 27.6251 33.6238 27.7181C33.3764 27.8121 33.0533 27.8581 32.6325 27.8581C32.052 27.8581 31.581 27.6211 31.2332 27.1561C30.8918 26.6971 30.7193 26.1011 30.7193 25.3841V23.4771C30.7193 22.7701 30.8882 22.1791 31.2204 21.7231C31.5618 21.2571 32.0155 21.0221 32.5704 21.0221C33.0953 21.0221 33.5042 21.1711 33.7863 21.4651C34.0418 21.7331 34.1852 22.0971 34.2098 22.5481H35.5333C35.5288 21.7631 35.286 21.1481 34.7903 20.6691C34.2764 20.1711 33.5152 19.9181 32.5303 19.9181Z" fill="white"/>
</g>
</g>
<defs>
<clipPath id="clip0_173_323">
<rect width="56" height="55" fill="white"/>
</clipPath>
<clipPath id="clip1_173_323">
<rect width="26.4709" height="36.11" fill="white" transform="translate(15.7267)"/>
</clipPath>
</defs>
</svg>
