<svg width="44" height="55" viewBox="0 0 44 55" fill="none" xmlns="http://www.w3.org/2000/svg">
<g clip-path="url(#clip0_173_513)">
<path d="M2.00334 52C2.00334 51.46 2.04534 50.974 2.12934 50.542C2.21334 50.098 2.35734 49.69 2.56134 49.318C2.77734 48.946 3.06534 48.598 3.42534 48.274C3.79734 47.95 4.26534 47.632 4.82934 47.32C5.32134 47.056 5.75334 46.828 6.12534 46.636C6.50934 46.432 6.82734 46.246 7.07934 46.078C7.33134 45.91 7.52334 45.742 7.65534 45.574C7.78734 45.394 7.85334 45.19 7.85334 44.962C7.85334 44.602 7.70934 44.296 7.42134 44.044C7.13334 43.78 6.71934 43.648 6.17934 43.648C5.89134 43.648 5.62734 43.69 5.38734 43.774C5.14734 43.846 4.91934 43.948 4.70334 44.08C4.49934 44.212 4.30734 44.362 4.12734 44.53C3.95934 44.686 3.80334 44.854 3.65934 45.034L2.11134 43.252C2.26734 43.084 2.48934 42.904 2.77734 42.712C3.06534 42.508 3.40134 42.322 3.78534 42.154C4.18134 41.974 4.61334 41.83 5.08134 41.722C5.56134 41.602 6.07134 41.542 6.61134 41.542C7.22334 41.542 7.76934 41.62 8.24934 41.776C8.72934 41.92 9.13134 42.13 9.45534 42.406C9.79134 42.67 10.0433 42.994 10.2113 43.378C10.3913 43.75 10.4813 44.158 10.4813 44.602C10.4813 45.022 10.4033 45.394 10.2473 45.718C10.0913 46.042 9.89334 46.33 9.65334 46.582C9.41334 46.834 9.14934 47.056 8.86134 47.248C8.58534 47.428 8.31534 47.59 8.05134 47.734C7.83534 47.854 7.58934 47.992 7.31334 48.148C7.03734 48.304 6.76134 48.478 6.48534 48.67C6.22134 48.85 5.97534 49.042 5.74734 49.246C5.51934 49.438 5.34534 49.63 5.22534 49.822H10.6793V52H2.00334ZM12.5235 52V49.408H14.5035V52H12.5235ZM22.3805 47.752C23.1245 47.884 23.7245 48.244 24.1805 48.832C24.6485 49.408 24.8825 50.116 24.8825 50.956C24.8825 51.52 24.7685 52.03 24.5405 52.486C24.3245 52.942 24.0125 53.326 23.6045 53.638C23.2085 53.962 22.7225 54.208 22.1465 54.376C21.5705 54.556 20.9225 54.646 20.2025 54.646C19.2905 54.646 18.4805 54.496 17.7725 54.196C17.0765 53.908 16.4945 53.482 16.0265 52.918L17.3945 51.208C17.7065 51.604 18.0785 51.91 18.5105 52.126C18.9425 52.342 19.4825 52.45 20.1305 52.45C20.8625 52.45 21.4205 52.306 21.8045 52.018C22.1885 51.73 22.3805 51.286 22.3805 50.686C22.3805 50.062 22.1585 49.582 21.7145 49.246C21.2705 48.91 20.5985 48.742 19.6985 48.742H19.1945V46.942H19.7525C20.4965 46.942 21.0725 46.78 21.4805 46.456C21.8885 46.12 22.0925 45.694 22.0925 45.178C22.0925 44.686 21.9245 44.32 21.5885 44.08C21.2525 43.84 20.8145 43.72 20.2745 43.72C19.7225 43.72 19.2245 43.846 18.7805 44.098C18.3485 44.35 17.9945 44.704 17.7185 45.16L16.2065 43.468C16.3865 43.192 16.6265 42.946 16.9265 42.73C17.2265 42.502 17.5625 42.31 17.9345 42.154C18.3185 41.986 18.7325 41.86 19.1765 41.776C19.6205 41.68 20.0765 41.632 20.5445 41.632C21.1565 41.632 21.7145 41.71 22.2185 41.866C22.7225 42.022 23.1545 42.238 23.5145 42.514C23.8865 42.79 24.1685 43.126 24.3605 43.522C24.5645 43.906 24.6665 44.338 24.6665 44.818C24.6665 45.178 24.6125 45.52 24.5045 45.844C24.3965 46.168 24.2405 46.462 24.0365 46.726C23.8325 46.99 23.5865 47.212 23.2985 47.392C23.0225 47.572 22.7165 47.692 22.3805 47.752ZM36.2918 47.59L39.0818 42.568H41.5478V52H39.2438V46.33L36.8498 50.578H35.7158L33.3218 46.33V52H31.0178V42.568H33.5018L36.2918 47.59Z" fill="white"/>
<g clip-path="url(#clip1_173_513)">
<path d="M22.2758 1.04462C22.2758 0.494345 21.8558 0 21.3343 0H11.8889C11.3674 0 11 0.494345 11 1.04462V35.9064C11 36.4577 11.3674 36.9511 11.8889 36.9511H21.3343C21.8558 36.9511 22.2758 36.4577 22.2758 35.9064V1.04462ZM12.8793 34.9537V1.99735H20.3965V3.99471H16.7103C16.1887 3.99471 15.7659 4.44312 15.7659 4.99339C15.7659 5.54366 16.1887 5.99206 16.7103 5.99206H20.3965V8.9881H18.7173C18.1958 8.9881 17.773 9.4365 17.773 9.98677C17.773 10.537 18.1958 10.9855 18.7173 10.9855H20.3965V12.9828H18.7173C18.1958 12.9828 17.773 13.4312 17.773 13.9815C17.773 14.5318 18.1958 14.9802 18.7173 14.9802H20.3965V17.9762H16.7103C16.1887 17.9762 15.7659 18.4246 15.7659 18.9749C15.7659 19.5251 16.1887 19.9735 16.7103 19.9735H20.3965V22.9696H18.7173C18.1958 22.9696 17.773 23.418 17.773 23.9683C17.773 24.5185 18.1958 24.9669 18.7173 24.9669H20.3965V26.9643H18.7173C18.1958 26.9643 17.773 27.4127 17.773 27.963C17.773 28.5132 18.1958 28.9616 18.7173 28.9616H20.3965V30.959H16.7103C16.1887 30.959 15.7659 31.4074 15.7659 31.9577C15.7659 32.5089 16.1887 32.9564 16.7103 32.9564H20.3965V34.9537H12.8793Z" fill="white"/>
<path d="M32.2474 3.70299L29.3373 0.804826C29.155 0.622068 28.9116 0.521202 28.6589 0.533186C28.4071 0.541175 28.1693 0.655024 27.9983 0.848768L25.2273 3.97463C24.8712 4.3771 24.8918 5.00726 25.2724 5.38276C25.4537 5.56253 25.6849 5.65141 25.917 5.65141C26.1697 5.65141 26.4507 5.54555 26.6386 5.33583L27.9137 3.93169V36.0032C27.9137 36.5545 28.3309 36.9999 28.8534 36.9999C29.3758 36.9999 29.793 36.5545 29.793 36.0032V3.94567L30.977 5.15207C31.3566 5.53057 31.942 5.51159 32.2981 5.11112C32.658 4.71165 32.627 4.08049 32.2474 3.70299Z" fill="white"/>
</g>
</g>
<defs>
<clipPath id="clip0_173_513">
<rect width="44" height="55" fill="white"/>
</clipPath>
<clipPath id="clip1_173_513">
<rect width="21.5509" height="37" fill="white" transform="translate(11)"/>
</clipPath>
</defs>
</svg>
