<svg width="63" height="55" viewBox="0 0 63 55" fill="none" xmlns="http://www.w3.org/2000/svg">
<g clip-path="url(#clip0_173_440)">
<path d="M7.04257 47.752C7.78657 47.884 8.38657 48.244 8.84257 48.832C9.31057 49.408 9.54457 50.116 9.54457 50.956C9.54457 51.52 9.43057 52.03 9.20257 52.486C8.98657 52.942 8.67457 53.326 8.26657 53.638C7.87057 53.962 7.38457 54.208 6.80857 54.376C6.23257 54.556 5.58457 54.646 4.86457 54.646C3.95257 54.646 3.14257 54.496 2.43457 54.196C1.73857 53.908 1.15657 53.482 0.68857 52.918L2.05657 51.208C2.36857 51.604 2.74057 51.91 3.17257 52.126C3.60457 52.342 4.14457 52.45 4.79257 52.45C5.52457 52.45 6.08257 52.306 6.46657 52.018C6.85057 51.73 7.04257 51.286 7.04257 50.686C7.04257 50.062 6.82057 49.582 6.37657 49.246C5.93257 48.91 5.26057 48.742 4.36057 48.742H3.85657V46.942H4.41457C5.15857 46.942 5.73457 46.78 6.14257 46.456C6.55057 46.12 6.75457 45.694 6.75457 45.178C6.75457 44.686 6.58657 44.32 6.25057 44.08C5.91457 43.84 5.47657 43.72 4.93657 43.72C4.38457 43.72 3.88657 43.846 3.44257 44.098C3.01057 44.35 2.65657 44.704 2.38057 45.16L0.86857 43.468C1.04857 43.192 1.28857 42.946 1.58857 42.73C1.88857 42.502 2.22457 42.31 2.59657 42.154C2.98057 41.986 3.39457 41.86 3.83857 41.776C4.28257 41.68 4.73857 41.632 5.20657 41.632C5.81857 41.632 6.37657 41.71 6.88057 41.866C7.38457 42.022 7.81657 42.238 8.17657 42.514C8.54857 42.79 8.83057 43.126 9.02257 43.522C9.22657 43.906 9.32857 44.338 9.32857 44.818C9.32857 45.178 9.27457 45.52 9.16657 45.844C9.05857 46.168 8.90257 46.462 8.69857 46.726C8.49457 46.99 8.24857 47.212 7.96057 47.392C7.68457 47.572 7.37857 47.692 7.04257 47.752ZM20.9539 47.59L23.7439 42.568H26.2099V52H23.9059V46.33L21.5119 50.578H20.3779L17.9839 46.33V52H15.6799V42.568H18.1639L20.9539 47.59ZM28.4768 52V42.568H30.8888V52H28.4768ZM28.4768 41.254V38.86H30.8888V41.254H28.4768ZM32.505 47.284C32.505 46.624 32.619 46 32.847 45.412C33.075 44.824 33.405 44.308 33.837 43.864C34.269 43.42 34.791 43.066 35.403 42.802C36.015 42.538 36.705 42.406 37.473 42.406C38.505 42.406 39.381 42.628 40.101 43.072C40.833 43.516 41.379 44.098 41.739 44.818L39.381 45.538C39.177 45.19 38.907 44.926 38.571 44.746C38.235 44.554 37.863 44.458 37.455 44.458C37.107 44.458 36.783 44.53 36.483 44.674C36.183 44.806 35.919 44.998 35.691 45.25C35.475 45.49 35.301 45.784 35.169 46.132C35.049 46.48 34.989 46.864 34.989 47.284C34.989 47.704 35.055 48.088 35.187 48.436C35.319 48.784 35.493 49.084 35.709 49.336C35.937 49.588 36.201 49.786 36.501 49.93C36.801 50.062 37.119 50.128 37.455 50.128C37.887 50.128 38.283 50.02 38.643 49.804C39.015 49.588 39.273 49.324 39.417 49.012L41.775 49.732C41.451 50.452 40.917 51.04 40.173 51.496C39.429 51.952 38.535 52.18 37.491 52.18C36.723 52.18 36.033 52.048 35.421 51.784C34.809 51.52 34.287 51.166 33.855 50.722C33.423 50.266 33.087 49.744 32.847 49.156C32.619 48.556 32.505 47.932 32.505 47.284ZM43.2951 42.568H45.6891V49.912H48.8211V42.568H51.2151V49.912H52.7631V54.7H50.6391V52H43.2951V42.568ZM55.8483 48.418C55.2843 48.214 54.8403 47.89 54.5163 47.446C54.1923 47.002 54.0303 46.42 54.0303 45.7C54.0303 45.22 54.1143 44.788 54.2823 44.404C54.4503 44.008 54.6843 43.678 54.9843 43.414C55.2843 43.138 55.6383 42.928 56.0463 42.784C56.4663 42.628 56.9163 42.55 57.3963 42.55H61.6803V52H59.3043V48.814H58.0263L56.0643 52H53.4723L55.8483 48.418ZM59.3043 46.978V44.458H57.6843C57.3723 44.458 57.0903 44.572 56.8383 44.8C56.5863 45.016 56.4603 45.328 56.4603 45.736C56.4603 46.12 56.5743 46.426 56.8023 46.654C57.0423 46.87 57.3243 46.978 57.6483 46.978H59.3043Z" fill="white"/>
<g clip-path="url(#clip1_173_440)">
<path d="M44.3183 30.9968H40.769C39.4592 30.9968 38.3937 29.8265 38.3937 28.3883V22.6446C37.3461 22.3732 36.5648 21.3386 36.5648 20.1069V12.5272C36.5648 11.0889 37.6303 9.91748 38.9412 9.91748H46.1483C47.4602 9.91748 48.5257 11.0889 48.5257 12.5272V20.0837C48.5257 21.3154 47.7476 22.35 46.7 22.6214V28.3883C46.6958 29.8265 45.6292 30.9968 44.3183 30.9968ZM38.9412 12.2372C38.7664 12.2372 38.6759 12.3833 38.6759 12.5272V20.1069C38.6759 20.2611 38.8001 20.3945 38.9412 20.3945H40.5047V28.3883C40.5047 28.5448 40.6237 28.6771 40.769 28.6771H44.3183C44.4626 28.6771 44.5837 28.5448 44.5837 28.3883V20.3725H46.1451C46.2914 20.3725 46.4104 20.2414 46.4104 20.0837V12.5272C46.4104 12.3694 46.2914 12.2372 46.1451 12.2372H38.9412Z" fill="white"/>
<path d="M42.5337 11.0307C40.2626 11.0307 38.4148 9.00556 38.4148 6.51534C38.4148 4.02512 40.2626 2 42.5337 2C44.8048 2 46.6526 4.02628 46.6526 6.5165C46.6526 9.00672 44.8048 11.0307 42.5337 11.0307ZM42.5337 4.31972C41.4271 4.31972 40.5269 5.3056 40.5269 6.5165C40.5269 7.72739 41.4271 8.71211 42.5337 8.71211C43.6414 8.71211 44.5405 7.72739 44.5405 6.5165C44.5405 5.3056 43.6414 4.31972 42.5337 4.31972Z" fill="white"/>
<path d="M30.1465 30.9968H26.5972C25.2863 30.9968 24.2187 29.8265 24.2187 28.3883V22.6446C23.1732 22.3721 22.3919 21.3386 22.3919 20.1069V12.5272C22.3919 11.0889 23.4574 9.91748 24.7683 9.91748H31.9743C33.2862 9.91748 34.3528 11.0889 34.3528 12.5272V20.0837C34.3528 21.3154 33.5736 22.3489 32.526 22.6214V28.3883C32.5239 29.8265 31.4573 30.9968 30.1465 30.9968ZM24.7683 12.2372C24.5946 12.2372 24.504 12.3833 24.504 12.5272V20.1069C24.504 20.2611 24.6282 20.3945 24.7683 20.3945H26.3318V28.3883C26.3318 28.5448 26.454 28.6771 26.5972 28.6771H30.1465C30.2907 28.6771 30.4128 28.5448 30.4128 28.3883V20.3725H31.9732C32.1175 20.3725 32.2407 20.2414 32.2407 20.0837V12.5272C32.2407 12.3694 32.1175 12.2372 31.9732 12.2372H24.7683Z" fill="white"/>
<path d="M28.3597 11.0307C26.0896 11.0307 24.2418 9.00556 24.2418 6.51534C24.2418 4.02512 26.0896 2 28.3597 2C30.6318 2 32.4807 4.02628 32.4807 6.5165C32.4807 9.00672 30.6318 11.0307 28.3597 11.0307ZM28.3597 4.31972C27.2541 4.31972 26.3539 5.3056 26.3539 6.5165C26.3539 7.72739 27.2541 8.71211 28.3607 8.71211C29.4684 8.71211 30.3697 7.72739 30.3697 6.5165C30.3697 5.3056 29.4673 4.31972 28.3597 4.31972Z" fill="white"/>
<path d="M15.9988 30.9968H12.4495C11.1386 30.9968 10.0731 29.8265 10.0731 28.3883V22.6446C9.02545 22.3732 8.2442 21.3386 8.2442 20.1069V12.5272C8.2442 11.0889 9.31183 9.91748 10.6206 9.91748H17.8287C19.1406 9.91748 20.2072 11.0889 20.2072 12.5272V20.0837C20.2072 21.3154 19.4259 22.3489 18.3783 22.6214V28.3883C18.3762 29.8265 17.3086 30.9968 15.9988 30.9968ZM10.6195 12.2372C10.4458 12.2372 10.3553 12.3833 10.3553 12.5272V20.1069C10.3553 20.2611 10.4795 20.3945 10.6195 20.3945H12.1831V28.3883C12.1841 28.5448 12.3052 28.6771 12.4495 28.6771H15.9988C16.143 28.6771 16.2651 28.5448 16.2651 28.3883V20.3725H17.8266C17.9708 20.3725 18.094 20.2414 18.094 20.0837V12.5272C18.094 12.3694 17.9708 12.2372 17.8266 12.2372H10.6195Z" fill="white"/>
<path d="M14.2109 11.0307C11.943 11.0307 10.0931 9.00556 10.0931 6.51534C10.0931 4.02512 11.942 2 14.2109 2C16.4831 2 18.332 4.02628 18.332 6.5165C18.332 9.00672 16.4841 11.0307 14.2109 11.0307ZM14.2109 4.31972C13.1054 4.31972 12.2073 5.3056 12.2073 6.5165C12.2073 7.72739 13.1065 8.71211 14.212 8.71211C15.3217 8.71211 16.2209 7.72739 16.2209 6.5165C16.2209 5.3056 15.3196 4.31972 14.2109 4.31972Z" fill="white"/>
<path d="M56.1466 31H53.7303C52.709 31 51.8782 30.0872 51.8782 28.968V25.2506C51.1538 24.9746 50.6306 24.2183 50.6306 23.3322V18.1685C50.6306 17.0469 51.4592 16.1353 52.4826 16.1353H57.3912C58.4114 16.1353 59.2432 17.0469 59.2432 18.1685V23.316C59.2432 24.2067 58.721 24.9606 57.9945 25.2344V28.9749C57.9966 30.0872 57.1658 31 56.1466 31ZM52.829 23.273H53.7766V28.968L56.0919 28.9111V23.2545H57.3859L57.3364 17.5897L52.4794 17.6454L52.531 23.3287L52.829 23.273Z" fill="white"/>
<path d="M54.9305 17.3592C53.0606 17.3592 51.5328 15.6902 51.5328 13.6372C51.5328 11.5843 53.0564 9.91406 54.9305 9.91406C56.8015 9.91406 58.3272 11.5843 58.3272 13.6372C58.3272 15.6902 56.8026 17.3592 54.9305 17.3592ZM54.9305 12.003C54.1082 12.003 53.4354 12.736 53.4354 13.6372C53.4354 14.5373 54.1082 15.2703 54.9305 15.2703C55.7528 15.2703 56.4235 14.5373 56.4235 13.6372C56.4235 12.736 55.756 12.003 54.9305 12.003Z" fill="white"/>
</g>
</g>
<defs>
<clipPath id="clip0_173_440">
<rect width="63" height="55" fill="white"/>
</clipPath>
<clipPath id="clip1_173_440">
<rect width="51" height="29" fill="white" transform="translate(8.2442 2)"/>
</clipPath>
</defs>
</svg>
