<svg width="224" height="100" viewBox="0 0 224 100" fill="none" xmlns="http://www.w3.org/2000/svg">
<path d="M25 0.0737305H49.2782V36.4307H44.6639V1.77464H29.6143V36.4307H25V0.0737305Z" fill="#F08A40"/>
<path d="M54.1061 12.1895C60.2111 11.906 65.0384 13.4652 68.5878 16.7961C72.1372 20.1979 73.77 23.9541 73.486 28.2064C72.9891 34.3013 68.0199 37.0653 58.7204 36.3566V46.9164H54.1061V12.1895ZM58.7204 13.8904V34.7265C62.4828 35.01 65.0384 34.4431 66.4581 33.0256C67.8779 31.6082 68.5878 29.5529 68.5878 26.8598C68.5878 23.458 67.8069 20.694 66.1742 18.497C64.6124 16.2291 62.1278 14.67 58.7204 13.8904Z" fill="#F08A40"/>
<path d="M86.0503 11.9038L87.3281 12.896C84.0626 17.7861 82.6429 22.9597 83.2108 28.2751C83.9207 33.2361 87.2571 35.3622 93.1492 34.6535V12.1873H97.7635V36.4253C85.3405 37.7718 78.8805 35.0787 78.4545 28.4877C78.1706 22.7471 80.7262 17.2192 86.0503 11.9038Z" fill="#F08A40"/>
<path d="M107.205 0V21.5449C110.116 17.2926 114.659 14.1743 120.764 12.119V17.0091C117.995 16.4421 114.943 17.1509 111.393 19.2061C117.001 23.671 120.551 29.4116 121.971 36.357H117.143C117.214 29.6242 114.943 24.0962 110.47 19.9148C108.98 21.1905 107.915 22.7497 107.205 24.6632V36.357H102.591V0H107.205Z" fill="#F08A40"/>
<path d="M146.248 36.3605H141.421C141.421 24.0998 139.788 16.7292 136.594 14.3196C133.47 16.8001 131.837 24.1707 131.766 36.3605H126.939C126.939 24.5959 130.205 16.5166 136.665 12.1226C143.054 16.4457 146.319 24.525 146.248 36.3605Z" fill="#F08A40"/>
<path d="M162.079 12.1195C168.042 11.9069 170.882 16.0883 170.527 24.522V36.4284C166.48 36.7119 162.363 36.7827 158.104 36.7827C153.844 36.7827 151.502 34.6566 151.076 30.3335C151.147 27.1442 152.992 25.0181 156.613 23.955C160.233 22.892 162.718 21.9706 164.138 21.1911C165.557 20.3406 166.054 18.994 165.628 17.0805C165.202 15.167 163.925 14.1039 161.724 13.8913C159.523 13.6787 157.394 14.7418 155.335 17.0097L154.412 16.0883C156.329 13.7496 158.813 12.403 162.079 12.1195ZM165.699 22.4667C163.996 23.3172 162.008 24.2385 159.594 25.1599C157.181 26.0812 155.974 27.7821 155.974 30.2626C156.045 35.011 159.239 36.5701 165.699 34.9401V22.4667Z" fill="#F08A40"/>
<path d="M185.292 46.7763L184.866 46.0676C187.705 43.658 189.338 40.4688 189.622 36.4291C180.961 36.7835 176.276 34.0195 175.495 28.0663C175.14 24.0266 176.56 20.3413 179.826 17.0104C183.091 13.6794 188.06 12.0494 194.804 12.1911V24.3101C194.804 36.2874 191.61 43.7997 185.292 46.7763ZM183.02 18.0026C181.032 20.4831 180.109 23.4597 180.251 27.0741C180.322 30.1216 181.103 32.2477 182.665 33.4525C184.227 34.6573 186.64 35.2243 189.906 35.0826C190.545 30.7594 190.616 23.7431 190.119 13.892C187.421 14.1755 185.008 15.5221 183.02 18.0026Z" fill="#F08A40"/>
<path d="M2.48461 85.5423C2.41362 79.9435 2.41362 73.1399 2.41362 65.0605H7.02789V77.1795C6.9569 79.1639 7.45383 81.4318 8.51866 84.054C9.58349 86.6763 10.8613 87.8811 12.2811 87.7393C13.9138 87.8102 15.1206 86.6054 15.9015 84.054C16.6824 81.5027 17.1083 79.2348 17.2503 77.1795V65.0605H21.8646V89.2985H17.2503V84.5501C16.5404 87.8102 14.8367 89.3694 12.1391 89.2985C10.0804 89.2276 8.37668 87.7394 7.02789 84.8336C6.24702 91.2829 4.40131 96.3148 1.41978 100H0C1.70373 95.8895 2.5556 91.0703 2.48461 85.5423Z" fill="#F08A40"/>
<path d="M37.6947 64.9882C43.6577 64.7756 46.4973 68.957 46.1423 77.3907V89.297C42.096 89.5805 37.9786 89.6514 33.7193 89.6514C29.46 89.6514 27.1173 87.5253 26.6914 83.2021C26.7624 80.0129 28.6081 77.8868 32.2285 76.8237C35.849 75.7606 38.3336 74.8393 39.7533 74.0597C41.1731 73.2093 41.67 71.8627 41.2441 69.9492C40.8182 68.0357 39.5404 66.9726 37.3397 66.76C35.1391 66.5474 33.0094 67.6104 30.9507 69.8783L30.0279 68.957C31.9446 66.6182 34.4292 65.2717 37.6947 64.9882ZM41.3151 75.3354C39.6114 76.1858 37.6237 77.1072 35.2101 78.0285C32.7964 78.9498 31.5896 80.6507 31.5896 83.1312C31.6606 87.8796 34.8551 89.4388 41.3151 87.8087V75.3354Z" fill="#F08A40"/>
<path d="M51.0408 65.0586C57.1458 64.7751 61.9731 66.3343 65.5225 69.6653C69.0719 73.0671 70.7047 76.8233 70.4207 81.0755C69.9238 87.1705 65.0256 89.9344 55.655 89.2257V99.7855H51.0408V65.0586V65.0586ZM55.655 66.7595V87.5957C59.4175 87.8792 61.9731 87.3122 63.3928 85.8948C64.8126 84.4774 65.5225 82.4221 65.5225 79.729C65.5225 76.3272 64.7416 73.5632 63.1089 71.3662C61.4761 69.0983 58.9915 67.5391 55.655 66.7595Z" fill="#F08A40"/>
<path d="M83.9084 89.2277C78.5843 89.015 75.6737 86.2511 75.2478 80.9357V65.0605H79.8621V80.227C79.7201 84.6919 80.9979 87.0306 83.7665 87.1015C86.1801 86.8889 88.5937 86.1802 91.0073 84.9045C90.4394 83.9832 90.2264 82.2823 90.2974 79.8018V65.0605H94.9117V80.227C94.7697 84.6919 96.2605 86.9598 99.526 87.1015C101.94 86.8889 104.069 86.3219 105.844 85.3297V65.0605H110.458V89.2985H105.844V87.0306C104.424 88.0228 102.366 88.7316 99.597 89.2985C96.8284 89.6529 94.2728 88.6607 91.9302 86.3219L90.2264 87.1015C88.7357 87.952 86.606 88.6607 83.9084 89.2277Z" fill="#F08A40"/>
<path d="M115.285 65.0586C121.39 64.7751 126.218 66.3343 129.767 69.6653C133.317 73.0671 134.949 76.8233 134.665 81.0755C134.168 87.1705 129.27 89.9344 119.9 89.2257V99.7855H115.285V65.0586ZM119.9 66.7595V87.5957C123.662 87.8792 126.218 87.3122 127.637 85.8948C129.057 84.4774 129.767 82.4221 129.767 79.729C129.767 76.3272 128.986 73.5632 127.354 71.3662C125.792 69.0983 123.236 67.5391 119.9 66.7595Z" fill="#F08A40"/>
<path d="M145.1 64.7744L146.236 65.4831C141.905 81.0039 144.39 88.4454 153.618 87.7367C154.328 84.7601 154.612 77.1769 154.257 64.987H158.872L158.943 76.7517C158.73 87.4532 155.606 95.0364 149.643 99.5722L148.862 99.3596C151.276 96.383 152.838 92.9812 153.476 89.0833C138.001 89.0124 135.161 80.9331 145.1 64.7744Z" fill="#F08A40"/>
<path d="M190.532 65.0607C195.856 65.2733 198.767 68.0373 199.193 73.3526V89.2278H194.578V74.1322C194.72 69.6673 193.443 67.3285 190.674 67.2577C188.26 67.4703 185.847 68.179 183.433 69.4547C184.001 70.376 184.214 72.0769 184.143 74.5574V89.2986H179.529V74.1322C179.671 69.6673 178.18 67.3994 174.914 67.2577C172.501 67.4703 170.371 68.0373 168.596 69.0295V89.2986H163.982V65.0607H168.596V67.3285C170.016 66.3363 172.075 65.6276 174.843 65.0607C177.612 64.7063 180.168 65.6985 182.51 68.0373L184.214 67.2577C185.705 66.3363 187.834 65.6276 190.532 65.0607Z" fill="#F08A40"/>
<path d="M209.629 64.7744L210.764 65.4831C206.434 81.0039 208.919 88.4454 218.147 87.7367C218.857 84.7601 219.141 77.1769 218.786 64.987H223.4L223.471 76.7517C223.258 87.4532 220.135 95.0364 214.172 99.5722L213.391 99.3596C215.805 96.383 217.366 92.9812 218.005 89.0833C202.53 89.0124 199.761 80.9331 209.629 64.7744Z" fill="#F08A40"/>
</svg>
