<svg width="302" height="144" viewBox="0 0 302 144" fill="none" xmlns="http://www.w3.org/2000/svg">
<g clip-path="url(#clip0_217_579)">
<path d="M3.26074 9.0957H36.0597V58.2127H29.826V11.3936H9.49447V58.2127H3.26074V9.0957Z" fill="#F08A40"/>
<path d="M42.5811 25.4681C50.8288 25.0851 57.3503 27.1915 62.1454 31.6915C66.9406 36.2872 69.1464 41.3617 68.7628 47.1064C68.0914 55.3404 61.3782 59.0744 48.8148 58.117V72.3829H42.5811V25.4681ZM48.8148 27.7659V55.9149C53.8977 56.2978 57.3502 55.5319 59.2683 53.617C61.1864 51.7021 62.1454 48.9255 62.1454 45.2872C62.1454 40.6915 61.0905 36.9574 58.8847 33.9893C56.7748 30.9255 53.4182 28.8191 48.8148 27.7659Z" fill="#F08A40"/>
<path d="M85.7377 25.085L87.464 26.4254C83.0524 33.0318 81.1344 40.0211 81.9016 47.202C82.8606 53.9041 87.3681 56.7765 95.3281 55.819V25.4679H101.562V58.2126C84.7787 60.0318 76.0515 56.3935 75.476 47.4892C75.0924 39.7339 78.545 32.2658 85.7377 25.085Z" fill="#F08A40"/>
<path d="M114.317 9V38.1064C118.249 32.3617 124.387 28.1489 132.634 25.3723V31.9787C128.894 31.2128 124.77 32.1702 119.975 34.9468C127.552 40.9787 132.347 48.734 134.265 58.117H127.743C127.839 49.0213 124.77 41.5532 118.728 35.9043C116.715 37.6277 115.276 39.734 114.317 42.3192V58.117H108.083V9H114.317Z" fill="#F08A40"/>
<path d="M167.064 58.1172H160.542C160.542 41.5534 158.337 31.596 154.021 28.3406C149.801 31.6917 147.595 41.6492 147.5 58.1172H140.978C140.978 42.2236 145.39 31.3087 154.117 25.3726C162.748 31.213 167.16 42.1279 167.064 58.1172Z" fill="#F08A40"/>
<path d="M188.45 25.3722C196.506 25.085 200.342 30.7339 199.863 42.1276V58.2127C194.396 58.5956 188.834 58.6914 183.08 58.6914C177.325 58.6914 174.161 55.8191 173.585 49.9786C173.681 45.6701 176.175 42.7978 181.066 41.3616C185.957 39.9254 189.313 38.6808 191.232 37.6276C193.15 36.4786 193.821 34.6595 193.245 32.0744C192.67 29.4893 190.944 28.0531 187.971 27.7659C184.998 27.4786 182.121 28.9148 179.339 31.9786L178.093 30.7339C180.682 27.5744 184.039 25.7552 188.45 25.3722ZM193.341 39.351C191.04 40.4999 188.354 41.7446 185.094 42.9893C181.833 44.2339 180.203 46.5318 180.203 49.8829C180.299 56.2978 184.614 58.4042 193.341 56.202V39.351Z" fill="#F08A40"/>
<path d="M219.811 72.1915L219.235 71.234C223.071 67.9787 225.277 63.6702 225.661 58.2127C213.961 58.6915 207.631 54.9574 206.576 46.9149C206.097 41.4574 208.015 36.4787 212.426 31.9787C216.838 27.4787 223.551 25.2765 232.662 25.468V41.8404C232.662 58.0212 228.346 68.1702 219.811 72.1915ZM216.742 33.3191C214.057 36.6702 212.81 40.6914 213.002 45.5744C213.097 49.6914 214.152 52.5638 216.262 54.1915C218.372 55.8191 221.633 56.5851 226.044 56.3936C226.908 50.5531 227.003 41.0744 226.332 27.7659C222.688 28.1489 219.427 29.968 216.742 33.3191Z" fill="#F08A40"/>
<path d="M3.35662 124.564C3.26072 117 3.26072 107.808 3.26072 96.8936H9.49444V113.266C9.39854 115.947 10.0699 119.011 11.5084 122.553C12.947 126.096 14.6732 127.723 16.5913 127.532C18.7971 127.628 20.4274 126 21.4824 122.553C22.5373 119.106 23.1127 116.042 23.3045 113.266V96.8936H29.5383V129.638H23.3045V123.223C22.3455 127.628 20.0438 129.734 16.3995 129.638C13.6183 129.542 11.3166 127.532 9.49444 123.606C8.4395 132.319 5.94601 139.117 1.91807 144.096H0C2.30168 138.542 3.45252 132.032 3.35662 124.564Z" fill="#F08A40"/>
<path d="M50.9247 96.798C58.9806 96.5108 62.8168 102.16 62.3372 113.553V129.638C56.8707 130.021 51.3083 130.117 45.5541 130.117C39.7999 130.117 36.6351 127.245 36.0597 121.404C36.1556 117.096 38.6491 114.224 43.5402 112.787C48.4312 111.351 51.7879 110.107 53.7059 109.053C55.624 107.904 56.2953 106.085 55.7199 103.5C55.1445 100.915 53.4182 99.4789 50.4452 99.1916C47.4722 98.9044 44.5951 100.341 41.8139 103.404L40.5672 102.16C43.1565 99.0002 46.5132 97.181 50.9247 96.798ZM55.8158 110.777C53.5141 111.926 50.8288 113.17 47.5681 114.415C44.3074 115.66 42.677 117.958 42.677 121.309C42.7729 127.724 47.0886 129.83 55.8158 127.628V110.777Z" fill="#F08A40"/>
<path d="M68.9546 96.8938C77.2023 96.5109 83.7237 98.6172 88.5189 103.117C93.3141 107.713 95.5199 112.787 95.1362 118.532C94.4649 126.766 87.8476 130.5 75.1883 129.543V143.809H68.9546V96.8938V96.8938ZM75.1883 99.1917V127.341C80.2712 127.724 83.7237 126.958 85.6418 125.043C87.5599 123.128 88.5189 120.351 88.5189 116.713C88.5189 112.117 87.464 108.383 85.2582 105.415C83.0524 102.351 79.6958 100.245 75.1883 99.1917Z" fill="#F08A40"/>
<path d="M113.358 129.542C106.165 129.255 102.233 125.521 101.658 118.34V96.8936H107.891V117.383C107.7 123.415 109.426 126.574 113.166 126.67C116.427 126.383 119.688 125.425 122.948 123.702C122.181 122.457 121.893 120.16 121.989 116.808V96.8936H128.223V117.383C128.031 123.415 130.045 126.479 134.457 126.67C137.717 126.383 140.594 125.617 142.992 124.277V96.8936H149.226V129.638H142.992V126.574C141.074 127.915 138.293 128.872 134.553 129.638C130.812 130.117 127.36 128.777 124.195 125.617L121.893 126.67C119.879 127.819 117.002 128.777 113.358 129.542Z" fill="#F08A40"/>
<path d="M155.747 96.8938C163.995 96.5109 170.516 98.6172 175.312 103.117C180.107 107.713 182.312 112.787 181.929 118.532C181.258 126.766 174.64 130.5 161.981 129.543V143.809H155.747V96.8938ZM161.981 99.1917V127.341C167.064 127.724 170.516 126.958 172.434 125.043C174.352 123.128 175.312 120.351 175.312 116.713C175.312 112.117 174.257 108.383 172.051 105.415C169.941 102.351 166.488 100.245 161.981 99.1917Z" fill="#F08A40"/>
<path d="M196.027 96.5107L197.561 97.4682C191.711 118.436 195.068 128.489 207.535 127.532C208.494 123.511 208.878 113.266 208.398 96.798H214.632L214.728 112.692C214.44 127.149 210.22 137.394 202.165 143.521L201.11 143.234C204.37 139.213 206.48 134.617 207.343 129.351C186.436 129.255 182.6 118.341 196.027 96.5107Z" fill="#F08A40"/>
<path d="M257.405 96.8938C264.598 97.181 268.53 100.915 269.105 108.096V129.543H262.871V109.149C263.063 103.117 261.337 99.9576 257.597 99.8619C254.336 100.149 251.075 101.107 247.815 102.83C248.582 104.075 248.869 106.373 248.774 109.724V129.638H242.54V109.149C242.732 103.117 240.718 100.053 236.306 99.8619C233.045 100.149 230.168 100.915 227.771 102.256V129.638H221.537V96.8938H227.771V99.9576C229.689 98.6172 232.47 97.6598 236.21 96.8938C239.95 96.4151 243.403 97.7555 246.568 100.915L248.869 99.8619C250.883 98.6172 253.761 97.6598 257.405 96.8938Z" fill="#F08A40"/>
<path d="M283.203 96.5107L284.737 97.4682C278.887 118.436 282.244 128.489 294.711 127.532C295.67 123.511 296.054 113.266 295.574 96.798H301.808L301.904 112.692C301.616 127.149 297.397 137.394 289.341 143.521L288.286 143.234C291.547 139.213 293.656 134.617 294.52 129.351C273.613 129.255 269.872 118.341 283.203 96.5107Z" fill="#F08A40"/>
</g>
<defs>
<clipPath id="clip0_217_579">
<rect width="302" height="144" fill="white"/>
</clipPath>
</defs>
</svg>
